<?xml version="1.0" encoding="UTF-8" standalone="no"?>
<!-- Created with Inkscape (http://www.inkscape.org/) -->

<svg
   xmlns:dc="http://purl.org/dc/elements/1.1/"
   xmlns:cc="http://creativecommons.org/ns#"
   xmlns:rdf="http://www.w3.org/1999/02/22-rdf-syntax-ns#"
   xmlns:svg="http://www.w3.org/2000/svg"
   xmlns="http://www.w3.org/2000/svg"
   xmlns:sodipodi="http://sodipodi.sourceforge.net/DTD/sodipodi-0.dtd"
   xmlns:inkscape="http://www.inkscape.org/namespaces/inkscape"
   width="71.986832mm"
   height="40.38649mm"
   viewBox="0 0 255.07145 143.10174"
   id="svg2"
   version="1.1"
   inkscape:version="0.91 r13725"
   sodipodi:docname="double_diamond.svg">
  <title
     id="title4221">Double Diamond Design Process Model</title>
  <defs
     id="defs4" />
  <sodipodi:namedview
     id="base"
     pagecolor="#ffffff"
     bordercolor="#666666"
     borderopacity="1.0"
     inkscape:pageopacity="0.0"
     inkscape:pageshadow="2"
     inkscape:zoom="1.4"
     inkscape:cx="155.23088"
     inkscape:cy="115.33115"
     inkscape:document-units="px"
     inkscape:current-layer="layer1"
     showgrid="false"
     inkscape:window-width="1438"
     inkscape:window-height="879"
     inkscape:window-x="0"
     inkscape:window-y="19"
     inkscape:window-maximized="1"
     fit-margin-top="0"
     fit-margin-left="0"
     fit-margin-right="0"
     fit-margin-bottom="0" />
  <metadata
     id="metadata7">
    <rdf:RDF>
      <cc:Work
         rdf:about="">
        <dc:format>image/svg+xml</dc:format>
        <dc:type
           rdf:resource="http://purl.org/dc/dcmitype/StillImage" />
        <dc:title>Double Diamond Design Process Model</dc:title>
        <cc:license
           rdf:resource="http://creativecommons.org/publicdomain/zero/1.0/" />
        <dc:creator>
          <cc:Agent>
            <dc:title>Design Studio Spring</dc:title>
          </cc:Agent>
        </dc:creator>
        <dc:rights>
          <cc:Agent>
            <dc:title></dc:title>
          </cc:Agent>
        </dc:rights>
        <dc:publisher>
          <cc:Agent>
            <dc:title>Design Studio Spring</dc:title>
          </cc:Agent>
        </dc:publisher>
        <dc:language>en-AU</dc:language>
        <dc:description>The double diamond design process model, created by The British Design Council.</dc:description>
        <dc:date>1 September 2016</dc:date>
      </cc:Work>
      <cc:License
         rdf:about="http://creativecommons.org/publicdomain/zero/1.0/">
        <cc:permits
           rdf:resource="http://creativecommons.org/ns#Reproduction" />
        <cc:permits
           rdf:resource="http://creativecommons.org/ns#Distribution" />
        <cc:permits
           rdf:resource="http://creativecommons.org/ns#DerivativeWorks" />
      </cc:License>
    </rdf:RDF>
  </metadata>
  <g
     inkscape:label="Layer 1"
     inkscape:groupmode="layer"
     id="layer1"
     transform="translate(-86.85714,-396.43705)">
    <circle
       style="opacity:1;fill:#da3d0a;fill-opacity:1;fill-rule:nonzero;stroke:none;stroke-width:2.83464575;stroke-miterlimit:4;stroke-dasharray:none;stroke-dashoffset:0;stroke-opacity:0.99607843"
       id="path4138"
       cx="94.35714"
       cy="459.14792"
       r="7.5" />
    <rect
       style="opacity:1;fill:none;fill-opacity:1;fill-rule:nonzero;stroke:#da3d0a;stroke-width:2.06066084;stroke-miterlimit:4;stroke-dasharray:none;stroke-dashoffset:0;stroke-opacity:0.99607843"
       id="rect4144"
       width="90.669075"
       height="90.669075"
       x="387.67096"
       y="171.49828"
       ry="5"
       rx="5"
       transform="matrix(0.70710678,0.70710678,-0.70710678,0.70710678,0,0)" />
    <circle
       style="opacity:1;fill:#da3d0a;fill-opacity:1;fill-rule:nonzero;stroke:none;stroke-width:2.83464575;stroke-miterlimit:4;stroke-dasharray:none;stroke-dashoffset:0;stroke-opacity:0.99607843"
       id="path4138-9"
       cx="213.57143"
       cy="459.50507"
       r="7.5" />
    <circle
       style="opacity:1;fill:#da3d0a;fill-opacity:1;fill-rule:nonzero;stroke:none;stroke-width:2.83464575;stroke-miterlimit:4;stroke-dasharray:none;stroke-dashoffset:0;stroke-opacity:0.99607843"
       id="path4138-6"
       cx="334.42859"
       cy="459.50507"
       r="7.5" />
    <rect
       style="opacity:1;fill:none;fill-opacity:1;fill-rule:nonzero;stroke:#da3d0a;stroke-width:2.06066084;stroke-miterlimit:4;stroke-dasharray:none;stroke-dashoffset:0;stroke-opacity:0.99607843"
       id="rect4144-9"
       width="90.669075"
       height="90.669075"
       x="474.03897"
       y="85.130241"
       ry="5"
       rx="5"
       transform="matrix(0.70710678,0.70710678,-0.70710678,0.70710678,0,0)" />
    <g
       transform="translate(-1.428571,-23.570591)"
       style="font-style:normal;font-variant:normal;font-weight:500;font-stretch:normal;font-size:15px;line-height:125%;font-family:Roboto;-inkscape-font-specification:'Roboto, Medium';text-align:start;letter-spacing:0px;word-spacing:0px;writing-mode:lr-tb;text-anchor:start;fill:#da3d0a;fill-opacity:1;stroke:none;stroke-width:1px;stroke-linecap:butt;stroke-linejoin:miter;stroke-opacity:1"
       id="flowRoot4201">
      <path
         d="m 91.083984,560.0625 0,-10.66406 3.149414,0 q 1.413575,0 2.504883,0.62988 1.098633,0.62988 1.699219,1.78711 0.600586,1.15723 0.600586,2.65137 l 0,0.53466 q 0,1.51612 -0.60791,2.66602 -0.600586,1.1499 -1.721192,1.77246 -1.113281,0.62256 -2.556152,0.62256 l -3.068848,0 z m 1.853028,-9.16992 0,7.69043 1.208496,0 q 1.457519,0 2.233887,-0.90821 0.783691,-0.91552 0.798339,-2.62207 l 0,-0.59326 q 0,-1.73584 -0.754394,-2.65136 -0.754395,-0.91553 -2.189942,-0.91553 l -1.296386,0 z"
         style=""
         id="path4253" />
      <path
         d="m 102.61963,560.0625 -1.77979,0 0,-7.9248 1.77979,0 0,7.9248 z m -1.88965,-9.98291 q 0,-0.41016 0.25635,-0.68115 0.26367,-0.271 0.74707,-0.271 0.4834,0 0.74707,0.271 0.26367,0.27099 0.26367,0.68115 0,0.40283 -0.26367,0.67383 -0.26367,0.26367 -0.74707,0.26367 -0.4834,0 -0.74707,-0.26367 -0.25635,-0.271 -0.25635,-0.67383 z"
         style=""
         id="path4255" />
      <path
         d="m 109.00635,557.90918 q 0,-0.47607 -0.39551,-0.7251 -0.38818,-0.24902 -1.29639,-0.43945 -0.9082,-0.19043 -1.51611,-0.4834 -1.33301,-0.64453 -1.33301,-1.86768 0,-1.02539 0.86426,-1.71386 0.86426,-0.68848 2.19727,-0.68848 1.42089,0 2.29248,0.70313 0.8789,0.70312 0.8789,1.82373 l -1.77978,0 q 0,-0.5127 -0.38086,-0.84961 -0.38086,-0.34424 -1.01074,-0.34424 -0.58594,0 -0.95948,0.27099 -0.36621,0.271 -0.36621,0.7251 0,0.41016 0.34424,0.63721 0.34424,0.22705 1.3916,0.46143 1.04737,0.22705 1.64063,0.54931 0.60058,0.31494 0.88623,0.76172 0.29297,0.44678 0.29297,1.08398 0,1.06934 -0.88623,1.73584 -0.88623,0.65918 -2.32178,0.65918 -0.97412,0 -1.73584,-0.35156 -0.76172,-0.35156 -1.18653,-0.9668 -0.4248,-0.61523 -0.4248,-1.32568 l 1.72852,0 q 0.0366,0.62988 0.47607,0.97412 0.43945,0.33692 1.16455,0.33692 0.70313,0 1.06934,-0.26368 0.36621,-0.27099 0.36621,-0.70312 z"
         style=""
         id="path4257" />
      <path
         d="m 115.5542,558.78809 q 0.6665,0 1.10596,-0.38819 0.43945,-0.38818 0.46875,-0.95947 l 1.67724,0 q -0.0293,0.73975 -0.46142,1.38428 -0.43213,0.6372 -1.17188,1.01074 -0.73974,0.37353 -1.59668,0.37353 -1.6626,0 -2.63672,-1.07666 -0.97412,-1.07666 -0.97412,-2.97363 l 0,-0.1831 q 0,-1.80909 0.9668,-2.89307 0.9668,-1.09131 2.63672,-1.09131 1.41357,0 2.2998,0.82764 0.89356,0.82031 0.9375,2.16064 l -1.67724,0 q -0.0293,-0.68115 -0.46875,-1.1206 -0.43213,-0.43946 -1.10596,-0.43946 -0.86426,0 -1.33301,0.62989 -0.46875,0.62255 -0.47607,1.89697 l 0,0.28564 q 0,1.28907 0.46142,1.92627 0.46875,0.62989 1.34766,0.62989 z"
         style=""
         id="path4259" />
      <path
         d="m 119.81689,556.02686 q 0,-1.16456 0.46143,-2.09473 0.46143,-0.9375 1.29639,-1.43555 0.83496,-0.50537 1.91894,-0.50537 1.60401,0 2.6001,1.03272 1.00342,1.03271 1.08398,2.73925 l 0.007,0.41748 q 0,1.17188 -0.4541,2.09473 -0.44678,0.92285 -1.28907,1.42822 -0.83496,0.50537 -1.93359,0.50537 -1.67725,0 -2.68799,-1.11328 -1.00342,-1.1206 -1.00342,-2.98095 l 0,-0.0879 z m 1.77979,0.1538 q 0,1.22315 0.50537,1.91895 0.50537,0.68848 1.40625,0.68848 0.90088,0 1.39893,-0.70313 0.50537,-0.70312 0.50537,-2.0581 0,-1.20118 -0.52002,-1.9043 -0.5127,-0.70313 -1.39893,-0.70313 -0.87158,0 -1.38427,0.6958 -0.5127,0.68848 -0.5127,2.06543 z"
         style=""
         id="path4261" />
      <path
         d="m 131.38184,557.80664 1.67724,-5.66894 1.83838,0 -2.74658,7.9248 -1.54541,0 -2.76856,-7.9248 1.84571,0 1.69922,5.66894 z"
         style=""
         id="path4263" />
      <path
         d="m 139.40186,560.20898 q -1.6919,0 -2.74659,-1.06201 -1.04736,-1.06933 -1.04736,-2.84179 l 0,-0.21973 q 0,-1.18652 0.4541,-2.1167 0.46143,-0.9375 1.28906,-1.45752 0.82764,-0.52002 1.84571,-0.52002 1.61865,0 2.49756,1.03272 0.88623,1.03271 0.88623,2.92236 l 0,0.71777 -5.17823,0 q 0.0806,0.98145 0.65186,1.55274 0.57861,0.57129 1.45019,0.57129 1.22315,0 1.99219,-0.98877 l 0.95947,0.91552 q -0.47607,0.71045 -1.27441,1.10596 -0.79102,0.38818 -1.77978,0.38818 z m -0.21241,-6.78955 q -0.73242,0 -1.18652,0.5127 -0.44678,0.51269 -0.57129,1.42822 l 3.39111,0 0,-0.13183 q -0.0586,-0.89356 -0.47607,-1.34766 -0.41748,-0.46143 -1.15723,-0.46143 z"
         style=""
         id="path4265" />
      <path
         d="m 148.11768,553.76367 q -0.35157,-0.0586 -0.7251,-0.0586 -1.22315,0 -1.64795,0.9375 l 0,5.41992 -1.77979,0 0,-7.9248 1.69922,0 0.0439,0.88623 q 0.64453,-1.03272 1.78711,-1.03272 0.38086,0 0.62988,0.10254 l -0.007,1.66992 z"
         style=""
         id="path4267" />
      <path
         d="m 160.66406,560.0625 0,-10.66406 3.14942,0 q 1.41357,0 2.50488,0.62988 1.09863,0.62988 1.69922,1.78711 0.60058,1.15723 0.60058,2.65137 l 0,0.53466 q 0,1.51612 -0.60791,2.66602 -0.60058,1.1499 -1.72119,1.77246 -1.11328,0.62256 -2.55615,0.62256 l -3.06885,0 z m 1.85303,-9.16992 0,7.69043 1.2085,0 q 1.45752,0 2.23388,-0.90821 0.78369,-0.91552 0.79834,-2.62207 l 0,-0.59326 q 0,-1.73584 -0.75439,-2.65136 -0.7544,-0.91553 -2.18994,-0.91553 l -1.29639,0 z"
         style=""
         id="path4269" />
      <path
         d="m 173.79639,560.20898 q -1.6919,0 -2.74659,-1.06201 -1.04736,-1.06933 -1.04736,-2.84179 l 0,-0.21973 q 0,-1.18652 0.4541,-2.1167 0.46143,-0.9375 1.28907,-1.45752 0.82763,-0.52002 1.8457,-0.52002 1.61865,0 2.49756,1.03272 0.88623,1.03271 0.88623,2.92236 l 0,0.71777 -5.17823,0 q 0.0806,0.98145 0.65186,1.55274 0.57861,0.57129 1.4502,0.57129 1.22314,0 1.99218,-0.98877 l 0.95948,0.91552 q -0.47608,0.71045 -1.27442,1.10596 -0.79101,0.38818 -1.77978,0.38818 z m -0.21241,-6.78955 q -0.73242,0 -1.18652,0.5127 -0.44678,0.51269 -0.57129,1.42822 l 3.39112,0 0,-0.13183 q -0.0586,-0.89356 -0.47608,-1.34766 -0.41748,-0.46143 -1.15723,-0.46143 z"
         style=""
         id="path4271" />
      <path
         d="m 178.83545,560.0625 0,-6.60645 -1.2085,0 0,-1.31835 1.2085,0 0,-0.542 q 0.007,-0.93017 0.39551,-1.59668 0.38818,-0.6665 1.09863,-1.00341 0.71045,-0.33692 1.70654,-0.33692 0.58594,0 1.12061,0.12451 0.54199,0.12451 1.1206,0.31494 l -0.27099,1.47217 q -1.01074,-0.35156 -1.84571,-0.35156 -0.81298,0 -1.17919,0.35889 -0.36622,0.35156 -0.36622,1.06201 l 0,0.49805 1.56006,0 0,1.31835 -1.56006,0 0,6.60645 -1.77978,0 z m 6.28418,0 -1.77979,0 0,-7.9248 1.77979,0 0,7.9248 z"
         style=""
         id="path4273" />
      <path
         d="m 188.74512,552.1377 0.0513,0.91552 q 0.8789,-1.06201 2.30713,-1.06201 2.47558,0 2.51953,2.83447 l 0,5.23682 -1.77979,0 0,-5.13428 q 0,-0.75439 -0.32959,-1.11328 -0.32226,-0.36621 -1.06201,-0.36621 -1.07666,0 -1.604,0.97412 l 0,5.63965 -1.77979,0 0,-7.9248 1.67725,0 z"
         style=""
         id="path4275" />
      <path
         d="m 198.93311,560.20898 q -1.6919,0 -2.74659,-1.06201 -1.04736,-1.06933 -1.04736,-2.84179 l 0,-0.21973 q 0,-1.18652 0.4541,-2.1167 0.46143,-0.9375 1.28906,-1.45752 0.82764,-0.52002 1.84571,-0.52002 1.61865,0 2.49756,1.03272 0.88623,1.03271 0.88623,2.92236 l 0,0.71777 -5.17823,0 q 0.0806,0.98145 0.65186,1.55274 0.57861,0.57129 1.45019,0.57129 1.22315,0 1.99219,-0.98877 l 0.95947,0.91552 q -0.47607,0.71045 -1.27441,1.10596 -0.79102,0.38818 -1.77978,0.38818 z m -0.21241,-6.78955 q -0.73242,0 -1.18652,0.5127 -0.44678,0.51269 -0.57129,1.42822 l 3.39111,0 0,-0.13183 q -0.0586,-0.89356 -0.47607,-1.34766 -0.41748,-0.46143 -1.15723,-0.46143 z"
         style=""
         id="path4277" />
    </g>
    <g
       transform="translate(39.285714,-52.142857)"
       style="font-style:normal;font-variant:normal;font-weight:500;font-stretch:normal;font-size:15px;line-height:125%;font-family:Roboto;-inkscape-font-specification:'Roboto, Medium';text-align:start;letter-spacing:0px;word-spacing:0px;writing-mode:lr-tb;text-anchor:start;fill:#da3d0a;fill-opacity:1;stroke:none;stroke-width:1px;stroke-linecap:butt;stroke-linejoin:miter;stroke-opacity:1"
       id="flowRoot4213">
      <path
         d="m 179.65625,588.63477 0,-10.66407 3.14941,0 q 1.41358,0 2.50489,0.62989 1.09863,0.62988 1.69922,1.78711 0.60058,1.15722 0.60058,2.65136 l 0,0.53467 q 0,1.51611 -0.60791,2.66602 -0.60058,1.1499 -1.72119,1.77246 -1.11328,0.62256 -2.55615,0.62256 l -3.06885,0 z m 1.85303,-9.16993 0,7.69043 1.20849,0 q 1.45752,0 2.23389,-0.9082 0.78369,-0.91553 0.79834,-2.62207 l 0,-0.59326 q 0,-1.73584 -0.75439,-2.65137 -0.7544,-0.91553 -2.18995,-0.91553 l -1.29638,0 z"
         style=""
         id="path4224" />
      <path
         d="m 192.78857,588.78125 q -1.69189,0 -2.74658,-1.06201 -1.04736,-1.06934 -1.04736,-2.8418 l 0,-0.21973 q 0,-1.18652 0.4541,-2.11669 0.46143,-0.9375 1.28906,-1.45752 0.82764,-0.52002 1.84571,-0.52002 1.61865,0 2.49755,1.03271 0.88624,1.03272 0.88624,2.92236 l 0,0.71778 -5.17823,0 q 0.0806,0.98144 0.65186,1.55273 0.57861,0.57129 1.45019,0.57129 1.22315,0 1.99219,-0.98877 l 0.95947,0.91553 q -0.47607,0.71045 -1.27441,1.10596 -0.79102,0.38818 -1.77979,0.38818 z m -0.2124,-6.78955 q -0.73242,0 -1.18652,0.51269 -0.44678,0.5127 -0.57129,1.42823 l 3.39111,0 0,-0.13184 q -0.0586,-0.89355 -0.47607,-1.34766 -0.41748,-0.46142 -1.15723,-0.46142 z"
         style=""
         id="path4226" />
      <path
         d="m 200.06152,586.37891 1.67725,-5.66895 1.83838,0 -2.74658,7.92481 -1.54541,0 -2.76856,-7.92481 1.8457,0 1.69922,5.66895 z"
         style=""
         id="path4228" />
      <path
         d="m 208.08154,588.78125 q -1.69189,0 -2.74658,-1.06201 -1.04736,-1.06934 -1.04736,-2.8418 l 0,-0.21973 q 0,-1.18652 0.4541,-2.11669 0.46142,-0.9375 1.28906,-1.45752 0.82764,-0.52002 1.8457,-0.52002 1.61866,0 2.49756,1.03271 0.88623,1.03272 0.88623,2.92236 l 0,0.71778 -5.17822,0 q 0.0806,0.98144 0.65186,1.55273 0.57861,0.57129 1.45019,0.57129 1.22315,0 1.99219,-0.98877 l 0.95947,0.91553 q -0.47607,0.71045 -1.27441,1.10596 -0.79102,0.38818 -1.77979,0.38818 z m -0.2124,-6.78955 q -0.73242,0 -1.18652,0.51269 -0.44678,0.5127 -0.57129,1.42823 l 3.39111,0 0,-0.13184 q -0.0586,-0.89355 -0.47607,-1.34766 -0.41748,-0.46142 -1.15723,-0.46142 z"
         style=""
         id="path4230" />
      <path
         d="m 214.5415,588.63477 -1.77978,0 0,-11.25 1.77978,0 0,11.25 z"
         style=""
         id="path4232" />
      <path
         d="m 216.15283,584.59912 q 0,-1.16455 0.46143,-2.09473 0.46142,-0.9375 1.29638,-1.43554 0.83497,-0.50537 1.91895,-0.50537 1.604,0 2.6001,1.03271 1.00342,1.03272 1.08398,2.73926 l 0.007,0.41748 q 0,1.17187 -0.45411,2.09473 -0.44677,0.92285 -1.28906,1.42822 -0.83496,0.50537 -1.93359,0.50537 -1.67725,0 -2.68799,-1.11328 -1.00342,-1.12061 -1.00342,-2.98096 l 0,-0.0879 z m 1.77979,0.15381 q 0,1.22314 0.50537,1.91894 0.50537,0.68848 1.40625,0.68848 0.90088,0 1.39892,-0.70312 0.50538,-0.70313 0.50538,-2.05811 0,-1.20117 -0.52002,-1.9043 -0.5127,-0.70312 -1.39893,-0.70312 -0.87158,0 -1.38428,0.6958 -0.51269,0.68848 -0.51269,2.06543 z"
         style=""
         id="path4234" />
      <path
         d="m 231.98047,584.75293 q 0,1.83838 -0.83496,2.93701 -0.83496,1.09131 -2.24121,1.09131 -1.30371,0 -2.08741,-0.85693 l 0,3.75732 -1.77978,0 0,-10.97168 1.64062,0 0.0733,0.80566 q 0.78369,-0.95214 2.13134,-0.95214 1.4502,0 2.27051,1.08398 0.82764,1.07666 0.82764,2.99561 l 0,0.10986 z m -1.77246,-0.15381 q 0,-1.18652 -0.47608,-1.88232 -0.46875,-0.6958 -1.34765,-0.6958 -1.09131,0 -1.56739,0.90087 l 0,3.51563 q 0.4834,0.92285 1.58204,0.92285 0.84961,0 1.32568,-0.68115 0.4834,-0.68848 0.4834,-2.08008 z"
         style=""
         id="path4236" />
      <path
         d="m 244.90039,588.63477 0,-10.66407 3.14941,0 q 1.41358,0 2.50489,0.62989 1.09863,0.62988 1.69922,1.78711 0.60058,1.15722 0.60058,2.65136 l 0,0.53467 q 0,1.51611 -0.60791,2.66602 -0.60058,1.1499 -1.72119,1.77246 -1.11328,0.62256 -2.55615,0.62256 l -3.06885,0 z m 1.85303,-9.16993 0,7.69043 1.20849,0 q 1.45752,0 2.23389,-0.9082 0.78369,-0.91553 0.79834,-2.62207 l 0,-0.59326 q 0,-1.73584 -0.75439,-2.65137 -0.7544,-0.91553 -2.18995,-0.91553 l -1.29638,0 z"
         style=""
         id="path4238" />
      <path
         d="m 258.03271,588.78125 q -1.69189,0 -2.74658,-1.06201 -1.04736,-1.06934 -1.04736,-2.8418 l 0,-0.21973 q 0,-1.18652 0.4541,-2.11669 0.46143,-0.9375 1.28906,-1.45752 0.82764,-0.52002 1.84571,-0.52002 1.61865,0 2.49756,1.03271 0.88623,1.03272 0.88623,2.92236 l 0,0.71778 -5.17823,0 q 0.0806,0.98144 0.65186,1.55273 0.57861,0.57129 1.45019,0.57129 1.22315,0 1.99219,-0.98877 l 0.95947,0.91553 q -0.47607,0.71045 -1.27441,1.10596 -0.79102,0.38818 -1.77979,0.38818 z m -0.2124,-6.78955 q -0.73242,0 -1.18652,0.51269 -0.44678,0.5127 -0.57129,1.42823 l 3.39111,0 0,-0.13184 q -0.0586,-0.89355 -0.47607,-1.34766 -0.41748,-0.46142 -1.15723,-0.46142 z"
         style=""
         id="path4240" />
      <path
         d="m 264.49268,588.63477 -1.77979,0 0,-11.25 1.77979,0 0,11.25 z"
         style=""
         id="path4242" />
      <path
         d="m 268.33057,588.63477 -1.77979,0 0,-7.92481 1.77979,0 0,7.92481 z m -1.88965,-9.98291 q 0,-0.41016 0.25635,-0.68116 0.26367,-0.27099 0.74707,-0.27099 0.48339,0 0.74707,0.27099 0.26367,0.271 0.26367,0.68116 0,0.40283 -0.26367,0.67382 -0.26368,0.26368 -0.74707,0.26368 -0.4834,0 -0.74707,-0.26368 -0.25635,-0.27099 -0.25635,-0.67382 z"
         style=""
         id="path4244" />
      <path
         d="m 273.06934,586.37891 1.67724,-5.66895 1.83838,0 -2.74658,7.92481 -1.54541,0 -2.76856,-7.92481 1.84571,0 1.69922,5.66895 z"
         style=""
         id="path4246" />
      <path
         d="m 281.08936,588.78125 q -1.6919,0 -2.74659,-1.06201 -1.04736,-1.06934 -1.04736,-2.8418 l 0,-0.21973 q 0,-1.18652 0.4541,-2.11669 0.46143,-0.9375 1.28906,-1.45752 0.82764,-0.52002 1.84571,-0.52002 1.61865,0 2.49756,1.03271 0.88623,1.03272 0.88623,2.92236 l 0,0.71778 -5.17823,0 q 0.0806,0.98144 0.65186,1.55273 0.57861,0.57129 1.45019,0.57129 1.22315,0 1.99219,-0.98877 l 0.95947,0.91553 q -0.47607,0.71045 -1.27441,1.10596 -0.79102,0.38818 -1.77978,0.38818 z m -0.21241,-6.78955 q -0.73242,0 -1.18652,0.51269 -0.44678,0.5127 -0.57129,1.42823 l 3.39111,0 0,-0.13184 q -0.0586,-0.89355 -0.47607,-1.34766 -0.41748,-0.46142 -1.15723,-0.46142 z"
         style=""
         id="path4248" />
      <path
         d="m 289.80518,582.33594 q -0.35157,-0.0586 -0.7251,-0.0586 -1.22315,0 -1.64795,0.9375 l 0,5.41993 -1.77979,0 0,-7.92481 1.69922,0 0.0439,0.88623 q 0.64453,-1.03271 1.78711,-1.03271 0.38086,0 0.62988,0.10254 l -0.007,1.66992 z"
         style=""
         id="path4250" />
    </g>
  </g>
</svg>
