<svg xmlns:dc="http://purl.org/dc/elements/1.1/" xmlns:cc="http://creativecommons.org/ns#" xmlns:rdf="http://www.w3.org/1999/02/22-rdf-syntax-ns#" xmlns="http://www.w3.org/2000/svg" width="272.076" height="152.642" viewBox="0 0 255.07145 143.10174"><title>Double Diamond Design Process Model</title><metadata><rdf:RDF><cc:Work><dc:format>image/svg+xml</dc:format><dc:type rdf:resource="http://purl.org/dc/dcmitype/StillImage"/><dc:title>Double Diamond Design Process Model</dc:title><cc:license rdf:resource="http://creativecommons.org/publicdomain/zero/1.0/"/><dc:creator><cc:Agent><dc:title>Design Studio Spring</dc:title></cc:Agent></dc:creator><dc:rights><cc:Agent><dc:title/></cc:Agent></dc:rights><dc:publisher><cc:Agent><dc:title>Design Studio Spring</dc:title></cc:Agent></dc:publisher><dc:language>en-AU</dc:language><dc:description>The double diamond design process model, created by The British Design Council.</dc:description><dc:date>1 September 2016</dc:date></cc:Work><cc:License rdf:about="http://creativecommons.org/publicdomain/zero/1.0/"><cc:permits rdf:resource="http://creativecommons.org/ns#Reproduction"/><cc:permits rdf:resource="http://creativecommons.org/ns#Distribution"/><cc:permits rdf:resource="http://creativecommons.org/ns#DerivativeWorks"/></cc:License></rdf:RDF></metadata><g transform="translate(-86.857 -396.437)"><circle cx="94.357" cy="459.148" r="7.5" fill="#da3d0a"/><rect width="90.669" height="90.669" x="387.671" y="171.498" ry="5" rx="5" transform="rotate(45)" fill="none" stroke="#da3d0a" stroke-width="2.061" stroke-opacity=".996"/><circle cx="213.571" cy="459.505" r="7.5" fill="#da3d0a"/><circle cx="334.429" cy="459.505" r="7.5" fill="#da3d0a"/><rect width="90.669" height="90.669" x="474.039" y="85.13" ry="5" rx="5" transform="rotate(45)" fill="none" stroke="#da3d0a" stroke-width="2.061" stroke-opacity=".996"/><g style="line-height:125%;-inkscape-font-specification:'Roboto, Medium';text-align:start" font-weight="500" font-size="15" font-family="Roboto" letter-spacing="0" word-spacing="0" fill="#da3d0a"><path d="M89.655 536.492v-10.664h3.15q1.413 0 2.505.63 1.098.63 1.699 1.787.6 1.157.6 2.651v.535q0 1.516-.607 2.666-.601 1.15-1.722 1.772-1.113.623-2.556.623h-3.069zm1.853-9.17v7.69h1.209q1.457 0 2.234-.908.784-.915.798-2.622v-.593q0-1.736-.754-2.651-.755-.916-2.19-.916h-1.297zM101.191 536.492h-1.78v-7.925h1.78v7.925zm-1.89-9.983q0-.41.257-.681.263-.271.747-.271.483 0 .747.27.264.272.264.682 0 .403-.264.674-.264.263-.747.263-.484 0-.747-.263-.257-.271-.257-.674zM107.578 534.339q0-.476-.396-.726-.388-.249-1.296-.439t-1.516-.483q-1.333-.645-1.333-1.868 0-1.025.864-1.714.864-.688 2.197-.688 1.421 0 2.293.703.879.703.879 1.823h-1.78q0-.512-.381-.85-.38-.343-1.01-.343-.587 0-.96.27-.366.272-.366.726 0 .41.344.637.344.227 1.391.461 1.048.227 1.641.55.6.315.886.761.293.447.293 1.084 0 1.07-.886 1.736-.886.66-2.322.66-.974 0-1.736-.352-.761-.352-1.186-.967-.425-.615-.425-1.326h1.729q.036.63.476.974.44.337 1.164.337.703 0 1.07-.263.366-.271.366-.703zM114.126 535.217q.666 0 1.106-.388.439-.388.468-.96h1.678q-.03.74-.462 1.385-.432.637-1.172 1.01-.74.374-1.596.374-1.663 0-2.637-1.076-.974-1.077-.974-2.974v-.183q0-1.81.967-2.893.966-1.091 2.636-1.091 1.414 0 2.3.827.894.82.938 2.16H115.7q-.029-.68-.468-1.12-.433-.44-1.106-.44-.865 0-1.333.63-.47.623-.476 1.898v.285q0 1.29.461 1.927.469.63 1.348.63zM118.388 532.456q0-1.164.462-2.094.461-.938 1.296-1.436.835-.505 1.92-.505 1.603 0 2.6 1.032 1.003 1.033 1.083 2.74l.007.417q0 1.172-.454 2.095-.447.923-1.289 1.428-.835.505-1.934.505-1.677 0-2.688-1.113-1.003-1.12-1.003-2.98v-.089zm1.78.154q0 1.223.505 1.919.506.688 1.407.688.9 0 1.399-.703.505-.703.505-2.058 0-1.2-.52-1.904-.513-.703-1.399-.703-.872 0-1.384.696-.513.688-.513 2.065zM129.953 534.236l1.678-5.669h1.838l-2.747 7.925h-1.545l-2.769-7.925h1.846l1.7 5.669zM137.973 536.638q-1.692 0-2.746-1.062-1.048-1.069-1.048-2.841v-.22q0-1.187.454-2.117.462-.937 1.29-1.457.827-.52 1.845-.52 1.619 0 2.498 1.032.886 1.033.886 2.923v.717h-5.178q.08.982.652 1.553.578.571 1.45.571 1.223 0 1.992-.988l.96.915q-.477.71-1.275 1.106-.791.388-1.78.388zm-.212-6.79q-.733 0-1.187.514-.446.512-.57 1.428h3.39v-.132q-.058-.894-.476-1.348-.417-.461-1.157-.461zM146.69 530.193q-.352-.059-.726-.059-1.223 0-1.648.938v5.42h-1.78v-7.925h1.7l.043.886q.645-1.032 1.787-1.032.381 0 .63.102l-.007 1.67zM159.235 536.492v-10.664h3.15q1.413 0 2.505.63 1.098.63 1.699 1.787.6 1.157.6 2.651v.535q0 1.516-.607 2.666-.6 1.15-1.722 1.772-1.113.623-2.556.623h-3.069zm1.854-9.17v7.69h1.208q1.458 0 2.234-.908.784-.915.798-2.622v-.593q0-1.736-.754-2.651-.755-.916-2.19-.916h-1.296zM172.368 536.638q-1.692 0-2.747-1.062-1.047-1.069-1.047-2.841v-.22q0-1.187.454-2.117.461-.937 1.289-1.457.828-.52 1.846-.52 1.618 0 2.497 1.032.887 1.033.887 2.923v.717h-5.179q.08.982.652 1.553.579.571 1.45.571 1.223 0 1.993-.988l.959.915q-.476.71-1.274 1.106-.791.388-1.78.388zm-.213-6.79q-.732 0-1.186.514-.447.512-.571 1.428h3.39v-.132q-.058-.894-.475-1.348-.418-.461-1.158-.461zM177.407 536.492v-6.607h-1.209v-1.318h1.209v-.542q.007-.93.395-1.597.389-.666 1.099-1.003.71-.337 1.707-.337.585 0 1.12.125.542.124 1.12.315l-.27 1.472q-1.011-.352-1.846-.352-.813 0-1.18.359-.365.352-.365 1.062v.498h1.56v1.318h-1.56v6.607h-1.78zm6.284 0h-1.78v-7.925h1.78v7.925zM187.317 528.567l.05.916q.88-1.062 2.308-1.062 2.476 0 2.52 2.834v5.237h-1.78v-5.134q0-.755-.33-1.114-.322-.366-1.062-.366-1.077 0-1.604.974v5.64h-1.78v-7.925h1.678zM197.505 536.638q-1.692 0-2.747-1.062-1.047-1.069-1.047-2.841v-.22q0-1.187.454-2.117.461-.937 1.289-1.457.827-.52 1.845-.52 1.62 0 2.498 1.032.886 1.033.886 2.923v.717h-5.178q.08.982.652 1.553.578.571 1.45.571 1.223 0 1.992-.988l.96.915q-.476.71-1.275 1.106-.79.388-1.78.388zm-.213-6.79q-.732 0-1.186.514-.447.512-.572 1.428h3.391v-.132q-.058-.894-.476-1.348-.417-.461-1.157-.461z"/></g><g style="line-height:125%;-inkscape-font-specification:'Roboto, Medium';text-align:start" font-weight="500" font-size="15" font-family="Roboto" letter-spacing="0" word-spacing="0" fill="#da3d0a"><path d="M218.942 536.492v-10.664h3.15q1.413 0 2.504.63 1.099.63 1.7 1.787.6 1.157.6 2.651v.535q0 1.516-.608 2.666-.6 1.15-1.721 1.772-1.113.623-2.556.623h-3.069zm1.853-9.17v7.69h1.208q1.458 0 2.234-.908.784-.915.799-2.622v-.593q0-1.736-.755-2.651-.754-.916-2.19-.916h-1.296zM232.074 536.638q-1.692 0-2.746-1.062-1.048-1.069-1.048-2.841v-.22q0-1.187.454-2.117.462-.937 1.29-1.457.827-.52 1.845-.52 1.619 0 2.498 1.032.886 1.033.886 2.923v.717h-5.178q.08.982.652 1.553.578.571 1.45.571 1.223 0 1.992-.988l.96.915q-.477.71-1.275 1.106-.79.388-1.78.388zm-.212-6.79q-.733 0-1.187.514-.446.512-.57 1.428h3.39v-.132q-.058-.894-.476-1.348-.417-.461-1.157-.461zM239.347 534.236l1.677-5.669h1.839l-2.747 7.925h-1.545l-2.769-7.925h1.846l1.7 5.67zM247.367 536.638q-1.692 0-2.746-1.062-1.048-1.069-1.048-2.841v-.22q0-1.187.454-2.117.462-.937 1.29-1.457.827-.52 1.845-.52 1.619 0 2.498 1.032.886 1.033.886 2.923v.717h-5.178q.08.982.652 1.553.578.571 1.45.571 1.223 0 1.992-.988l.96.915q-.477.71-1.275 1.106-.791.388-1.78.388zm-.212-6.79q-.733 0-1.187.514-.446.512-.571 1.428h3.391v-.132q-.058-.894-.476-1.348-.417-.461-1.157-.461zM253.827 536.492h-1.78v-11.25h1.78v11.25zM255.439 532.456q0-1.164.461-2.094.461-.938 1.296-1.436.835-.505 1.92-.505 1.603 0 2.6 1.032 1.003 1.033 1.083 2.74l.007.417q0 1.172-.454 2.095-.446.923-1.289 1.428-.835.505-1.933.505-1.678 0-2.688-1.113-1.004-1.12-1.004-2.98v-.089zm1.78.154q0 1.223.505 1.919.505.688 1.406.688.9 0 1.399-.703.505-.703.505-2.058 0-1.2-.52-1.904-.512-.703-1.399-.703-.871 0-1.384.696-.513.688-.513 2.065zM271.266 532.61q0 1.838-.835 2.937-.835 1.091-2.241 1.091-1.304 0-2.087-.857v3.758h-1.78v-10.972h1.64l.074.806q.783-.952 2.131-.952 1.45 0 2.27 1.084.828 1.076.828 2.995v.11zm-1.772-.154q0-1.186-.476-1.882-.47-.696-1.348-.696-1.091 0-1.567.901v3.516q.483.922 1.582.922.85 0 1.325-.68.484-.69.484-2.08zM284.186 536.492v-10.664h3.15q1.413 0 2.504.63 1.099.63 1.7 1.787.6 1.157.6 2.651v.535q0 1.516-.608 2.666-.6 1.15-1.72 1.772-1.114.623-2.557.623h-3.069zm1.853-9.17v7.69h1.209q1.457 0 2.234-.908.783-.915.798-2.622v-.593q0-1.736-.755-2.651-.754-.916-2.19-.916h-1.296zM297.318 536.638q-1.691 0-2.746-1.062-1.048-1.069-1.048-2.841v-.22q0-1.187.455-2.117.461-.937 1.289-1.457.827-.52 1.845-.52 1.619 0 2.498 1.032.886 1.033.886 2.923v.717h-5.178q.08.982.652 1.553.578.571 1.45.571 1.223 0 1.992-.988l.96.915q-.476.71-1.275 1.106-.79.388-1.78.388zm-.212-6.79q-.732 0-1.186.514-.447.512-.572 1.428h3.391v-.132q-.058-.894-.476-1.348-.417-.461-1.157-.461zM303.778 536.492h-1.78v-11.25h1.78v11.25zM307.616 536.492h-1.78v-7.925h1.78v7.925zm-1.89-9.983q0-.41.257-.681.264-.271.747-.271t.747.27q.264.272.264.682 0 .403-.264.674-.264.264-.747.264t-.747-.264q-.256-.271-.256-.674zM312.355 534.236l1.677-5.669h1.839l-2.747 7.925h-1.545l-2.769-7.925h1.846l1.7 5.67zM320.375 536.638q-1.692 0-2.747-1.062-1.047-1.069-1.047-2.841v-.22q0-1.187.454-2.117.462-.937 1.29-1.457.827-.52 1.845-.52 1.619 0 2.498 1.032.886 1.033.886 2.923v.717h-5.178q.08.982.651 1.553.579.571 1.45.571 1.224 0 1.993-.988l.96.915q-.477.71-1.275 1.106-.791.388-1.78.388zm-.212-6.79q-.733 0-1.187.514-.447.512-.571 1.428h3.391v-.132q-.059-.894-.476-1.348-.418-.461-1.157-.461zM329.09 530.193q-.35-.059-.724-.059-1.223 0-1.648.938v5.42h-1.78v-7.925h1.7l.043.886q.645-1.032 1.787-1.032.381 0 .63.102l-.007 1.67z"/></g></g></svg>