<?xml version="1.0" encoding="UTF-8" standalone="no"?>
<!-- Created with Inkscape (http://www.inkscape.org/) -->

<svg
   xmlns:dc="http://purl.org/dc/elements/1.1/"
   xmlns:cc="http://creativecommons.org/ns#"
   xmlns:rdf="http://www.w3.org/1999/02/22-rdf-syntax-ns#"
   xmlns:svg="http://www.w3.org/2000/svg"
   xmlns="http://www.w3.org/2000/svg"
   xmlns:sodipodi="http://sodipodi.sourceforge.net/DTD/sodipodi-0.dtd"
   xmlns:inkscape="http://www.inkscape.org/namespaces/inkscape"
   width="207.21378mm"
   height="88.315239mm"
   viewBox="0 0 734.22204 312.92801"
   id="svg2"
   version="1.1"
   inkscape:version="0.91 r13725"
   sodipodi:docname="dschool_process.svg">
  <title
     id="title4358">Stanford D School Design Thinking Process</title>
  <defs
     id="defs4" />
  <sodipodi:namedview
     id="base"
     pagecolor="#ffffff"
     bordercolor="#666666"
     borderopacity="1.0"
     inkscape:pageopacity="0.0"
     inkscape:pageshadow="2"
     inkscape:zoom="0.70710678"
     inkscape:cx="327.79764"
     inkscape:cy="66.663059"
     inkscape:document-units="px"
     inkscape:current-layer="layer1"
     showgrid="false"
     inkscape:window-width="1438"
     inkscape:window-height="879"
     inkscape:window-x="0"
     inkscape:window-y="19"
     inkscape:window-maximized="1"
     showguides="false"
     fit-margin-top="0"
     fit-margin-left="0"
     fit-margin-right="0"
     fit-margin-bottom="0" />
  <metadata
     id="metadata7">
    <rdf:RDF>
      <cc:Work
         rdf:about="">
        <dc:format>image/svg+xml</dc:format>
        <dc:type
           rdf:resource="http://purl.org/dc/dcmitype/StillImage" />
        <dc:title>Stanford D School Design Thinking Process</dc:title>
        <dc:creator>
          <cc:Agent>
            <dc:title>Design Studio Spring</dc:title>
          </cc:Agent>
        </dc:creator>
        <dc:rights>
          <cc:Agent>
            <dc:title>copyright</dc:title>
          </cc:Agent>
        </dc:rights>
        <dc:publisher>
          <cc:Agent>
            <dc:title>Design Studio Spring</dc:title>
          </cc:Agent>
        </dc:publisher>
        <dc:language>en-AU</dc:language>
        <dc:description />
        <cc:license
           rdf:resource="http://creativecommons.org/publicdomain/zero/1.0/" />
        <dc:date>1 September 2016</dc:date>
      </cc:Work>
      <cc:License
         rdf:about="http://creativecommons.org/publicdomain/zero/1.0/">
        <cc:permits
           rdf:resource="http://creativecommons.org/ns#Reproduction" />
        <cc:permits
           rdf:resource="http://creativecommons.org/ns#Distribution" />
        <cc:permits
           rdf:resource="http://creativecommons.org/ns#DerivativeWorks" />
      </cc:License>
    </rdf:RDF>
  </metadata>
  <g
     inkscape:label="Layer 1"
     inkscape:groupmode="layer"
     id="layer1"
     transform="translate(-4.7711868,-208.63781)">
    <path
       sodipodi:type="star"
       style="opacity:1;fill:#22aeec;fill-opacity:1;fill-rule:nonzero;stroke:none;stroke-width:1.22617137;stroke-miterlimit:4;stroke-dasharray:none;stroke-dashoffset:0;stroke-opacity:0.99607843"
       id="path4138"
       sodipodi:sides="6"
       sodipodi:cx="93.324791"
       sodipodi:cy="285.32748"
       sodipodi:r1="88.553604"
       sodipodi:r2="76.689659"
       sodipodi:arg1="1.0471976"
       sodipodi:arg2="1.5707963"
       inkscape:flatsided="true"
       inkscape:rounded="0"
       inkscape:randomized="0"
       d="m 137.60159,362.01716 -88.553605,-10e-6 -44.2767982,-76.68967 44.2768062,-76.68967 88.553607,1e-5 44.2768,76.68967 z" />
    <g
       transform="translate(-64.430339,-141.92415)"
       style="font-style:normal;font-variant:normal;font-weight:normal;font-stretch:normal;font-size:25px;line-height:125%;font-family:Montserrat;-inkscape-font-specification:'Montserrat, Normal';text-align:start;letter-spacing:0px;word-spacing:0px;writing-mode:lr-tb;text-anchor:start;fill:#ffffff;fill-opacity:1;stroke:none;stroke-width:1px;stroke-linecap:butt;stroke-linejoin:miter;stroke-opacity:1"
       id="flowRoot4140">
      <path
         d="m 94.748535,420.53776 0,5.20996 9.399415,0 0,2.91382 -9.399415,0 0,5.30395 10.836185,0 0,2.91382 -14.085697,0 0,-19.25537 13.749997,0 0,2.91382 -10.500485,0 z"
         style="font-style:normal;font-variant:normal;font-weight:normal;font-stretch:normal;font-size:27.5px;line-height:125%;font-family:Montserrat;-inkscape-font-specification:'Montserrat, Normal';text-align:start;writing-mode:lr-tb;text-anchor:start"
         id="path4624" />
      <path
         d="m 123.29224,436.87931 -0.022,-11.76636 -4.9768,10.11841 -1.73584,0 -4.96582,-10.11841 0,11.76636 -2.50489,0 0,-15.75439 3.15308,0 5.19653,10.46997 5.17456,-10.46997 3.13111,0 0,15.75439 -2.44995,0 z"
         style="font-style:normal;font-variant:normal;font-weight:normal;font-stretch:normal;font-size:22.5px;line-height:125%;font-family:Montserrat;-inkscape-font-specification:'Montserrat, Normal';text-align:start;writing-mode:lr-tb;text-anchor:start"
         id="path4626" />
      <path
         d="m 136.20117,421.12492 q 2.96631,0 4.59229,1.40625 1.63696,1.40625 1.63696,3.97705 0,2.68066 -1.63696,4.15283 -1.62598,1.47217 -4.59229,1.47217 l -3.62549,0 0,4.74609 -2.65869,0 0,-15.75439 6.28418,0 z m -3.62549,8.62426 3.51563,0 q 1.8457,0 2.82348,-0.802 0.97779,-0.802 0.97779,-2.37305 0,-1.5271 -0.97779,-2.29614 -0.97778,-0.76904 -2.82348,-0.76904 l -3.51563,0 0,6.24023 z"
         style="font-style:normal;font-variant:normal;font-weight:normal;font-stretch:normal;font-size:22.5px;line-height:125%;font-family:Montserrat;-inkscape-font-specification:'Montserrat, Normal';text-align:start;writing-mode:lr-tb;text-anchor:start"
         id="path4628" />
      <path
         d="m 146.34155,433.31974 -1.50512,3.55957 -2.76856,0 6.95435,-15.75439 2.72461,0 6.87744,15.75439 -2.83448,0 -1.50512,-3.55957 -7.94312,0 z m 3.96607,-9.36035 -2.9773,6.99829 5.94361,0 -2.96631,-6.99829 z"
         style="font-style:normal;font-variant:normal;font-weight:normal;font-stretch:normal;font-size:22.5px;line-height:125%;font-family:Montserrat;-inkscape-font-specification:'Montserrat, Normal';text-align:start;writing-mode:lr-tb;text-anchor:start"
         id="path4630" />
      <path
         d="m 164.95239,423.50895 0,13.37036 -2.65869,0 0,-13.37036 -4.97681,0 0,-2.38403 12.6233,0 0,2.38403 -4.9878,0 z"
         style="font-style:normal;font-variant:normal;font-weight:normal;font-stretch:normal;font-size:22.5px;line-height:125%;font-family:Montserrat;-inkscape-font-specification:'Montserrat, Normal';text-align:start;writing-mode:lr-tb;text-anchor:start"
         id="path4632" />
      <path
         d="m 183.20068,436.87931 0,-6.52588 -8.34961,0 0,6.52588 -2.65869,0 0,-15.75439 2.65869,0 0,6.84448 8.34961,0 0,-6.84448 2.65869,0 0,15.75439 -2.65869,0 z"
         style="font-style:normal;font-variant:normal;font-weight:normal;font-stretch:normal;font-size:22.5px;line-height:125%;font-family:Montserrat;-inkscape-font-specification:'Montserrat, Normal';text-align:start;writing-mode:lr-tb;text-anchor:start"
         id="path4634" />
      <path
         d="m 189.99023,436.87931 0,-15.75439 2.6587,0 0,15.75439 -2.6587,0 z"
         style="font-style:normal;font-variant:normal;font-weight:normal;font-stretch:normal;font-size:22.5px;line-height:125%;font-family:Montserrat;-inkscape-font-specification:'Montserrat, Normal';text-align:start;writing-mode:lr-tb;text-anchor:start"
         id="path4636" />
      <path
         d="m 199.16382,434.49528 9.70093,0 0,2.38403 -13.29346,0 0,-1.91162 9.60205,-11.45874 -9.31641,0 0,-2.38403 12.89795,0 0,1.91162 -9.59106,11.45874 z"
         style="font-style:normal;font-variant:normal;font-weight:normal;font-stretch:normal;font-size:22.5px;line-height:125%;font-family:Montserrat;-inkscape-font-specification:'Montserrat, Normal';text-align:start;writing-mode:lr-tb;text-anchor:start"
         id="path4638" />
      <path
         d="m 214.4458,423.50895 0,4.26269 7.69043,0 0,2.38404 -7.69043,0 0,4.3396 8.86597,0 0,2.38403 -11.52466,0 0,-15.75439 11.25,0 0,2.38403 -8.59131,0 z"
         style="font-style:normal;font-variant:normal;font-weight:normal;font-stretch:normal;font-size:22.5px;line-height:125%;font-family:Montserrat;-inkscape-font-specification:'Montserrat, Normal';text-align:start;writing-mode:lr-tb;text-anchor:start"
         id="path4640" />
    </g>
    <path
       sodipodi:type="star"
       style="opacity:1;fill:#1ea145;fill-opacity:1;fill-rule:nonzero;stroke:none;stroke-width:1.22617137;stroke-miterlimit:4;stroke-dasharray:none;stroke-dashoffset:0;stroke-opacity:0.99607843"
       id="path4138-4"
       sodipodi:sides="6"
       sodipodi:cx="232.60352"
       sodipodi:cy="364.68735"
       sodipodi:r1="88.553604"
       sodipodi:r2="76.689659"
       sodipodi:arg1="1.0471976"
       sodipodi:arg2="1.5707963"
       inkscape:flatsided="true"
       inkscape:rounded="0"
       inkscape:randomized="0"
       d="m 276.88031,441.37702 -88.5536,0 -44.2768,-76.68968 44.27681,-76.68967 88.5536,10e-6 44.2768,76.68967 z" />
    <g
       transform="translate(47.779056,-62.564269)"
       style="font-style:normal;font-variant:normal;font-weight:normal;font-stretch:normal;font-size:25px;line-height:125%;font-family:Montserrat;-inkscape-font-specification:'Montserrat, Normal';text-align:center;letter-spacing:0px;word-spacing:0px;writing-mode:lr-tb;text-anchor:middle;fill:#ffffff;fill-opacity:1;stroke:none;stroke-width:1px;stroke-linecap:butt;stroke-linejoin:miter;stroke-opacity:1"
       id="flowRoot4140-5">
      <path
         d="m 150.29199,417.62394 q 2.86011,0 5.1294,1.24878 2.26928,1.23535 3.54492,3.4375 1.28906,2.18872 1.28906,4.9414 0,2.75269 -1.30249,4.94141 -1.28906,2.18872 -3.57178,3.4375 -2.28271,1.24878 -5.16967,1.24878 l -7.81495,0 0,-19.25537 7.89551,0 z m -4.64599,16.34155 4.72656,0 q 1.8396,0 3.35693,-0.84595 1.51734,-0.85937 2.37671,-2.3767 0.8728,-1.53077 0.8728,-3.46436 0,-1.92017 -0.89965,-3.45093 -0.88623,-1.54419 -2.43042,-2.41699 -1.54419,-0.8728 -3.41065,-0.8728 l -4.59228,0 0,13.42773 z"
         style="font-style:normal;font-variant:normal;font-weight:normal;font-stretch:normal;font-size:27.5px;line-height:125%;font-family:Montserrat;-inkscape-font-specification:'Montserrat, Normal';text-align:center;writing-mode:lr-tb;text-anchor:middle"
         id="path4611" />
      <path
         d="m 165.91943,423.50895 0,4.26269 7.69043,0 0,2.38404 -7.69043,0 0,4.3396 8.86597,0 0,2.38403 -11.52466,0 0,-15.75439 11.25,0 0,2.38403 -8.59131,0 z"
         style="font-style:normal;font-variant:normal;font-weight:normal;font-stretch:normal;font-size:22.5px;line-height:125%;font-family:Montserrat;-inkscape-font-specification:'Montserrat, Normal';text-align:center;writing-mode:lr-tb;text-anchor:middle"
         id="path4613" />
      <path
         d="m 180.68506,423.50895 0,4.54834 7.1521,0 0,2.36206 -7.1521,0 0,6.45996 -2.65869,0 0,-15.75439 10.57983,0 -0.022,2.38403 -7.89917,0 z"
         style="font-style:normal;font-variant:normal;font-weight:normal;font-stretch:normal;font-size:22.5px;line-height:125%;font-family:Montserrat;-inkscape-font-specification:'Montserrat, Normal';text-align:center;writing-mode:lr-tb;text-anchor:middle"
         id="path4615" />
      <path
         d="m 190.94629,436.87931 0,-15.75439 2.65869,0 0,15.75439 -2.65869,0 z"
         style="font-style:normal;font-variant:normal;font-weight:normal;font-stretch:normal;font-size:22.5px;line-height:125%;font-family:Montserrat;-inkscape-font-specification:'Montserrat, Normal';text-align:center;writing-mode:lr-tb;text-anchor:middle"
         id="path4617" />
      <path
         d="m 208.81006,436.87931 -8.39356,-11.29395 0,11.29395 -2.65869,0 0,-15.75439 2.61475,0 8.4375,11.3269 0,-11.3269 2.61474,0 0,15.75439 -2.61474,0 z"
         style="font-style:normal;font-variant:normal;font-weight:normal;font-stretch:normal;font-size:22.5px;line-height:125%;font-family:Montserrat;-inkscape-font-specification:'Montserrat, Normal';text-align:center;writing-mode:lr-tb;text-anchor:middle"
         id="path4619" />
      <path
         d="m 218.2583,423.50895 0,4.26269 7.69043,0 0,2.38404 -7.69043,0 0,4.3396 8.86597,0 0,2.38403 -11.52466,0 0,-15.75439 11.25,0 0,2.38403 -8.59131,0 z"
         style="font-style:normal;font-variant:normal;font-weight:normal;font-stretch:normal;font-size:22.5px;line-height:125%;font-family:Montserrat;-inkscape-font-specification:'Montserrat, Normal';text-align:center;writing-mode:lr-tb;text-anchor:middle"
         id="path4621" />
    </g>
    <path
       sodipodi:type="star"
       style="opacity:1;fill:#db932c;fill-opacity:1;fill-rule:nonzero;stroke:none;stroke-width:1.22617137;stroke-miterlimit:4;stroke-dasharray:none;stroke-dashoffset:0;stroke-opacity:0.99607843"
       id="path4138-4-8"
       sodipodi:sides="6"
       sodipodi:cx="371.88223"
       sodipodi:cy="285.32748"
       sodipodi:r1="88.553604"
       sodipodi:r2="76.689659"
       sodipodi:arg1="1.0471976"
       sodipodi:arg2="1.5707963"
       inkscape:flatsided="true"
       inkscape:rounded="0"
       inkscape:randomized="0"
       d="m 416.15903,362.01716 -88.5536,-10e-6 -44.2768,-76.68967 44.2768,-76.68967 88.55361,1e-5 44.2768,76.68967 z" />
    <g
       transform="translate(187.05778,-141.92415)"
       style="font-style:normal;font-variant:normal;font-weight:normal;font-stretch:normal;font-size:25px;line-height:125%;font-family:Montserrat;-inkscape-font-specification:'Montserrat, Normal';text-align:center;letter-spacing:0px;word-spacing:0px;writing-mode:lr-tb;text-anchor:middle;fill:#ffffff;fill-opacity:1;stroke:none;stroke-width:1px;stroke-linecap:butt;stroke-linejoin:miter;stroke-opacity:1"
       id="flowRoot4140-5-4">
      <path
         d="m 144.91846,436.87931 0,-19.25537 3.24951,0 0,19.25537 -3.24951,0 z"
         style="font-style:normal;font-variant:normal;font-weight:normal;font-stretch:normal;font-size:27.5px;line-height:125%;font-family:Montserrat;-inkscape-font-specification:'Montserrat, Normal';text-align:center;writing-mode:lr-tb;text-anchor:middle"
         id="path4598" />
      <path
         d="m 159.24463,421.12492 q 2.34009,0 4.19678,1.02172 1.85669,1.01075 2.90039,2.8125 1.05468,1.79078 1.05468,4.04297 0,2.2522 -1.06567,4.04297 -1.05469,1.79077 -2.92236,2.8125 -1.86768,1.02173 -4.22974,1.02173 l -6.39404,0 0,-15.75439 6.45996,0 z m -3.80127,13.37036 3.86719,0 q 1.50512,0 2.74658,-0.69214 1.24145,-0.70313 1.94458,-1.94458 0.71411,-1.25244 0.71411,-2.83447 0,-1.57105 -0.73608,-2.82349 -0.7251,-1.26343 -1.98853,-1.97754 -1.26343,-0.71411 -2.79053,-0.71411 l -3.75732,0 0,10.98633 z"
         style="font-style:normal;font-variant:normal;font-weight:normal;font-stretch:normal;font-size:22.5px;line-height:125%;font-family:Montserrat;-inkscape-font-specification:'Montserrat, Normal';text-align:center;writing-mode:lr-tb;text-anchor:middle"
         id="path4600" />
      <path
         d="m 172.88965,423.50895 0,4.26269 7.69043,0 0,2.38404 -7.69043,0 0,4.3396 8.86597,0 0,2.38403 -11.52466,0 0,-15.75439 11.25,0 0,2.38403 -8.59131,0 z"
         style="font-style:normal;font-variant:normal;font-weight:normal;font-stretch:normal;font-size:22.5px;line-height:125%;font-family:Montserrat;-inkscape-font-specification:'Montserrat, Normal';text-align:center;writing-mode:lr-tb;text-anchor:middle"
         id="path4602" />
      <path
         d="m 187.22681,433.31974 -1.50513,3.55957 -2.76856,0 6.95435,-15.75439 2.72461,0 6.87744,15.75439 -2.83447,0 -1.50513,-3.55957 -7.94311,0 z m 3.96606,-9.36035 -2.97729,6.99829 5.9436,0 -2.96631,-6.99829 z"
         style="font-style:normal;font-variant:normal;font-weight:normal;font-stretch:normal;font-size:22.5px;line-height:125%;font-family:Montserrat;-inkscape-font-specification:'Montserrat, Normal';text-align:center;writing-mode:lr-tb;text-anchor:middle"
         id="path4604" />
      <path
         d="m 205.83765,423.50895 0,13.37036 -2.65869,0 0,-13.37036 -4.97681,0 0,-2.38403 12.62329,0 0,2.38403 -4.98779,0 z"
         style="font-style:normal;font-variant:normal;font-weight:normal;font-stretch:normal;font-size:22.5px;line-height:125%;font-family:Montserrat;-inkscape-font-specification:'Montserrat, Normal';text-align:center;writing-mode:lr-tb;text-anchor:middle"
         id="path4606" />
      <path
         d="m 215.73633,423.50895 0,4.26269 7.69043,0 0,2.38404 -7.69043,0 0,4.3396 8.86596,0 0,2.38403 -11.52465,0 0,-15.75439 11.25,0 0,2.38403 -8.59131,0 z"
         style="font-style:normal;font-variant:normal;font-weight:normal;font-stretch:normal;font-size:22.5px;line-height:125%;font-family:Montserrat;-inkscape-font-specification:'Montserrat, Normal';text-align:center;writing-mode:lr-tb;text-anchor:middle"
         id="path4608" />
    </g>
    <path
       sodipodi:type="star"
       style="opacity:1;fill:#e65735;fill-opacity:1;fill-rule:nonzero;stroke:none;stroke-width:1.22617137;stroke-miterlimit:4;stroke-dasharray:none;stroke-dashoffset:0;stroke-opacity:0.99607843"
       id="path4138-4-8-9"
       sodipodi:sides="6"
       sodipodi:cx="511.16097"
       sodipodi:cy="364.68735"
       sodipodi:r1="88.553604"
       sodipodi:r2="76.689659"
       sodipodi:arg1="1.0471976"
       sodipodi:arg2="1.5707963"
       inkscape:flatsided="true"
       inkscape:rounded="0"
       inkscape:randomized="0"
       d="m 555.43778,441.37702 -88.55361,0 -44.27679,-76.68968 44.2768,-76.68967 88.55361,10e-6 44.27679,76.68967 z" />
    <g
       transform="translate(326.33654,-62.619201)"
       style="font-style:normal;font-variant:normal;font-weight:normal;font-stretch:normal;font-size:25px;line-height:125%;font-family:Montserrat;-inkscape-font-specification:'Montserrat, Normal';text-align:center;letter-spacing:0px;word-spacing:0px;writing-mode:lr-tb;text-anchor:middle;fill:#ffffff;fill-opacity:1;stroke:none;stroke-width:1px;stroke-linecap:butt;stroke-linejoin:miter;stroke-opacity:1"
       id="flowRoot4140-5-4-7">
      <path
         d="m 124.29346,417.62394 q 3.62549,0 5.61279,1.71875 2.00073,1.71875 2.00073,4.86084 0,3.27637 -2.00073,5.07568 -1.9873,1.79932 -5.61279,1.79932 l -4.43116,0 0,5.80078 -3.24951,0 0,-19.25537 7.68067,0 z m -4.43116,10.54077 4.29688,0 q 2.25586,0 3.45093,-0.98022 1.19507,-0.98023 1.19507,-2.90039 0,-1.86646 -1.19507,-2.8064 -1.19507,-0.93994 -3.45093,-0.93994 l -4.29688,0 0,7.62695 z"
         style="font-style:normal;font-variant:normal;font-weight:normal;font-stretch:normal;font-size:27.5px;line-height:125%;font-family:Montserrat;-inkscape-font-specification:'Montserrat, Normal';text-align:center;writing-mode:lr-tb;text-anchor:middle"
         id="path4579" />
      <path
         d="m 141.80322,432.11124 q -0.21972,0.022 -0.7251,0.022 l -3.73535,0 0,4.74609 -2.65869,0 0,-15.75439 6.39404,0 q 3.01026,0 4.68018,1.40625 1.66992,1.40625 1.66992,3.97705 0,1.88964 -0.84594,3.19702 -0.84595,1.29638 -2.417,1.91162 l 3.52661,5.26245 -3.01025,0 -2.87842,-4.76807 z m -0.7251,-2.36206 q 1.84571,0 2.83448,-0.802 0.98877,-0.802 0.98877,-2.37305 0,-1.5271 -0.98877,-2.29614 -0.98877,-0.76904 -2.83448,-0.76904 l -3.73535,0 0,6.24023 3.73535,0 z"
         style="font-style:normal;font-variant:normal;font-weight:normal;font-stretch:normal;font-size:22.5px;line-height:125%;font-family:Montserrat;-inkscape-font-specification:'Montserrat, Normal';text-align:center;writing-mode:lr-tb;text-anchor:middle"
         id="path4581" />
      <path
         d="m 157.98608,421.059 q 2.31812,0 4.22974,1.05469 1.92261,1.0437 3.02124,2.86743 1.09863,1.81274 1.09863,4.02099 0,2.23023 -1.09863,4.05396 -1.09863,1.82373 -3.02124,2.87842 -1.91162,1.05468 -4.22974,1.05468 -2.31811,0 -4.22973,-1.05468 -1.91162,-1.05469 -3.01026,-2.87842 -1.09863,-1.82373 -1.09863,-4.05396 0,-2.23022 1.09863,-4.03198 1.09864,-1.81274 3.01026,-2.85644 1.91162,-1.05469 4.22973,-1.05469 z m 0.022,2.38403 q -1.5271,0 -2.83448,0.74707 -1.29638,0.74707 -2.06543,2.02149 -0.76904,1.26342 -0.76904,2.79052 0,1.5271 0.78003,2.8125 0.78003,1.2854 2.06543,2.04346 1.29639,0.74707 2.82349,0.74707 1.5271,0 2.8125,-0.73608 1.2854,-0.74707 2.03247,-2.04346 0.75805,-1.29639 0.75805,-2.82349 0,-1.5271 -0.75805,-2.79052 -0.74707,-1.27442 -2.03247,-2.02149 -1.27442,-0.74707 -2.8125,-0.74707 z"
         style="font-style:normal;font-variant:normal;font-weight:normal;font-stretch:normal;font-size:22.5px;line-height:125%;font-family:Montserrat;-inkscape-font-specification:'Montserrat, Normal';text-align:center;writing-mode:lr-tb;text-anchor:middle"
         id="path4583" />
      <path
         d="m 174.64136,423.50895 0,13.37036 -2.65869,0 0,-13.37036 -4.97681,0 0,-2.38403 12.62329,0 0,2.38403 -4.98779,0 z"
         style="font-style:normal;font-variant:normal;font-weight:normal;font-stretch:normal;font-size:22.5px;line-height:125%;font-family:Montserrat;-inkscape-font-specification:'Montserrat, Normal';text-align:center;writing-mode:lr-tb;text-anchor:middle"
         id="path4585" />
      <path
         d="m 188.00073,421.059 q 2.31812,0 4.22974,1.05469 1.92261,1.0437 3.02124,2.86743 1.09863,1.81274 1.09863,4.02099 0,2.23023 -1.09863,4.05396 -1.09863,1.82373 -3.02124,2.87842 -1.91162,1.05468 -4.22974,1.05468 -2.31811,0 -4.22973,-1.05468 -1.91163,-1.05469 -3.01026,-2.87842 -1.09863,-1.82373 -1.09863,-4.05396 0,-2.23022 1.09863,-4.03198 1.09863,-1.81274 3.01026,-2.85644 1.91162,-1.05469 4.22973,-1.05469 z m 0.022,2.38403 q -1.5271,0 -2.83448,0.74707 -1.29638,0.74707 -2.06543,2.02149 -0.76904,1.26342 -0.76904,2.79052 0,1.5271 0.78003,2.8125 0.78003,1.2854 2.06543,2.04346 1.29639,0.74707 2.82349,0.74707 1.52709,0 2.8125,-0.73608 1.2854,-0.74707 2.03247,-2.04346 0.75805,-1.29639 0.75805,-2.82349 0,-1.5271 -0.75805,-2.79052 -0.74707,-1.27442 -2.03247,-2.02149 -1.27442,-0.74707 -2.8125,-0.74707 z"
         style="font-style:normal;font-variant:normal;font-weight:normal;font-stretch:normal;font-size:22.5px;line-height:125%;font-family:Montserrat;-inkscape-font-specification:'Montserrat, Normal';text-align:center;writing-mode:lr-tb;text-anchor:middle"
         id="path4587" />
      <path
         d="m 204.65601,423.50895 0,13.37036 -2.6587,0 0,-13.37036 -4.9768,0 0,-2.38403 12.62329,0 0,2.38403 -4.98779,0 z"
         style="font-style:normal;font-variant:normal;font-weight:normal;font-stretch:normal;font-size:22.5px;line-height:125%;font-family:Montserrat;-inkscape-font-specification:'Montserrat, Normal';text-align:center;writing-mode:lr-tb;text-anchor:middle"
         id="path4589" />
      <path
         d="m 218.35596,436.87931 -2.62574,0 0,-5.15259 -5.87768,-10.6018 2.68066,0 4.49341,7.67944 4.41651,-7.67944 2.70263,0 -5.78979,10.51391 0,5.24048 z"
         style="font-style:normal;font-variant:normal;font-weight:normal;font-stretch:normal;font-size:22.5px;line-height:125%;font-family:Montserrat;-inkscape-font-specification:'Montserrat, Normal';text-align:center;writing-mode:lr-tb;text-anchor:middle"
         id="path4591" />
      <path
         d="m 232.50635,421.12492 q 2.96631,0 4.59228,1.40625 1.63697,1.40625 1.63697,3.97705 0,2.68066 -1.63697,4.15283 -1.62597,1.47217 -4.59228,1.47217 l -3.62549,0 0,4.74609 -2.65869,0 0,-15.75439 6.28418,0 z m -3.62549,8.62426 3.51562,0 q 1.84571,0 2.82349,-0.802 0.97778,-0.802 0.97778,-2.37305 0,-1.5271 -0.97778,-2.29614 -0.97778,-0.76904 -2.82349,-0.76904 l -3.51562,0 0,6.24023 z"
         style="font-style:normal;font-variant:normal;font-weight:normal;font-stretch:normal;font-size:22.5px;line-height:125%;font-family:Montserrat;-inkscape-font-specification:'Montserrat, Normal';text-align:center;writing-mode:lr-tb;text-anchor:middle"
         id="path4593" />
      <path
         d="m 244.04199,423.50895 0,4.26269 7.69043,0 0,2.38404 -7.69043,0 0,4.3396 8.86597,0 0,2.38403 -11.52466,0 0,-15.75439 11.25,0 0,2.38403 -8.59131,0 z"
         style="font-style:normal;font-variant:normal;font-weight:normal;font-stretch:normal;font-size:22.5px;line-height:125%;font-family:Montserrat;-inkscape-font-specification:'Montserrat, Normal';text-align:center;writing-mode:lr-tb;text-anchor:middle"
         id="path4595" />
    </g>
    <path
       sodipodi:type="star"
       style="opacity:1;fill:#983211;fill-opacity:1;fill-rule:nonzero;stroke:none;stroke-width:1.22617137;stroke-miterlimit:4;stroke-dasharray:none;stroke-dashoffset:0;stroke-opacity:0.99607843"
       id="path4138-4-8-4"
       sodipodi:sides="6"
       sodipodi:cx="650.43966"
       sodipodi:cy="444.87616"
       sodipodi:r1="88.553604"
       sodipodi:r2="76.689659"
       sodipodi:arg1="1.0471976"
       sodipodi:arg2="1.5707963"
       inkscape:flatsided="true"
       inkscape:rounded="0"
       inkscape:randomized="0"
       d="m 694.71643,521.56583 -88.5536,0 -44.2768,-76.68967 44.27681,-76.68967 88.5536,0 44.2768,76.68967 z" />
    <g
       transform="translate(465.61517,17.61764)"
       style="font-style:normal;font-variant:normal;font-weight:normal;font-stretch:normal;font-size:25px;line-height:125%;font-family:Montserrat;-inkscape-font-specification:'Montserrat, Normal';text-align:center;letter-spacing:0px;word-spacing:0px;writing-mode:lr-tb;text-anchor:middle;fill:#ffffff;fill-opacity:1;stroke:none;stroke-width:1px;stroke-linecap:butt;stroke-linejoin:miter;stroke-opacity:1"
       id="flowRoot4140-5-4-3">
      <path
         d="m 164.83667,420.53776 0,16.34155 -3.24951,0 0,-16.34155 -6.08277,0 0,-2.91382 15.42847,0 0,2.91382 -6.09619,0 z"
         style="font-style:normal;font-variant:normal;font-weight:normal;font-stretch:normal;font-size:27.5px;line-height:125%;font-family:Montserrat;-inkscape-font-specification:'Montserrat, Normal';text-align:center;writing-mode:lr-tb;text-anchor:middle"
         id="path4570" />
      <path
         d="m 175.88525,423.50895 0,4.26269 7.69043,0 0,2.38404 -7.69043,0 0,4.3396 8.86597,0 0,2.38403 -11.52466,0 0,-15.75439 11.25,0 0,2.38403 -8.59131,0 z"
         style="font-style:normal;font-variant:normal;font-weight:normal;font-stretch:normal;font-size:22.5px;line-height:125%;font-family:Montserrat;-inkscape-font-specification:'Montserrat, Normal';text-align:center;writing-mode:lr-tb;text-anchor:middle"
         id="path4572" />
      <path
         d="m 193.16675,421.01505 q 1.51611,0 2.95532,0.43946 1.43921,0.43945 2.55981,1.18652 l -1.09863,2.34009 q -1.21948,-0.74707 -2.43896,-1.10962 -1.2085,-0.36255 -2.1753,-0.36255 -1.19751,0 -1.87866,0.42847 -0.68115,0.42846 -0.68115,1.21948 0,0.69214 0.43945,1.16455 0.45044,0.47241 1.12061,0.75806 0.68115,0.28564 1.90063,0.6372 1.59302,0.47241 2.59278,0.93384 1.01074,0.46143 1.71386,1.37329 0.71411,0.91187 0.71411,2.37305 0,1.37329 -0.75805,2.41699 -0.75806,1.03272 -2.10938,1.59302 -1.34033,0.5603 -3.07617,0.5603 -1.80176,0 -3.49365,-0.67017 -1.68091,-0.68115 -2.94434,-1.82373 l 1.15357,-2.29614 q 1.19751,1.09863 2.61474,1.70288 1.42823,0.59326 2.71363,0.59326 1.39526,0 2.1643,-0.50537 0.78003,-0.50537 0.78003,-1.40625 0,-0.72509 -0.46142,-1.19751 -0.46143,-0.47241 -1.15357,-0.73608 -0.68115,-0.27466 -1.88965,-0.63721 -1.61499,-0.47241 -2.60376,-0.92285 -0.97778,-0.45044 -1.69189,-1.31836 -0.70313,-0.8789 -0.70313,-2.34009 0,-1.32934 0.71412,-2.31811 0.72509,-0.99976 2.02148,-1.53809 1.29639,-0.53833 2.99927,-0.53833 z"
         style="font-style:normal;font-variant:normal;font-weight:normal;font-stretch:normal;font-size:22.5px;line-height:125%;font-family:Montserrat;-inkscape-font-specification:'Montserrat, Normal';text-align:center;writing-mode:lr-tb;text-anchor:middle"
         id="path4574" />
      <path
         d="m 207.73462,423.50895 0,13.37036 -2.65869,0 0,-13.37036 -4.97681,0 0,-2.38403 12.62329,0 0,2.38403 -4.98779,0 z"
         style="font-style:normal;font-variant:normal;font-weight:normal;font-stretch:normal;font-size:22.5px;line-height:125%;font-family:Montserrat;-inkscape-font-specification:'Montserrat, Normal';text-align:center;writing-mode:lr-tb;text-anchor:middle"
         id="path4576" />
    </g>
  </g>
</svg>
