<svg xmlns:dc="http://purl.org/dc/elements/1.1/" xmlns:cc="http://creativecommons.org/ns#" xmlns:rdf="http://www.w3.org/1999/02/22-rdf-syntax-ns#" xmlns="http://www.w3.org/2000/svg" width="783.17" height="333.79" viewBox="0 0 734.22204 312.92801"><title>Stanford D School Design Thinking Process</title><metadata><rdf:RDF><cc:Work><dc:format>image/svg+xml</dc:format><dc:type rdf:resource="http://purl.org/dc/dcmitype/StillImage"/><dc:title>Stanford D School Design Thinking Process</dc:title><dc:creator><cc:Agent><dc:title>Design Studio Spring</dc:title></cc:Agent></dc:creator><dc:rights><cc:Agent><dc:title>copyright</dc:title></cc:Agent></dc:rights><dc:publisher><cc:Agent><dc:title>Design Studio Spring</dc:title></cc:Agent></dc:publisher><dc:language>en-AU</dc:language><dc:description/><cc:license rdf:resource="http://creativecommons.org/publicdomain/zero/1.0/"/><dc:date>1 September 2016</dc:date></cc:Work><cc:License rdf:about="http://creativecommons.org/publicdomain/zero/1.0/"><cc:permits rdf:resource="http://creativecommons.org/ns#Reproduction"/><cc:permits rdf:resource="http://creativecommons.org/ns#Distribution"/><cc:permits rdf:resource="http://creativecommons.org/ns#DerivativeWorks"/></cc:License></rdf:RDF></metadata><path d="M132.83 153.38H44.277L0 76.69 44.277 0h88.553l44.277 76.69z" fill="#22aeec"/><g style="line-height:125%;-inkscape-font-specification:'Montserrat, Normal';text-align:start" font-weight="400" font-size="25" font-family="Montserrat" letter-spacing="0" word-spacing="0" fill="#fff"><path d="M25.547 69.976v5.21h9.4V78.1h-9.4v5.304h10.836v2.913H22.297V67.062h13.75v2.914h-10.5z" style="line-height:125%;-inkscape-font-specification:'Montserrat, Normal';text-align:start" font-size="27.5"/><path d="M54.09 86.317l-.021-11.766-4.977 10.118h-1.736L42.39 74.551v11.766h-2.505V70.563h3.153l5.197 10.47 5.175-10.47h3.13v15.754h-2.45zM67 70.563q2.966 0 4.592 1.406 1.637 1.406 1.637 3.977 0 2.68-1.637 4.153-1.626 1.472-4.592 1.472h-3.626v4.746h-2.659V70.563H67zm-3.626 8.624h3.516q1.845 0 2.823-.802t.978-2.373q0-1.527-.978-2.296-.978-.769-2.823-.769h-3.516v6.24zM77.14 82.758l-1.505 3.56h-2.769l6.955-15.755h2.724l6.878 15.754h-2.835l-1.505-3.56H77.14zm3.966-9.36l-2.977 6.998h5.943l-2.966-6.999zM95.75 72.947v13.37h-2.658v-13.37h-4.977v-2.384h12.624v2.384H95.75zM114 86.317v-6.526h-8.35v6.526h-2.66V70.563h2.66v6.844H114v-6.844h2.658v15.754h-2.659zM120.789 86.317V70.563h2.658v15.754h-2.658zM129.962 83.933h9.701v2.384H126.37v-1.911l9.602-11.459h-9.317v-2.384h12.898v1.912l-9.59 11.458zM145.244 72.947v4.263h7.69v2.384h-7.69v4.34h8.866v2.383h-11.524V70.563h11.25v2.384h-8.592z" style="line-height:125%;-inkscape-font-specification:'Montserrat, Normal';text-align:start" font-size="22.5"/></g><path d="M272.11 232.74h-88.554l-44.277-76.69 44.277-76.69h88.553l44.277 76.69z" fill="#1ea145"/><g style="line-height:125%;-inkscape-font-specification:'Montserrat, Normal';text-align:center" font-weight="400" font-size="25" font-family="Montserrat" letter-spacing="0" word-spacing="0" text-anchor="middle" fill="#fff"><path d="M193.3 146.422q2.86 0 5.13 1.249 2.269 1.235 3.544 3.437 1.29 2.189 1.29 4.942 0 2.752-1.303 4.941-1.29 2.189-3.572 3.437-2.283 1.25-5.17 1.25h-7.815v-19.256h7.896zm-4.646 16.341h4.726q1.84 0 3.357-.846 1.518-.859 2.377-2.376.873-1.531.873-3.465 0-1.92-.9-3.45-.886-1.545-2.43-2.418-1.544-.872-3.41-.872h-4.593v13.427z" style="line-height:125%;-inkscape-font-specification:'Montserrat, Normal';text-align:center" font-size="27.5"/><path d="M208.927 152.307v4.263h7.69v2.384h-7.69v4.34h8.866v2.383H206.27v-15.754h11.25v2.384h-8.592zM223.693 152.307v4.548h7.152v2.362h-7.152v6.46h-2.659v-15.754h10.58l-.022 2.384h-7.9zM233.954 165.677v-15.754h2.659v15.754h-2.659zM251.818 165.677l-8.394-11.294v11.294h-2.658v-15.754h2.614l8.438 11.327v-11.327h2.615v15.754h-2.615zM261.266 152.307v4.263h7.69v2.384h-7.69v4.34h8.866v2.383h-11.525v-15.754h11.25v2.384h-8.59z" style="line-height:125%;-inkscape-font-specification:'Montserrat, Normal';text-align:center" font-size="22.5"/></g><path d="M411.388 153.38h-88.554l-44.277-76.69L322.834 0h88.554l44.277 76.69z" fill="#db932c"/><g style="line-height:125%;-inkscape-font-specification:'Montserrat, Normal';text-align:center" font-weight="400" font-size="25" font-family="Montserrat" letter-spacing="0" word-spacing="0" text-anchor="middle" fill="#fff"><path d="M327.205 86.317V67.062h3.25v19.255h-3.25z" style="line-height:125%;-inkscape-font-specification:'Montserrat, Normal';text-align:center" font-size="27.5"/><path d="M341.531 70.563q2.34 0 4.197 1.022 1.857 1.01 2.9 2.812 1.055 1.791 1.055 4.043 0 2.252-1.066 4.043-1.054 1.79-2.922 2.813-1.868 1.021-4.23 1.021h-6.394V70.563h6.46zm-3.801 13.37h3.867q1.505 0 2.747-.692 1.241-.703 1.944-1.944.714-1.253.714-2.835 0-1.57-.736-2.823-.725-1.264-1.988-1.978-1.264-.714-2.79-.714h-3.758v10.986zM355.176 72.947v4.263h7.69v2.384h-7.69v4.34h8.866v2.383h-11.524V70.563h11.25v2.384h-8.592zM369.513 82.758l-1.505 3.56h-2.768l6.954-15.755h2.725l6.877 15.754h-2.834l-1.505-3.56h-7.944zm3.966-9.36l-2.977 6.998h5.944l-2.967-6.999zM388.124 72.947v13.37h-2.658v-13.37h-4.977v-2.384h12.623v2.384h-4.988zM398.023 72.947v4.263h7.69v2.384h-7.69v4.34h8.866v2.383h-11.525V70.563h11.25v2.384h-8.591z" style="line-height:125%;-inkscape-font-specification:'Montserrat, Normal';text-align:center" font-size="22.5"/></g><path d="M550.667 232.74h-88.554l-44.277-76.69 44.277-76.69h88.554l44.276 76.69z" fill="#e65735"/><g style="line-height:125%;-inkscape-font-specification:'Montserrat, Normal';text-align:center" font-weight="400" font-size="25" font-family="Montserrat" letter-spacing="0" word-spacing="0" text-anchor="middle" fill="#fff"><path d="M445.859 146.367q3.625 0 5.613 1.719 2 1.718 2 4.86 0 3.277-2 5.076-1.988 1.8-5.613 1.8h-4.431v5.8h-3.25v-19.255h7.68zm-4.431 10.54h4.297q2.255 0 3.45-.98 1.196-.98 1.196-2.9 0-1.866-1.196-2.806-1.195-.94-3.45-.94h-4.297v7.627z" style="line-height:125%;-inkscape-font-specification:'Montserrat, Normal';text-align:center" font-size="27.5"/><path d="M463.369 160.854q-.22.022-.726.022h-3.735v4.746h-2.659v-15.754h6.394q3.01 0 4.68 1.406t1.67 3.977q0 1.89-.845 3.197-.846 1.297-2.417 1.912l3.526 5.262h-3.01l-2.878-4.768zm-.726-2.362q1.846 0 2.835-.802.989-.802.989-2.373 0-1.527-.989-2.296-.989-.77-2.835-.77h-3.735v6.241h3.735zM479.551 149.802q2.319 0 4.23 1.055 1.923 1.043 3.021 2.867 1.099 1.813 1.099 4.021 0 2.23-1.099 4.054-1.098 1.824-3.02 2.878-1.912 1.055-4.23 1.055-2.319 0-4.23-1.055-1.912-1.054-3.01-2.878-1.1-1.824-1.1-4.054 0-2.23 1.1-4.032 1.098-1.813 3.01-2.856 1.911-1.055 4.23-1.055zm.022 2.384q-1.527 0-2.834.747-1.296.747-2.065 2.022-.77 1.263-.77 2.79 0 1.527.78 2.813.78 1.285 2.066 2.043 1.296.747 2.823.747 1.528 0 2.813-.736 1.285-.747 2.032-2.043.758-1.297.758-2.824t-.758-2.79q-.747-1.275-2.032-2.022-1.274-.747-2.813-.747zM496.207 152.252v13.37h-2.659v-13.37h-4.977v-2.384h12.624v2.384h-4.988zM509.566 149.802q2.318 0 4.23 1.055 1.922 1.043 3.021 2.867 1.099 1.813 1.099 4.021 0 2.23-1.099 4.054-1.099 1.824-3.021 2.878-1.912 1.055-4.23 1.055-2.318 0-4.23-1.055-1.911-1.054-3.01-2.878-1.099-1.824-1.099-4.054 0-2.23 1.1-4.032 1.098-1.813 3.01-2.856 1.911-1.055 4.23-1.055zm.022 2.384q-1.527 0-2.834.747-1.297.747-2.066 2.022-.769 1.263-.769 2.79 0 1.527.78 2.813.78 1.285 2.066 2.043 1.296.747 2.823.747t2.813-.736q1.285-.747 2.032-2.043.758-1.297.758-2.824t-.758-2.79q-.747-1.275-2.032-2.022-1.275-.747-2.813-.747zM526.221 152.252v13.37h-2.658v-13.37h-4.977v-2.384h12.623v2.384h-4.988zM539.921 165.622h-2.625v-5.152l-5.878-10.602h2.68l4.494 7.68 4.416-7.68h2.703l-5.79 10.514v5.24zM554.072 149.868q2.966 0 4.592 1.406 1.637 1.406 1.637 3.977 0 2.68-1.637 4.153-1.626 1.472-4.592 1.472h-3.626v4.746h-2.658v-15.754h6.284zm-3.626 8.624h3.516q1.846 0 2.823-.802.978-.802.978-2.373 0-1.527-.978-2.296-.977-.77-2.823-.77h-3.516v6.241zM565.607 152.252v4.263h7.69v2.384h-7.69v4.34h8.866v2.383H562.95v-15.754h11.25v2.384h-8.592z" style="line-height:125%;-inkscape-font-specification:'Montserrat, Normal';text-align:center" font-size="22.5"/></g><path d="M689.945 312.928h-88.553l-44.277-76.69 44.277-76.69h88.553l44.277 76.69z" fill="#983211"/><g style="line-height:125%;-inkscape-font-specification:'Montserrat, Normal';text-align:center" font-weight="400" font-size="25" font-family="Montserrat" letter-spacing="0" word-spacing="0" text-anchor="middle" fill="#fff"><path d="M625.68 229.518v16.341h-3.249v-16.341h-6.083v-2.914h15.429v2.914h-6.096z" style="line-height:125%;-inkscape-font-specification:'Montserrat, Normal';text-align:center" font-size="27.5"/><path d="M636.73 232.489v4.262h7.69v2.385h-7.69v4.34h8.865v2.383h-11.524v-15.754h11.25v2.384h-8.592zM654.01 229.995q1.517 0 2.956.44 1.44.439 2.56 1.186l-1.099 2.34q-1.22-.747-2.439-1.11-1.208-.362-2.175-.362-1.198 0-1.879.428-.68.429-.68 1.22 0 .692.439 1.164.45.473 1.12.758.681.286 1.9.638 1.594.472 2.594.933 1.01.462 1.713 1.374.715.912.715 2.373 0 1.373-.758 2.417-.759 1.032-2.11 1.593-1.34.56-3.076.56-1.802 0-3.494-.67-1.68-.681-2.944-1.824l1.154-2.296q1.197 1.099 2.614 1.703 1.429.593 2.714.593 1.395 0 2.164-.505.78-.506.78-1.406 0-.726-.461-1.198-.462-.472-1.154-.736-.68-.275-1.89-.637-1.614-.473-2.603-.923-.978-.45-1.692-1.319-.703-.878-.703-2.34 0-1.329.714-2.318.725-1 2.021-1.538 1.297-.538 3-.538zM668.579 232.489v13.37h-2.66v-13.37h-4.976v-2.384h12.623v2.384h-4.987z" style="line-height:125%;-inkscape-font-specification:'Montserrat, Normal';text-align:center" font-size="22.5"/></g></svg>