<svg xmlns:dc="http://purl.org/dc/elements/1.1/" xmlns:cc="http://creativecommons.org/ns#" xmlns:rdf="http://www.w3.org/1999/02/22-rdf-syntax-ns#" xmlns="http://www.w3.org/2000/svg" width="493.694" height="398.693" viewBox="0 0 462.83789 373.77508"><title>Risk reward innovation matrix</title><defs><marker orient="auto" id="b" overflow="visible"><path d="M-4 0l-2 2 7-2-7-2 2 2z" fill-rule="evenodd" stroke="#000" stroke-width=".4pt"/></marker><marker orient="auto" id="a" overflow="visible"><path d="M4 0l2-2-7 2 7 2-2-2z" fill-rule="evenodd" stroke="#000" stroke-width=".4pt"/></marker><marker orient="auto" id="c" overflow="visible"><path d="M4 0l2-2-7 2 7 2-2-2z" fill-rule="evenodd" stroke="#000" stroke-width=".4pt"/></marker><marker orient="auto" id="d" overflow="visible"><path d="M-4 0l-2 2 7-2-7-2 2 2z" fill-rule="evenodd" stroke="#000" stroke-width=".4pt"/></marker><marker orient="auto" id="e" overflow="visible"><path d="M4 0l2-2-7 2 7 2-2-2z" fill-rule="evenodd" stroke="#000" stroke-width=".4pt"/></marker><marker orient="auto" id="f" overflow="visible"><path d="M-4 0l-2 2 7-2-7-2 2 2z" fill-rule="evenodd" stroke="#000" stroke-width=".4pt"/></marker><marker orient="auto" id="g" overflow="visible"><path d="M4 0l2-2-7 2 7 2-2-2z" fill="#b10000" fill-opacity=".867" fill-rule="evenodd" stroke="#b10000" stroke-width=".4pt" stroke-opacity=".867"/></marker></defs><metadata><rdf:RDF><cc:Work><dc:format>image/svg+xml</dc:format><dc:type rdf:resource="http://purl.org/dc/dcmitype/StillImage"/><dc:title>Risk reward innovation matrix</dc:title><dc:creator><cc:Agent><dc:title>Design Studio Spring</dc:title></cc:Agent></dc:creator><dc:rights><cc:Agent><dc:title>copyright 2016 Design Studio Spring</dc:title></cc:Agent></dc:rights><dc:publisher><cc:Agent><dc:title>Design Studio Spring</dc:title></cc:Agent></dc:publisher><dc:language>en-AU</dc:language><cc:license rdf:resource="http://creativecommons.org/licenses/by-sa/4.0/"/><dc:description>A 3D matrix with risk, reward and innovation as axes. Heuristic based decisions occupy the low risk, high reward, low innovation quadrant.</dc:description></cc:Work><cc:License rdf:about="http://creativecommons.org/licenses/by-sa/3.0/"><cc:permits rdf:resource="http://creativecommons.org/ns#Reproduction"/><cc:permits rdf:resource="http://creativecommons.org/ns#Distribution"/><cc:requires rdf:resource="http://creativecommons.org/ns#Notice"/><cc:requires rdf:resource="http://creativecommons.org/ns#Attribution"/><cc:permits rdf:resource="http://creativecommons.org/ns#DerivativeWorks"/><cc:requires rdf:resource="http://creativecommons.org/ns#ShareAlike"/></cc:License></rdf:RDF></metadata><g opacity=".96" fill="#962c2c" fill-opacity=".569" stroke-width="3" fill-rule="evenodd"><path d="M23.3 270.84l182.803 87.168 122.19-105.056-172.379-64.196z" fill="#afafde"/><path d="M23.3 65.359V270.84l132.614-82.084V10.131z" fill="#353564"/><path d="M155.914 10.131L328.293 52.2v200.753l-172.379-64.196z" fill="#e9e9ff"/><path d="M23.3 65.359l182.803 57.33 122.19-70.49-172.379-42.068z" fill="#4d4d9f"/><path d="M206.103 122.69v235.318l122.19-105.056V52.199z" fill="#d7d7ff"/><path d="M23.3 65.359l182.803 57.33v235.319L23.3 270.84z" fill="#8686bf"/></g><g fill="#962c2c" fill-opacity=".569" stroke-width="3" fill-rule="evenodd"><path d="M64.073 245.547l116.062 24.1 96.423-34.392-120.32-41.285z" fill="#deb3af"/><path d="M156.237 106.103l119.64 35.377.38 92.714-120.02-40.224z" fill="#ffe9e9"/><path d="M180.098 164.103l-.356 106.066 96.663-36.194 2.007-91.95z" fill="#ffd7d8" fill-opacity=".665"/><path d="M64.073 149.62v95.927l91.446-51.175V106.4z" opacity=".96" fill="#643635"/><path d="M64.073 149.356l116.025 15.011 98.095-21.593-122.674-37.696z" fill="#9f544d" fill-opacity=".668"/><path d="M64.073 149.356l116.025 13.998-.613 106.732-115.412-24.539z" fill="#bf8986" fill-opacity=".668"/></g><g fill="none" stroke="#000" stroke-width="2"><path d="M23.122 170.09l132.481-65.866 172.15 53.142-122.75 83.081zM111.443 204.52l127.99-74.848M270.12 197.036L95.726 133.415"/></g><text style="line-height:123.00000191%;-inkscape-font-specification:'Droid Sans, Normal';text-align:center" x="527.763" y="841.691" font-weight="400" font-size="15" font-family="Droid Sans" letter-spacing="0" word-spacing="0" text-anchor="middle" transform="translate(-183.458 -566.414)"><tspan x="527.763" y="841.691"><tspan x="527.763" y="841.691" style="line-height:123.00000191%;-inkscape-font-specification:'Droid Sans, Normal';text-align:center">high</tspan></tspan></text><text style="line-height:123.00000191%;-inkscape-font-specification:'Droid Sans, Normal';text-align:center" x="194.063" y="853.873" font-weight="400" font-size="15" font-family="Droid Sans" letter-spacing="0" word-spacing="0" text-anchor="middle" transform="translate(-183.458 -566.414)"><tspan x="194.063" y="853.873"><tspan x="194.063" y="853.873" style="line-height:123.00000191%;-inkscape-font-specification:'Droid Sans, Normal';text-align:center">low</tspan></tspan></text><text style="line-height:123.00000191%;-inkscape-font-specification:'Droid Sans, Normal';text-align:center" x="366.876" y="936.585" font-weight="400" font-size="15" font-family="Droid Sans" letter-spacing="0" word-spacing="0" text-anchor="middle" transform="translate(-183.458 -566.414)"><tspan x="366.876" y="936.585"><tspan x="366.876" y="936.585" style="line-height:123.00000191%;-inkscape-font-specification:'Droid Sans, Normal';text-align:center">high</tspan></tspan></text><text style="line-height:123.00000191%;-inkscape-font-specification:'Droid Sans, Normal';text-align:center" x="533.138" y="633.176" font-weight="400" font-size="15" font-family="Droid Sans" letter-spacing="0" word-spacing="0" text-anchor="middle" transform="translate(-183.458 -566.414)"><tspan x="533.138" y="633.176"><tspan x="533.138" y="633.176" style="line-height:123.00000191%;-inkscape-font-specification:'Droid Sans, Normal';text-align:center">high</tspan></tspan></text><text style="line-height:123.00000191%;-inkscape-font-specification:'Droid Sans, Normal';text-align:center" x="534.287" y="814.296" font-weight="400" font-size="15" font-family="Droid Sans" letter-spacing="0" word-spacing="0" text-anchor="middle" transform="translate(-183.458 -566.414)"><tspan x="534.287" y="814.296"><tspan x="534.287" y="814.296" style="line-height:123.00000191%;-inkscape-font-specification:'Droid Sans, Normal';text-align:center">low</tspan></tspan></text><text style="line-height:123.00000191%;-inkscape-font-specification:'Droid Sans, Normal';text-align:center" x="590.474" y="717.568" font-weight="400" font-size="22.5" font-family="Droid Sans" letter-spacing="0" word-spacing="0" text-anchor="middle" transform="translate(-183.458 -566.414)"><tspan x="590.474" y="717.568"><tspan x="590.474" y="717.568" style="line-height:123.00000191%;-inkscape-font-specification:'Droid Sans, Normal';text-align:center">innovation</tspan></tspan></text><path d="M209.577 857.137l135.963 69.486" fill="none" stroke="#000" stroke-width="1.589" marker-start="url(#a)" marker-end="url(#b)" transform="translate(-183.458 -566.414)"/><text style="line-height:125%;-inkscape-font-specification:'Droid Sans, Normal';text-align:start" transform="rotate(-40.983 -849.538 -37.757)" x="-451.068" y="514.322" font-weight="400" font-size="22.5" font-family="Droid Sans" letter-spacing="0" word-spacing="0"><tspan><tspan x="-263.91" y="992.69">reward</tspan></tspan></text><path d="M427.275 917.162l81.765-72.407" fill="none" stroke="#000" stroke-width="1.589" marker-start="url(#c)" marker-end="url(#d)" transform="translate(-183.458 -566.414)"/><text style="line-height:125%;-inkscape-font-specification:'Droid Sans, Normal';text-align:start" x="508.623" y="191.856" transform="rotate(31.849 900.849 -604.697)" font-weight="400" font-size="22.5" font-family="Droid Sans" letter-spacing="0" word-spacing="0"><tspan><tspan x="687.399" y="633.489">risk</tspan></tspan></text><path d="M530.895 795.617l.07-153.405" fill="none" stroke="#000" stroke-width="1.589" marker-start="url(#e)" marker-end="url(#f)" transform="translate(-183.458 -566.414)"/><text style="line-height:123.00000191%;-inkscape-font-specification:'Droid Sans, Normal';text-align:start" x="440.553" y="580.523" font-weight="400" font-size="18.571" font-family="Droid Sans" letter-spacing="0" word-spacing="0" fill="#b10000" transform="translate(-183.458 -566.414)"><tspan x="440.553" y="580.523"><tspan x="440.553" y="580.523" style="line-height:123.00000191%;-inkscape-font-specification:'Droid Sans, Normal';text-align:start">heuristic based </tspan></tspan><tspan x="465.807" y="602.523"><tspan x="465.807" y="602.523" style="line-height:123.00000191%;-inkscape-font-specification:'Droid Sans, Normal';text-align:start">decisions</tspan></tspan></text><path d="M362.267 706.908L431.07 585.18h136.07" fill="none" stroke="#b10000" stroke-width="2" stroke-opacity=".867" marker-start="url(#g)" transform="translate(-183.458 -566.414)"/><text style="line-height:123.00000191%;-inkscape-font-specification:'Droid Sans, Normal';text-align:center" x="416.274" y="933.291" font-weight="400" font-size="15" font-family="Droid Sans" letter-spacing="0" word-spacing="0" text-anchor="middle" transform="translate(-183.458 -566.414)"><tspan x="416.274" y="933.291"><tspan x="416.274" y="933.291" style="line-height:123.00000191%;-inkscape-font-specification:'Droid Sans, Normal';text-align:center">low</tspan></tspan></text></svg>