<svg xmlns="http://www.w3.org/2000/svg" height="204.6" width="204.6"><path fill="#2692a1" d="M106.329 115.338s-4.037 6.127-8.094 9.138c-4.228 3.138-9.139 5.483-12.533 6.267-3.395.783-8.67 1.708-13.316.783-.787-.157-5.745-6.789-7.572-10.183-1.828-3.394-4.178-10.966-4.439-17.755-.26-6.789 1.828-16.188 5.483-22.454 3.656-6.266 11.227-13.055 15.927-15.666 4.7-2.611 12.01-4.7 17.755-5.222 5.744-.522 11.488.261 16.188 1.828 4.7 1.566 10.444 4.96 13.838 7.833 3.394 2.872 6.96 7.646 9.05 11.04 2.088 3.394 4.266 8.02 5.05 12.458.783 4.438 1.044 12.272 0 16.97-1.045 4.7-2.612 9.922-5.223 15.145-2.61 5.221-4.177 6.788-7.571 11.488-3.395 4.7-9.922 10.966-18.016 16.188-8.094 5.221-13.838 7.05-20.627 9.138-6.789 2.089-15.666 2.35-21.41 2.089-5.744-.261-9.285-.881-9.285-.881s4.076 3.333 9.546 5.842c3.255 1.492 11.2 4.572 17.493 5.744 7.01 1.305 13.577 1.566 19.843 1.044s13.577-1.828 21.67-5.222c8.095-3.394 17.233-8.616 25.327-16.97 8.094-8.356 12.533-14.622 16.71-27.155 4.177-12.533 4.96-19.582 4.177-29.243-.783-9.66-2.872-21.41-10.705-33.68-7.833-12.273-14.62-18.8-24.02-24.544s-13.578-7.31-22.977-9.4c-9.4-2.088-19.843-2.35-30.026-.522s-14.62 3.917-21.932 8.094c-7.31 4.178-15.144 10.183-19.843 15.927-4.7 5.745-9.896 11.755-12.533 22.715-1.974 8.207-2.398 19.364-1.305 24.282 1.667 7.5 4.253 12.628 6.527 16.45 1.705 2.863 5.744 7.832 9.139 10.182 3.394 2.35 7.833 5.745 13.055 7.572 5.222 1.828 9.66 2.611 15.405 2.089 5.744-.522 10.183-1.044 15.927-3.655 5.744-2.611 9.4-4.7 13.838-9.922 4.438-5.222 5.744-7.572 7.571-12.533 1.828-4.96 2.35-7.05 1.828-10.444-.522-3.394-2.292-6.68-6.005-9.4-3.145-2.303-8.266-3.075-11.488-2.088-4.185 1.282-7.31 3.655-8.877 6.788-1.567 3.133-1.828 6.528-1.045 9.922.784 3.394 1.828 5.222 4.439 7.572 2.61 2.35 5.222 3.133 7.833 3.394 2.61.261 5.222-1.044 5.222-1.044zm98.275-13.043c0 56.499-45.801 102.3-102.3 102.3S.004 158.794.004 102.295s45.8-102.3 102.3-102.3 102.3 45.8 102.3 102.3z"/></svg>