<svg xmlns:osb="http://www.openswatchbook.org/uri/2009/osb" xmlns:dc="http://purl.org/dc/elements/1.1/" xmlns:cc="http://creativecommons.org/ns#" xmlns:rdf="http://www.w3.org/1999/02/22-rdf-syntax-ns#" xmlns="http://www.w3.org/2000/svg" xmlns:xlink="http://www.w3.org/1999/xlink" width="670.874" height="506.665" viewBox="0 0 628.94437 474.99839"><title>The Double Doughnut: A Design Process Model</title><defs><linearGradient gradientTransform="matrix(.62992 0 0 .64 -1949.127 4413.411)" osb:paint="solid" id="b"><stop offset="0" stop-color="#da3d0a"/></linearGradient><linearGradient osb:paint="solid" id="c" gradientTransform="matrix(.64204 0 0 .10085 26692.436 19598.608)" x2="1" gradientUnits="objectBoundingBox"><stop offset="0" stop-color="#2563a0"/></linearGradient><linearGradient gradientTransform="matrix(.64 0 0 .64 -428.276 1041.727)" osb:paint="solid" id="a"><stop offset="0" stop-color="#fff"/></linearGradient><linearGradient xlink:href="#a" id="g" x1="217.092" y1="308.761" x2="244.14" y2="308.761" gradientUnits="userSpaceOnUse" gradientTransform="translate(1036.909 -738.662)"/><linearGradient xlink:href="#a" id="f" x1="95.261" y1="516.201" x2="122.308" y2="516.201" gradientUnits="userSpaceOnUse" gradientTransform="translate(918.639 -818.539)"/><linearGradient xlink:href="#a" id="e" x1="190.81" y1="581.31" x2="217.858" y2="581.31" gradientUnits="userSpaceOnUse" gradientTransform="translate(979.777 -795.2)"/><linearGradient xlink:href="#a" id="d" x1="-586.069" y1="550.518" x2="-559.021" y2="550.518" gradientUnits="userSpaceOnUse" gradientTransform="translate(1153.48 413.485)"/></defs><metadata><rdf:RDF><cc:Work><dc:format>image/svg+xml</dc:format><dc:type rdf:resource="http://purl.org/dc/dcmitype/StillImage"/><dc:title>The Double Doughnut: A Design Process Model</dc:title><dc:creator><cc:Agent><dc:title>Design Studio Spring</dc:title></cc:Agent></dc:creator><dc:rights><cc:Agent><dc:title>copyright</dc:title></cc:Agent></dc:rights><dc:publisher><cc:Agent><dc:title>Design Studio Spring</dc:title></cc:Agent></dc:publisher><dc:language>en-AU</dc:language><dc:description>A model illustrating a &apos;lean&apos; and cyclical design process comprised of two parts: problem identification and solution generation. Problem generation consists of three stages: exploration, analysis and insight. Solution generation consists of 3 stages: ideation, synthesis and evaluation.</dc:description><dc:date>1 September 2016</dc:date><cc:license rdf:resource="http://creativecommons.org/licenses/by-sa/3.0/"/></cc:Work><cc:License rdf:about="http://creativecommons.org/licenses/by-sa/3.0/"><cc:permits rdf:resource="http://creativecommons.org/ns#Reproduction"/><cc:permits rdf:resource="http://creativecommons.org/ns#Distribution"/><cc:requires rdf:resource="http://creativecommons.org/ns#Notice"/><cc:requires rdf:resource="http://creativecommons.org/ns#Attribution"/><cc:permits rdf:resource="http://creativecommons.org/ns#DerivativeWorks"/><cc:requires rdf:resource="http://creativecommons.org/ns#ShareAlike"/></cc:License></rdf:RDF></metadata><g transform="translate(-428.273 -571.845)"><path d="M742.678 833.959l35.567-19.27c-.693-5.722-2.362-15.965-3.519-21.617a172.345 172.345 0 0 0-10.119-32.598c-8.788-20.777-21.504-39.487-37.217-55.2-31.427-31.427-74.842-50.865-122.798-50.865-23.978 0-46.82 4.86-67.597 13.647-5.194 2.197-9.156 3.537-17.537 8.371l34.235 23.226-.034 38.414c2.88-1.599 7.827-3.455 10.903-4.756 12.303-5.204 25.83-8.082 40.03-8.082 28.4 0 54.11 11.511 72.72 30.122a103.006 103.006 0 0 1 22.04 32.69c2.602 6.151 4.177 10.381 5.547 17.076.685 3.347 1.207 6.754 1.262 9.736z" fill="url(#b)" fill-rule="evenodd" stroke="#da3d0a" stroke-width="5.315" stroke-opacity=".996"/><path d="M778.587 838.443c.351 3.458.874 6.864 1.559 10.212a102.096 102.096 0 0 0 10.323 28.294 102.829 102.829 0 0 0 11.071 16.396 103.442 103.442 0 0 0 21.858 19.861 102.788 102.788 0 0 0 17.47 9.482 102.084 102.084 0 0 0 29.515 7.55 104.05 104.05 0 0 0 26.203-.66 103.484 103.484 0 0 0 10.136-2.075c1.668-.428 3.324-.898 4.97-1.407 1.645-.51 3.28-1.058 4.903-1.646a111.836 111.836 0 0 0 4.836-1.881l4.19 2.368 4.192 2.368 4.19 2.369 4.191 2.368 4.19 2.368 4.191 2.369 4.191 2.368 4.19 2.368.564 5.167.562 5.168.563 5.167.563 5.168.563 5.167.562 5.167.563 5.168.563 5.167c-.391.215-.815.438-1.263.667a78.7 78.7 0 0 1-1.405.698c-.486.236-.986.474-1.491.71a153.54 153.54 0 0 1-3.02 1.374 219.162 219.162 0 0 1-3.785 1.64c-20.777 8.788-43.62 13.647-67.597 13.647-47.956 0-91.371-19.437-122.798-50.864-31.427-31.427-50.864-74.842-50.888-122.45l35.635 19.225 35.117-18.932c.204 3.684.272 6.417.623 9.874z" fill="url(#c)" fill-rule="evenodd" stroke="#27639e" stroke-width="5.315"/><path d="M742.559 833.974l-36.417-19.27c.693-5.722 2.362-15.965 3.52-21.617 2.312-11.305 6.827-22.367 11.22-32.756 8.789-20.776 21.505-39.487 37.218-55.2 31.427-31.427 74.842-50.865 122.798-50.865 23.977 0 46.82 4.86 67.597 13.648 5.194 2.197 9.156 3.536 17.537 8.37l-34.213 23.265-.28 38.044c-2.881-1.598-7.535-3.123-10.61-4.424-12.305-5.204-25.832-8.082-40.031-8.082-28.4 0-54.11 11.51-72.72 30.122a103.006 103.006 0 0 0-22.04 32.689c-2.602 6.152-5.28 10.382-6.65 17.076-.685 3.348-1.207 6.754-1.262 9.736z" fill="url(#c)" fill-rule="evenodd" stroke="#27639e" stroke-width="5.315"/><path d="M481.795 705.273c-31.427 31.427-50.865 74.842-50.865 122.798 0 47.955 19.438 91.37 50.865 122.797a174.524 174.524 0 0 0 25.701 21.206c4.62 3.121 7.198 4.913 7.198 4.913l3.995-41.73 33.06-18.998c-2.043-1.236-1.92-1.062-4.656-2.91a103.351 103.351 0 0 1-15.22-12.558c-18.611-18.61-30.122-44.321-30.122-72.72s13.343-52.442 30.121-72.72c3.205-3.873 6.911-7.672 10.786-10.701l-.26-39.432-33.51-22.08c-9.686 6.699-19.237 14.279-27.093 22.135" fill="url(#b)" fill-rule="evenodd" stroke="#da3d0a" stroke-width="5.315" stroke-opacity=".996"/><path d="M742.678 833.959l35.567-19.27c-.693-5.722-2.362-15.965-3.519-21.617a172.345 172.345 0 0 0-10.119-32.598c-8.788-20.777-21.504-39.487-37.217-55.2-31.427-31.427-74.842-50.865-122.798-50.865-23.978 0-46.82 4.86-67.597 13.647-5.194 2.197-9.156 3.537-17.537 8.371l34.235 23.226-.034 38.414c2.88-1.599 7.827-3.455 10.903-4.756 12.303-5.204 25.83-8.082 40.03-8.082 28.4 0 54.11 11.511 72.72 30.122a103.006 103.006 0 0 1 22.04 32.69c2.602 6.151 4.177 10.381 5.547 17.076.685 3.347 1.207 6.754 1.262 9.736z" fill="url(#b)" fill-rule="evenodd" stroke="#da3d0a" stroke-width="5.315" stroke-opacity=".996" opacity=".8"/><path d="M706.903 838.586a102.095 102.095 0 0 1-11.881 38.505 102.83 102.83 0 0 1-11.072 16.397 103.453 103.453 0 0 1-21.858 19.86 102.833 102.833 0 0 1-17.47 9.483 102.084 102.084 0 0 1-29.515 7.55 104.05 104.05 0 0 1-26.203-.66 103.45 103.45 0 0 1-10.136-2.075 106.378 106.378 0 0 1-4.97-1.408c-1.645-.509-3.28-1.058-4.903-1.646a112.004 112.004 0 0 1-4.836-1.88l-4.191 2.368-4.19 2.368-4.191 2.368-4.191 2.368-4.19 2.369-4.192 2.368-4.19 2.368-4.191 2.369-.563 5.167-.562 5.167-.563 5.168-.563 5.167-.563 5.167-.563 5.168-.562 5.167-.563 5.168c.391.214.815.437 1.263.666.448.229.919.463 1.405.699.486.235.986.473 1.491.71a153.131 153.131 0 0 0 3.02 1.373 222.748 222.748 0 0 0 3.785 1.64c20.777 8.788 43.62 13.648 67.597 13.648 47.956 0 91.371-19.438 122.798-50.864 31.426-31.427 50.092-74.456 50.115-122.064l-34.704 18.838-35.275-18.931c-.204 3.683-.272 6.417-.623 9.874z" fill="url(#b)" fill-rule="evenodd" stroke="#da3d0a" stroke-width="5.315" stroke-opacity=".996"/><path d="M1003.695 705.13c31.427 31.427 50.865 74.843 50.865 122.798 0 47.956-19.438 91.371-50.865 122.798a174.532 174.532 0 0 1-25.701 21.206c-4.62 3.12-7.198 4.913-7.198 4.913l-3.995-41.73-33.06-18.998c2.043-1.236 1.92-1.063 4.656-2.91a103.35 103.35 0 0 0 15.22-12.559c18.611-18.61 30.122-44.32 30.122-72.72 0-28.398-13.343-52.442-30.122-72.72-3.204-3.872-6.91-7.672-10.785-10.7l.26-39.433 33.51-22.08c9.685 6.7 19.237 14.28 27.093 22.136" fill="url(#c)" fill-rule="evenodd" stroke="#27639e" stroke-width="5.315"/><path d="M778.587 838.443a102.096 102.096 0 0 0 11.881 38.505 102.829 102.829 0 0 0 11.072 16.397 103.442 103.442 0 0 0 21.858 19.861 102.79 102.79 0 0 0 17.469 9.482 102.084 102.084 0 0 0 29.516 7.55 104.05 104.05 0 0 0 26.203-.66 103.484 103.484 0 0 0 10.136-2.075c1.668-.428 3.324-.898 4.97-1.407 1.645-.51 3.28-1.058 4.903-1.646a111.836 111.836 0 0 0 4.836-1.881l4.19 2.368 4.192 2.368 4.19 2.369 4.19 2.368 4.192 2.368 4.19 2.369 4.191 2.368 4.19 2.368.564 5.167.562 5.168.563 5.167.563 5.168.563 5.167.562 5.167.563 5.168.563 5.167c-.391.215-.815.438-1.263.667-.448.228-.92.462-1.405.698-.486.236-.986.474-1.491.71a152.905 152.905 0 0 1-3.02 1.374 217.74 217.74 0 0 1-3.785 1.64c-20.777 8.788-43.62 13.647-67.597 13.647-47.956 0-91.371-19.437-122.798-50.864-31.427-31.427-50.864-74.842-50.888-122.45l35.635 19.225 35.117-18.932c.204 3.684.272 6.417.623 9.874z" fill="url(#c)" fill-rule="evenodd" stroke="#27639e" stroke-width="5.315" opacity=".8"/><ellipse cx="580.936" cy="964.003" rx="12.461" ry="12.461" fill="none" stroke="url(#d)" stroke-width="2.835" stroke-opacity=".996"/><ellipse cx="485.386" cy="898.894" rx="12.461" ry="12.461" fill="none" stroke="url(#a)" stroke-width="2.835" stroke-opacity=".996"/><ellipse cx="607.218" cy="691.454" rx="12.461" ry="12.461" fill="none" stroke="url(#a)" stroke-width="2.835" stroke-opacity=".996"/><ellipse cx="1184.111" cy="-213.889" rx="12.461" ry="12.461" transform="rotate(60)" fill="none" stroke="url(#e)" stroke-width="2.835" stroke-opacity=".996"/><ellipse cx="1027.424" cy="-302.337" rx="12.461" ry="12.461" transform="rotate(60)" fill="none" stroke="url(#f)" stroke-width="2.835" stroke-opacity=".996"/><ellipse cx="1267.524" cy="-429.9" rx="12.461" ry="12.461" transform="rotate(60)" fill="url(#c)" stroke="url(#g)" stroke-width="2.835" stroke-opacity=".996"/><path d="M815.898 1024.943l57.068.101c.798 0 1.51-.118 1.51 1.591l-.07 18.793h-59.948v-18.863c0-.843.082-1.622 1.44-1.622z" fill="#aab2ab"/><path d="M831.563 1034.558a6.864 6.864 0 0 1-13.73.008v-.008a6.864 6.864 0 0 1 6.861-6.868 6.864 6.864 0 0 1 6.869 6.86v.008z" fill="#fff"/><path d="M830.279 1028.967c1.522 1.522 2.283 3.386 2.283 5.59 0 2.206-.748 4.05-2.244 5.533-1.588 1.561-3.464 2.342-5.63 2.342-2.138 0-3.982-.774-5.53-2.323-1.55-1.548-2.324-3.399-2.324-5.551s.775-4.016 2.323-5.59c1.51-1.523 3.353-2.284 5.532-2.284 2.204 0 4.067.76 5.59 2.283zm-10.097 1.024c-1.287 1.3-1.93 2.822-1.93 4.569 0 1.746.637 3.255 1.91 4.529 1.274 1.273 2.79 1.91 4.55 1.91 1.76 0 3.288-.643 4.588-1.93 1.235-1.194 1.852-2.697 1.852-4.51 0-1.797-.628-3.324-1.881-4.578-1.254-1.253-2.774-1.88-4.56-1.88-1.785 0-3.295.63-4.529 1.89zm3.387 3.8c-.197-.428-.491-.642-.884-.642-.694 0-1.04.467-1.04 1.4 0 .935.346 1.402 1.04 1.402.458 0 .786-.227.982-.683l.962.512c-.458.815-1.146 1.222-2.064 1.222-.707 0-1.274-.217-1.7-.65-.426-.434-.638-1.032-.638-1.794 0-.75.22-1.344.658-1.784.44-.44.986-.66 1.641-.66.97 0 1.664.381 2.084 1.145l-1.041.533zm4.526 0c-.197-.428-.486-.642-.866-.642-.708 0-1.062.467-1.062 1.4 0 .935.354 1.402 1.062 1.402.459 0 .78-.227.964-.683l.983.512c-.457.815-1.144 1.222-2.06 1.222-.706 0-1.272-.217-1.697-.65-.425-.434-.638-1.032-.638-1.794 0-.75.216-1.344.648-1.784.431-.44.98-.66 1.648-.66.968 0 1.661.381 2.08 1.145l-1.062.533z"/><path d="M873.465 1024.703h-58.151c-.624 0-1.131.507-1.131 1.13v19.759c0 .14.114.255.255.255h59.903a.256.256 0 0 0 .255-.255v-19.758c0-.624-.507-1.131-1.13-1.131zm-58.151.51h58.151a.62.62 0 0 1 .62.62v13.717h-41.563a8.942 8.942 0 0 1-7.827 4.624 8.936 8.936 0 0 1-7.826-4.624h-2.176v-13.716c0-.342.279-.62.62-.62z"/><g fill="#fff"><path d="M857.612 1043.699c.04.078.094.14.16.19a.696.696 0 0 0 .236.106c.09.024.183.036.28.036.065 0 .134-.006.21-.017a.732.732 0 0 0 .209-.063.453.453 0 0 0 .163-.128.32.32 0 0 0 .065-.208.292.292 0 0 0-.086-.22.682.682 0 0 0-.227-.14 2.287 2.287 0 0 0-.316-.098 8.523 8.523 0 0 1-.36-.093 3.148 3.148 0 0 1-.363-.115 1.251 1.251 0 0 1-.318-.175.824.824 0 0 1-.226-.268.82.82 0 0 1-.086-.39c0-.172.037-.32.11-.446a1 1 0 0 1 .287-.315c.118-.084.252-.147.401-.187.15-.04.299-.06.448-.06.174 0 .341.019.501.058.16.039.303.102.427.19a.957.957 0 0 1 .297.333c.072.136.109.3.109.493h-.711a.6.6 0 0 0-.063-.247.416.416 0 0 0-.142-.155.603.603 0 0 0-.202-.079 1.238 1.238 0 0 0-.249-.023.866.866 0 0 0-.176.018.474.474 0 0 0-.16.066.4.4 0 0 0-.119.117.317.317 0 0 0-.046.177c0 .066.012.119.037.159.025.04.074.078.147.112s.174.069.303.103c.129.034.297.078.506.13.062.013.148.036.258.068.11.033.22.085.33.157.108.072.202.167.282.287a.82.82 0 0 1 .118.46c0 .153-.03.295-.089.425a.92.92 0 0 1-.263.339 1.266 1.266 0 0 1-.434.222c-.173.053-.374.08-.6.08-.184 0-.362-.023-.535-.069a1.347 1.347 0 0 1-.458-.213 1.06 1.06 0 0 1-.315-.37 1.107 1.107 0 0 1-.112-.532h.711c0 .112.02.207.06.285zM861.743 1041.19l1.247 3.333h-.761l-.253-.743h-1.247l-.261.743h-.738l1.261-3.334h.752zm.042 2.043l-.42-1.222h-.01l-.434 1.222h.864z"/></g><g fill="#fff"><path d="M844.388 1041.19c.159 0 .304.013.435.041.13.028.243.074.337.138a.64.64 0 0 1 .217.254.894.894 0 0 1 .077.392.726.726 0 0 1-.114.42.83.83 0 0 1-.34.276c.207.059.36.162.462.31a.922.922 0 0 1 .153.535.856.856 0 0 1-.363.738c-.11.078-.237.136-.38.173a1.702 1.702 0 0 1-.437.056h-1.62v-3.334h1.573zm-.094 1.348c.13 0 .238-.031.323-.093.084-.063.126-.163.126-.303a.387.387 0 0 0-.042-.191.312.312 0 0 0-.112-.117.476.476 0 0 0-.162-.058 1.066 1.066 0 0 0-.19-.016h-.686v.778h.743zm.043 1.414a.97.97 0 0 0 .206-.02.509.509 0 0 0 .173-.07.356.356 0 0 0 .12-.134.454.454 0 0 0 .044-.214c0-.171-.049-.293-.145-.366a.62.62 0 0 0-.384-.11h-.8v.914h.786zM845.744 1041.19h.822l.781 1.316.776-1.317h.817l-1.237 2.055v1.279h-.735v-1.298l-1.224-2.036z"/></g><path d="M865.737 1032.245a5.329 5.329 0 0 1-10.658.007v-.007a5.33 5.33 0 0 1 10.658-.008v.008z" fill="#fff"/><path d="M860.37 1026.407c-1.617 0-2.986.565-4.106 1.693-1.15 1.168-1.724 2.55-1.724 4.145 0 1.595.574 2.967 1.724 4.115 1.149 1.148 2.518 1.722 4.106 1.722 1.607 0 3-.579 4.18-1.737 1.11-1.099 1.665-2.466 1.665-4.1 0-1.634-.565-3.017-1.695-4.145-1.13-1.128-2.513-1.693-4.15-1.693zm.015 1.051c1.325 0 2.45.467 3.376 1.4.934.925 1.402 2.054 1.402 3.387 0 1.342-.457 2.456-1.373 3.342-.965.953-2.1 1.43-3.405 1.43-1.306 0-2.431-.472-3.376-1.416-.945-.944-1.417-2.062-1.417-3.356s.477-2.423 1.432-3.386c.915-.934 2.036-1.401 3.36-1.401z"/><path d="M857.782 1031.42c.233-1.468 1.267-2.253 2.563-2.253 1.864 0 3 1.352 3 3.155 0 1.76-1.209 3.127-3.03 3.127-1.252 0-2.372-.77-2.577-2.283h1.471c.044.785.554 1.061 1.282 1.061.83 0 1.369-.77 1.369-1.948 0-1.236-.466-1.89-1.34-1.89-.641 0-1.194.232-1.31 1.032l.427-.002-1.158 1.157-1.157-1.157.46.002z"/><g transform="matrix(.50031 0 0 .50026 724.723 987.228)"><circle cx="242.562" cy="90.225" r="10.806" fill="#fff"/><path d="M245.69 87.098a.754.754 0 0 0-.754-.754h-4.772a.754.754 0 0 0-.754.754v4.773h1.33v5.652h3.618V91.87h1.332v-4.773z"/><circle cx="242.55" cy="84.083" r="1.632"/><path d="M242.535 78.318c-3.232 0-5.969 1.128-8.208 3.384-2.298 2.333-3.446 5.095-3.446 8.284 0 3.19 1.148 5.932 3.446 8.227s5.034 3.442 8.208 3.442c3.213 0 5.998-1.156 8.353-3.471 2.22-2.197 3.33-4.93 3.33-8.198 0-3.267-1.129-6.028-3.387-8.284-2.26-2.256-5.025-3.384-8.296-3.384zm.029 2.1c2.648 0 4.897.934 6.747 2.8 1.87 1.848 2.805 4.104 2.805 6.768 0 2.684-.915 4.911-2.746 6.681-1.928 1.906-4.197 2.858-6.806 2.858-2.61 0-4.858-.942-6.747-2.83-1.89-1.885-2.833-4.122-2.833-6.709 0-2.586.954-4.842 2.862-6.767 1.83-1.867 4.07-2.801 6.718-2.801z" clip-rule="evenodd" fill-rule="evenodd"/></g><g transform="rotate(-76.53 925.494 693.473)" style="line-height:125%;-inkscape-font-specification:'Cantarell, Bold';text-align:start" font-weight="700" font-size="27.5" font-family="Cantarell" letter-spacing="0" word-spacing="0" fill="url(#a)"><path d="M577.742 423.715l13.014-.604-.125-2.697-2.26-4.513-2.162.979 1.789 3.588-10.384.482-.193-4.158-2.54.118.496 10.676 2.54-.118-.175-3.753z" style="line-height:125%;-inkscape-font-specification:'Cantarell, Bold';text-align:start" font-size="22.5"/><path d="M577.492 442.312l2.943 12.077 3.019-.736-2.142-8.79 5.237-1.276 1.907 7.829 3.02-.736-1.908-7.828 4.195-1.022 2.142 8.79 3.019-.735-2.942-12.077-18.49 4.504z"/><path d="M593.207 450.99l-4.721 6.698-7.65-2.01 1.229 3.415 4.996 1.212-3.059 4.17 1.23 3.415 4.567-6.554 7.934 2.23-1.267-3.52-5.256-1.205 3.235-4.41-1.238-3.44zM581.186 476.058l6.87-3.353a7.308 7.308 0 0 0 .743 3.34c1.737 3.559 5.407 4.369 9.015 2.607 3.608-1.76 5.442-4.461 3.657-8.119-.784-1.606-1.893-2.687-3.09-3.51l.538-1.028-.929-1.903-18.287 8.927 1.483 3.04zm15.421-7.527c.537.473 1.512 1.404 2.03 2.467 1.038 2.125-.157 3.565-2.48 4.7-2.323 1.133-4.213.71-5.202-1.317-.47-.964-.621-1.9-.452-2.87l6.104-2.98zM597.866 486.752c-.552-.92.268-1.637 1.73-2.515l12.445-7.479-1.742-2.899-13.035 7.833c-2.074 1.246-3.757 3.091-1.958 6.085a7.324 7.324 0 0 0 1.199 1.461l1.828-1.869s-.254-.264-.467-.617zM600.78 495.89c2.455 3.384 6.34 3.962 9.702 1.524 3.339-2.423 3.96-6.203 1.505-9.586-2.487-3.428-6.251-4.027-9.657-1.556-3.339 2.423-4.004 6.235-1.55 9.618zm9.038-6.556c1.34 1.847.547 3.985-1.367 5.374-1.959 1.421-4.145 1.546-5.533-.368-1.325-1.825-.493-3.957 1.399-5.33 1.847-1.34 4.176-1.501 5.5.324zM616.884 494.699l-9.893 8.78 2.191 2.469 7.198-6.39c1.005.138 1.82.518 2.404 1.176.566.637 1.088 1.681 1.211 2.565l2.822-1.585a5.76 5.76 0 0 0-1.234-2.177c-.931-1.05-2.24-1.653-3.904-1.83l.775-1.24-1.57-1.768zM621.885 514.415c-.822-.169-1.63-.474-2.512-1.302-.882-.828-1.284-1.846-.532-2.648 1.26-1.344 3.367.632 4.85 2.024l-1.806 1.926zm3.406-3.63c-2.968-2.785-6.32-5.402-9.086-2.454-1.731 1.845-1.165 4.337.76 6.143 1.123 1.054 2.329 1.657 3.617 1.772l-.3.963 1.925 1.806 5.588-5.956c2.616-2.787 2.246-5.246-.762-8.069-1.264-1.185-3.15-2.39-3.933-2.52l-1.25 2.296c.942.242 2.327.976 3.09 1.692 1.824 1.712 1.95 2.622.351 4.327zM632.645 526.644l1.04-2.151c-.476-.195-1.432-.622-2.17-1.195-1.436-1.111-1.206-2.081-.583-2.886l3.823-4.935 3.609 2.796 1.616-2.087-3.608-2.796 2.543-3.282-2.675-2.072-2.542 3.283-1.74-1.347-1.616 2.087 1.739 1.347-3.874 5c-1.431 1.848-2.322 3.941 1.005 6.518 1 .774 2.475 1.43 3.433 1.72zM644.137 517.018c.891.596 2.226.332 2.823-.56.597-.89.332-2.226-.559-2.822-.891-.597-2.226-.333-2.823.558-.597.892-.332 2.227.559 2.824zm-2.259.407l-7.359 10.991 2.743 1.836 7.359-10.991-2.743-1.836zM645.491 535.521c3.655 2.028 7.42.91 9.435-2.722 2.002-3.607.966-7.295-2.69-9.323-3.703-2.054-7.367-1.005-9.408 2.674-2.001 3.607-.992 7.343 2.663 9.371zm5.417-9.763c1.996 1.108 2.181 3.38 1.034 5.449-1.174 2.116-3.102 3.153-5.17 2.006-1.972-1.094-2.12-3.378-.986-5.422 1.107-1.996 3.15-3.127 5.122-2.033zM668.563 537.483c1.371-3.332 1.233-5.886-2.25-7.32-1.374-.566-2.944-.796-4.661-.67l-.134-.977-2.187-.9-5.034 12.232 3.128 1.288 3.82-9.282c1.435.055 2.495.224 3.207.517 1.526.628 1.747 1.968 1.14 3.443l-3.056 7.425 3.128 1.288 2.9-7.044z"/></g><g transform="rotate(148.92 604.544 608.92)" style="line-height:125%;-inkscape-font-specification:'Cantarell, Bold';text-align:start" font-weight="700" font-size="30" font-family="Cantarell" letter-spacing="0" word-spacing="0" fill="url(#a)"><path d="M863.568 417.168l-2.28 1.066c.626 1.087 1.186 2.127 1.108 3.813-.08 1.73-.87 2.73-2.376 2.66-1.641-.076-3.763-1.91-9.016-7.627l-1.73-.08-.47 10.114 2.404.112.281-6.046c4.88 5.002 6.402 6.198 8.515 6.297 2.832.131 4.781-2.076 4.918-5.02.114-2.45-.526-3.719-1.354-5.289z" style="line-height:125%;-inkscape-font-specification:'Cantarell, Bold';text-align:start" font-size="22.5"/><path d="M846.401 444.682l-1.047 3.57 4.739 3.453-2.238 7.629-5.871.403-1.04 3.54 22.125-1.668 1.056-3.598-17.724-13.33zm6.578 9.12l6.782 4.804-8.328.464 1.546-5.267zM842.094 480.895c3.586 1.607 6.377 1.542 8.057-2.209.662-1.478.966-3.183.886-5.06l1.07-.112 1.054-2.355-13.169-5.899-1.508 3.368 9.993 4.476c-.108 1.562-.328 2.713-.672 3.48-.735 1.642-2.204 1.84-3.792 1.128l-7.995-3.581-1.508 3.367 7.584 3.397zM831.571 489.362c-.01-.916.128-1.847.807-2.979.679-1.132 1.672-1.796 2.7-1.18 1.725 1.034.105 3.736-1.037 5.64l-2.47-1.48zm4.657 2.792c2.284-3.808 4.299-7.986.517-10.254-2.367-1.419-4.893-.24-6.374 2.23-.864 1.441-1.229 2.866-1.053 4.266l-1.096-.098-1.481 2.47 7.641 4.582c3.577 2.144 6.113 1.181 8.427-2.678.972-1.621 1.82-3.91 1.779-4.775l-2.738-.802c-.04 1.06-.503 2.706-1.09 3.684-1.403 2.342-2.345 2.687-4.532 1.375zM823.715 499.506c.687-.948 1.758-.431 3.264.66l12.825 9.296 2.166-2.988-13.433-9.735c-2.138-1.55-4.709-2.45-6.945.635-.616.85-.954 1.828-.954 1.828l2.657 1.037s.156-.369.42-.733zM831.534 508.932l-15.258-4.652-3.588-7.52-2.665 3.05 10.889 21.274 2.507-2.869-5.767-10.222 11.158 4.056 2.724-3.117zM807.216 517.618c1.527-1.399 2.85-2.041 3.801-2.424l-1.42-2.483c-1.1.398-2.733 1.324-4.614 3.046-3.141 2.878-4.02 5.472-2.094 7.574 3.667 4.004 8.874-2.393 10.333-.8.73.797-.012 2.208-.963 3.08-1.681 1.54-2.758 1.874-3.812 2.189l1.285 2.647c1.141-.353 2.437-.849 4.516-2.753 1.438-1.317 4.35-4.757 1.796-7.544-3.667-4.005-8.773 2.502-10.292.843-.81-.885.247-2.261 1.464-3.375zM806.346 536.198c-.922.72-1.103 2.194-.383 3.116.72.922 2.193 1.104 3.116.384.922-.72 1.103-2.194.383-3.116-.72-.922-2.194-1.104-3.116-.384zm.348-2.479l-8.88-11.374-2.838 2.216 8.88 11.374 2.838-2.216zM789.931 531.33c1.727-1.141 3.135-1.568 4.134-1.797l-1.013-2.675c-1.149.22-2.907.879-5.034 2.285-3.554 2.35-4.828 4.774-3.257 7.151 2.995 4.53 9.14-.97 10.331.831.596.901-.358 2.179-1.434 2.89-1.902 1.257-3.017 1.42-4.108 1.565l.854 2.816c1.182-.17 2.54-.456 4.892-2.011 1.627-1.076 5.042-4.016 2.957-7.17-2.994-4.53-9.057 1.097-10.298-.78-.661-1.001.6-2.195 1.976-3.105z"/></g><g transform="rotate(-90.804 865.122 679.599)" style="line-height:120.00000477%;-inkscape-font-specification:'Cantarell, Bold';text-align:start" font-weight="700" font-size="30" font-family="Cantarell" letter-spacing="0" word-spacing="0" fill="url(#a)"><path d="M864.945 421.962c.095-2.045-.536-3.493-1.173-4.807l-2.253.977c.553 1.174.956 2.206.886 3.712-.06 1.281-.45 2.435-2.069 2.36-1.304-.061-2.172-.755-2.04-3.61l.051-1.1-2.382-.111-.052 1.124c-.12 2.562-.492 4.28-2.537 4.184-1.439-.067-2.074-1.425-1.984-3.358.08-1.73.653-2.898 1.373-4.351l-2.333-1.167c-.849 1.785-1.472 3.085-1.587 5.557-.146 3.147 1.21 5.935 4.29 6.078 2.18.102 3.465-.897 4.256-2.392.652.999 1.693 1.858 3.086 1.922 2.855.133 4.332-2.096 4.468-5.018z" style="line-height:120.00000477%;-inkscape-font-specification:'Cantarell, Bold';text-align:start" font-size="22.5"/><path d="M865.814 451.442l-20.156-4.974-.883 3.583 20.155 4.973.884-3.582zM847.271 469.444c3.713 1.289 6.487.982 7.835-2.9.532-1.53.686-3.255.444-5.118l1.055-.205.847-2.437-13.631-4.735-1.211 3.486 10.344 3.593c.028 1.566-.091 2.731-.367 3.525-.59 1.7-2.036 2.023-3.68 1.452l-8.275-2.874-1.21 3.486 7.85 2.727zM838.473 474.904c.898-1.865 1.889-2.952 2.63-3.661l-2.24-1.779c-.874.778-2.047 2.244-3.154 4.541-1.85 3.838-1.702 6.573.865 7.81 4.892 2.358 7.353-5.514 9.3-4.577.972.47.807 2.055.247 3.217-.99 2.054-1.865 2.764-2.727 3.448l2.176 1.98c.928-.75 1.948-1.691 3.172-4.232.846-1.756 2.274-6.03-1.132-7.672-4.891-2.357-7.218 5.58-9.245 4.603-1.08-.52-.609-2.191.108-3.678zM844.55 492.488c-.589 1.01-.211 2.447.8 3.036 1.01.59 2.446.213 3.035-.798.59-1.01.213-2.446-.798-3.036-1.01-.59-2.446-.212-3.036.798zm-.594-2.432l-12.463-7.274-1.814 3.11 12.462 7.273 1.815-3.109zM833.157 506.62l-.692-1.045c1.544-.41 2.764-1.346 3.79-2.788 2.82-3.959 1.434-7.34-2.134-9.88-3.568-2.541-7.662-2.326-10.168 1.193-.713 1.002-1.182 2.178-1.425 3.552l-.122-.087c-3.005-2.14-3.915-3.966-1.792-6.948.592-.83 1.501-1.693 2.734-2.546l.52-.367-1.601-2.355-.526.325c-1.46.912-2.69 2.173-3.699 3.59-2.958 4.155-2.224 8.14 1.588 10.854l12.048 8.58 1.479-2.077zm-2.198-2.964l-5.962-4.246c-.04-1.134.282-2.156.979-3.133 1.427-2.004 3.536-2.122 5.833-.486 2.297 1.635 3.238 3.52 1.48 5.989-.626.88-1.615 1.648-2.33 1.876zM821.248 516.456c-1.32 1.434-2.52 1.187-3.888-.073l-6.467-5.954-2.5 2.715 6.114 5.629c2.892 2.661 5.498 3.552 8.342.462.955-1.038 1.708-2.343 2.28-3.895l5.695 5.242 2.5-2.714-15.848-14.59-2.499 2.715 8.034 7.396c-.537 1.381-1.133 2.383-1.763 3.067zM798.076 522.927l2.082 1.569c.309-.468.969-1.4 1.738-2.07 1.493-1.301 2.482-.85 3.211-.013l4.473 5.136-3.756 3.27 1.892 2.172 3.755-3.27 2.975 3.416 2.783-2.424-2.975-3.416 1.81-1.576-1.892-2.172-1.81 1.576-4.531-5.203c-1.675-1.923-3.726-3.32-7.187-.305-1.041.906-2.055 2.346-2.568 3.31z"/></g><g transform="rotate(-35.763 1449.9 368.43)" style="line-height:125%;-inkscape-font-specification:'Cantarell, Bold';text-align:start" font-weight="700" font-size="27.5" font-family="Cantarell" letter-spacing="0" word-spacing="0" fill="url(#a)"><path d="M581.304 425.712l9.552-.444-.163-3.506-10.631-6.309-1.776.083.35 7.53-3.507.162.129 2.764 3.506-.162.092 1.978 2.54-.118-.092-1.978zm6.03-3.05l-6.159.285-.185-4 6.344 3.714z" font-size="22.5"/><path d="M596.693 440.635l-18.532 4.329.77 3.294 18.531-4.329-.77-3.294zM585.653 459.384c-.856-.589-1.407-1.393-1.739-2.413-.697-2.144.367-3.762 2.825-4.562 2.458-.8 4.36-.464 5.22 2.177.306.941.323 2.063.101 2.714l-6.407 2.084zm8.892-2.892c.269-1.129.181-2.286-.227-3.541-1.378-4.237-4.624-5.06-8.443-3.818-3.818 1.242-5.893 4.375-4.668 8.14.409 1.256 1.157 2.4 2.298 3.418l-.599.917.656 2.014 18.776-6.108-1.046-3.217-6.747 2.195zM589.883 472.149c-1.342-2.955-.372-4.211 1.124-5.041l3.752 8.263 1.177-.535c3.931-1.785 5.293-4.639 3.656-8.244-1.626-3.58-5.488-4.636-8.969-3.055-3.906 1.774-5.193 5.258-3.35 9.314.727 1.602 1.708 3.03 2.854 4.291l2.03-1.647c-.925-.908-1.671-2.02-2.274-3.346zm3.263-5.983c1.52-.51 3.157-.497 4.09 1.556.682 1.502.18 2.727-1.747 3.602l-2.343-5.158zM597.465 484.775c-.742-.394-1.43-.914-2.043-1.958-.612-1.043-.71-2.134.239-2.69 1.589-.933 3.05 1.557 4.08 3.312l-2.276 1.336zm4.292-2.52c-2.06-3.51-4.536-6.967-8.022-4.92-2.182 1.28-2.343 3.83-1.007 6.107.78 1.328 1.766 2.248 2.969 2.722l-.56.839 1.337 2.276 7.043-4.134c3.297-1.936 3.636-4.399 1.548-7.956-.877-1.494-2.347-3.183-3.06-3.53l-1.848 1.85c.835.5 1.956 1.595 2.485 2.496 1.267 2.158 1.131 3.067-.885 4.25zM604.335 499.543l1.605-1.77c-.401-.321-1.198-1.001-1.745-1.759-1.063-1.471-.57-2.337.255-2.933l5.06-3.656 2.674 3.7 2.14-1.546-2.674-3.7 3.366-2.432-1.98-2.742-3.367 2.432-1.288-1.783-2.14 1.546 1.288 1.784-5.126 3.704c-1.895 1.369-3.34 3.125-.876 6.536.74 1.025 1.971 2.07 2.808 2.619zM618.077 493.55c.687.824 2.043.948 2.866.261.824-.687.948-2.042.261-2.866-.687-.824-2.042-.947-2.866-.26-.824.686-.947 2.042-.26 2.866zm-2.281-.246l-10.162 8.468 2.113 2.535 10.161-8.468-2.112-2.535zM614.153 511.686c2.933 2.978 6.861 2.97 9.82.056 2.94-2.894 2.988-6.725.055-9.703-2.971-3.018-6.782-3.047-9.78-.095-2.94 2.894-3.028 6.763-.095 9.742zm7.956-7.834c1.601 1.627 1.137 3.86-.549 5.519-1.724 1.698-3.867 2.148-5.526.463-1.582-1.607-1.079-3.84.587-5.48 1.626-1.601 3.905-2.109 5.488-.502zM635.726 520.107c2.26-2.805 2.853-5.294-.08-7.658-1.157-.932-2.597-1.598-4.28-1.965l.15-.974-1.842-1.484-8.299 10.3 2.634 2.123 6.298-7.817c1.36.46 2.328.923 2.928 1.406 1.285 1.036 1.117 2.384.116 3.626l-5.038 6.253 2.634 2.122 4.78-5.932z"/></g><g transform="rotate(-146.367 861.53 598.79)" style="line-height:125%;-inkscape-font-specification:'Roboto, Bold';text-align:start" font-weight="700" font-size="27.5" font-family="Roboto" letter-spacing="0" word-spacing="0" fill="url(#a)"><path d="M863.69 438.248l-2.594-.334.04-.305q.241-2.14-.67-3.586-.911-1.435-2.795-1.944 1.123 1.43.875 3.358-.266 2.07-1.905 3.1-1.64 1.03-4.058.72-1.548-.2-2.714-1.037-1.167-.825-1.706-2.147-.54-1.31-.342-2.857.323-2.506 2.265-3.83 1.941-1.311 4.85-.937l1.134.146q2.582.332 4.43 1.555 1.857 1.236 2.702 3.195.854 1.97.555 4.38l-.067.523zm-7.549-4.095q.098-.762-.225-1.435-.312-.672-.928-1.05l-.96-.124q-1.58-.203-2.553.303-.962.508-1.106 1.63-.13 1.014.585 1.737.725.736 2 .9 1.296.167 2.173-.363t1.014-1.598z" style="line-height:125%;-inkscape-font-specification:'Roboto, Bold';text-align:start" font-size="22.5"/><path d="M847.84 468.35l2.518-7.314-4.951-1.705-2.956 8.583-3.06-1.054 4.267-12.391 18.486 6.366-4.259 12.365-3.085-1.062 2.947-8.557-4.405-1.517-2.519 7.313-2.983-1.028zM840.612 475.421l7.723 6.593-1.718 3.673-11.084-10.595 1.57-3.357 15.237 1.716-1.718 3.673-10.01-1.703zM828.36 488.06q.588.039 1.317.337-.62-2.018.544-3.951 1.1-1.83 2.886-2.401 1.778-.56 3.389.41 1.98 1.19 2.159 3.288.172 2.11-1.485 4.89l-.92 1.53.713.429q.863.519 1.651.382.78-.126 1.355-1.081.506-.84.394-1.566-.12-.714-.821-1.136l2-3.325q1.082.65 1.6 1.872.52 1.22.304 2.752-.205 1.538-1.118 3.057-1.385 2.301-3.357 2.948-1.967.666-4.061-.594l-5.396-3.246q-1.78-1.055-2.98-1.118l-.195-.118 2.021-3.36zm3.968-1.36q-.443.737-.495 1.552-.04.822.332 1.453l2.14 1.288.748-1.243q1.502-2.497-.127-3.696l-.189-.13q-.621-.373-1.287-.178-.666.195-1.122.954zM822.471 496.687l2.27-3.165 16.762 12.017-2.27 3.164-16.762-12.016zM816.123 506.914q-.4-2.226 1.244-4.16 1.513-1.78 3.336-1.851 1.814-.062 3.806 1.596l7.254 6.165-2.513 2.957-7.151-6.078q-1.73-1.47-3.069.106-1.278 1.504-.713 2.954l7.838 6.66-2.522 2.968-11.07-9.41 2.365-2.782 1.195.875zM804.387 516.74q.555.197 1.178.68-.054-2.11 1.586-3.66 1.552-1.465 3.425-1.535 1.863-.061 3.154 1.305 1.586 1.68 1.195 3.748-.401 2.079-2.744 4.31l-1.299 1.227.572.605q.692.732 1.487.812.786.089 1.596-.677.713-.673.8-1.402.078-.72-.485-1.315l2.821-2.665q.867.918 1.038 2.234.172 1.315-.448 2.732-.61 1.426-1.899 2.644-1.952 1.844-4.026 1.937-2.074.112-3.752-1.665l-4.324-4.578q-1.43-1.494-2.568-1.878l-.157-.166 2.85-2.692zm4.187-.241q-.625.59-.894 1.361-.26.781-.071 1.49l1.715 1.815 1.054-.996q2.118-2 .872-3.594l-.147-.175q-.498-.527-1.192-.518-.693.009-1.337.617zM807.194 537.994l-2.217-2.8-1.948 1.541-1.767-2.232 1.948-1.541-4.5-5.685q-.501-.632-.96-.714-.459-.082-1.143.46-.505.4-.836.782l-1.826-2.306q.678-.982 1.626-1.732 3.2-2.534 5.822.648l4.86 6.138 1.663-1.317 1.767 2.232-1.664 1.317 2.218 2.8-3.043 2.409zM788.884 528.936l3.193-2.229 8.316 11.914-3.193 2.229-8.316-11.914zm13.848 12.637q.5.716.349 1.509-.162.8-.988 1.377-.814.569-1.622.444-.807-.124-1.307-.84-.507-.726-.334-1.535.162-.8.965-1.361.804-.561 1.623-.445.807.124 1.314.851zM790.51 536.912q1.086 1.87 1.215 3.751.13 1.881-.752 3.465-.894 1.59-2.682 2.628-2.543 1.476-5.05.85-2.517-.618-4.253-3.181l-.522-.846q-1.679-2.892-1.083-5.582.603-2.68 3.32-4.257 2.718-1.578 5.355-.78 2.625.805 4.365 3.801l.087.151zm-3.497 1.705q-1.039-1.789-2.265-2.35-1.22-.55-2.474.179-1.219.708-1.365 2.034-.139 1.339 1.054 3.394 1.018 1.754 2.263 2.32 1.245.566 2.487-.155 1.231-.715 1.345-2.07.12-1.343-1.045-3.352zM775.263 553.233l-.783-1.49q-.647 2.41-3.045 3.459-2.116.926-3.693.136t-2.684-3.252l-3.764-8.598 3.555-1.556 3.726 8.512q.496 1.132 1.208 1.42.719.302 1.863-.199 1.5-.657 1.69-2.264l-4.108-9.386 3.555-1.556 5.826 13.31-3.346 1.464z"/></g><g transform="rotate(-152.49 850.996 600.292)" style="line-height:125%;-inkscape-font-specification:'Cantarell, Bold';text-align:start" font-weight="700" font-size="27.5" font-family="Cantarell" letter-spacing="0" word-spacing="0" fill="url(#a)"><path d="M577.384 420.848c-.04-.854.11-1.987.494-3.424l.115-.433-2.487-.695-.115.433c-.35 1.21-.614 2.799-.545 4.282.126 2.697 1.789 6.021 5.497 5.85 3.147-.147 4.883-2.548 4.734-5.74a10.533 10.533 0 0 0-.247-1.925l3.18.078.3 6.45 2.562-.119-.418-8.99-7.64-.096-1.117.683.13.354c.438 1.196.64 2.178.673 2.875.113 2.427-.24 3.57-2.307 3.666-1.978.091-2.74-1.743-2.809-3.249z" font-size="22.5"/><path d="M595.758 448.098c.513 1.884.48 3.232.255 4.918l3.116.036c.168-1.898.256-3.46-.401-5.876-1.04-3.82-3.628-6.736-7.184-5.77-6.183 1.683-2.398 11.511-5.582 12.377-1.805.491-3.084-1.697-3.654-3.794-.577-2.122-.45-3.753-.22-5.839l-3.138-.116c-.41 2.164-.398 3.985.287 6.506 1.17 4.298 3.738 7.561 7.613 6.507 6.023-1.638 2.265-11.474 5.45-12.34 1.75-.476 2.902 1.348 3.458 3.391zM594.38 454.823l-10.12 10.554-7.636-.178 1.39 3.442 21.908-.1-1.308-3.239-10.748.487 7.936-7.448-1.422-3.518zM601.143 482.456c3.167-1.719 4.672-3.788 2.875-7.099-.708-1.305-1.781-2.475-3.193-3.461l.513-.842-1.128-2.078-11.625 6.31 1.613 2.972 8.822-4.788c1.078.948 1.794 1.749 2.161 2.426.787 1.45.113 2.629-1.289 3.39l-7.057 3.83 1.614 2.973 6.694-3.633zM602.096 496.602l1.652-1.726c-.392-.332-1.17-1.033-1.697-1.805-1.023-1.5-.506-2.351.334-2.925l5.157-3.518 2.573 3.77 2.18-1.487-2.572-3.771 3.43-2.34-1.906-2.795-3.43 2.34-1.24-1.817-2.181 1.488 1.24 1.818-5.225 3.564c-1.931 1.318-3.423 3.035-1.052 6.51.713 1.045 1.915 2.123 2.737 2.694zM615.658 497.041c1.151 1.367.787 2.429-.517 3.527l-6.163 5.191 2.18 2.587 5.826-4.907c2.755-2.32 3.866-4.587 1.386-7.532-.833-.988-1.932-1.824-3.277-2.525l5.426-4.57-2.179-2.588-15.102 12.72 2.18 2.587 7.656-6.448c1.193.649 2.035 1.306 2.584 1.958zM620.16 513.822c-2.35-2.237-1.922-3.765-.846-5.095l6.574 6.256.891-.936c2.977-3.128 3.17-6.283.302-9.013-2.849-2.711-6.825-2.243-9.46.526-2.957 3.108-2.846 6.82.382 9.891 1.275 1.214 2.718 2.17 4.254 2.91l1.266-2.288c-1.2-.495-2.307-1.246-3.363-2.25zm.785-6.769c1.22-1.042 2.741-1.643 4.375-.089 1.195 1.138 1.189 2.46-.27 3.994l-4.105-3.905zM628.625 521.127c-1.498-1.165-2.281-2.262-2.773-3.063l-2.026 1.664c.528.934 1.615 2.267 3.46 3.703 3.083 2.397 5.562 2.793 7.166.73 3.056-3.928-3.523-7.652-2.308-9.215.608-.782 1.997-.328 2.93.398 1.65 1.283 2.118 2.204 2.565 3.109l2.194-1.568c-.494-.977-1.14-2.072-3.18-3.659-1.412-1.097-4.967-3.2-7.094-.466-3.056 3.93 3.608 7.545 2.342 9.173-.676.868-2.082.123-3.276-.806zM644.253 517.095c.892.596 2.227.33 2.822-.562.596-.892.33-2.227-.562-2.823-.892-.595-2.227-.33-2.822.563-.596.891-.33 2.226.562 2.822zm-2.258.41l-7.347 11 2.745 1.833 7.346-11-2.744-1.833zM644.773 532.085c-1.65-.937-2.584-1.91-3.186-2.631l-1.765 1.939c.657.847 1.926 2.01 3.958 3.164 3.396 1.928 5.907 1.962 7.197-.31 2.457-4.328-4.59-7.065-3.613-8.787.489-.86 1.929-.612 2.957-.028 1.818 1.032 2.413 1.876 2.985 2.707l1.946-1.868c-.63-.896-1.427-1.886-3.675-3.162-1.555-.883-5.376-2.451-7.087.562-2.457 4.328 4.658 6.945 3.64 8.739-.543.956-2.042.422-3.357-.325z"/></g><g transform="translate(480.305 481.192)" style="line-height:125%;-inkscape-font-specification:'Roboto, Bold';text-align:start" font-weight="700" font-size="40" font-family="Roboto" letter-spacing="0" word-spacing="0" fill="url(#c)"><path d="M91.688 100.962h-8.711v23.692h-5.86v-23.692h-8.594v-4.746h23.165v4.746zM100.184 105.826q2.246-2.696 5.644-2.696 6.875 0 6.973 7.988v13.536h-5.645v-13.38q0-1.816-.781-2.675-.781-.879-2.598-.879-2.48 0-3.593 1.914v15.02h-5.645v-30h5.645v11.172zM126.824 125.044q-4.648 0-7.578-2.851-2.91-2.852-2.91-7.598v-.547q0-3.183 1.23-5.683 1.23-2.52 3.477-3.868 2.266-1.367 5.156-1.367 4.336 0 6.817 2.735 2.5 2.734 2.5 7.753v2.305h-13.457q.273 2.07 1.64 3.32 1.387 1.25 3.496 1.25 3.262 0 5.098-2.363l2.773 3.106q-1.27 1.797-3.437 2.812-2.168.996-4.805.996zm-.644-17.343q-1.68 0-2.735 1.132-1.035 1.133-1.328 3.243h7.852v-.45q-.04-1.875-1.016-2.89-.976-1.035-2.773-1.035zM149.11 124.654V96.216h8.75q3.75 0 6.699 1.7 2.968 1.68 4.629 4.804 1.66 3.106 1.66 7.07v1.309q0 3.965-1.641 7.05-1.621 3.087-4.59 4.786-2.969 1.7-6.699 1.719h-8.809zm5.859-23.692v18.985h2.832q3.437 0 5.254-2.246 1.816-2.247 1.855-6.426v-1.504q0-4.336-1.797-6.563-1.797-2.246-5.254-2.246h-2.89zM173.875 113.892q0-3.145 1.21-5.606 1.212-2.46 3.477-3.808 2.286-1.348 5.293-1.348 4.278 0 6.973 2.617 2.715 2.618 3.027 7.11l.04 1.445q0 4.863-2.715 7.813-2.715 2.93-7.285 2.93t-7.305-2.93q-2.715-2.93-2.715-7.97v-.253zm5.645.41q0 3.008 1.132 4.61 1.133 1.581 3.243 1.581 2.05 0 3.203-1.562 1.152-1.582 1.152-5.04 0-2.948-1.152-4.57-1.153-1.62-3.243-1.62-2.07 0-3.203 1.62-1.132 1.602-1.132 4.981zM210.066 122.505q-2.09 2.54-5.78 2.54-3.4 0-5.196-1.954-1.778-1.953-1.817-5.723v-13.847h5.645v13.652q0 3.301 3.008 3.301 2.87 0 3.945-1.992V103.52h5.664v21.133h-5.312l-.157-2.149zM238.875 114.283q0 5.078-2.168 7.93-2.168 2.831-6.055 2.831-3.437 0-5.488-2.636l-.254 2.246h-5.078v-30h5.645v10.761q1.953-2.285 5.136-2.285 3.867 0 6.055 2.852 2.207 2.832 2.207 7.988v.313zm-5.645-.41q0-3.204-1.015-4.669-1.016-1.484-3.027-1.484-2.696 0-3.711 2.207v8.34q1.035 2.226 3.75 2.226 2.734 0 3.593-2.695.41-1.289.41-3.926zM248.29 124.654h-5.665v-30h5.664v30zM262.684 125.044q-4.649 0-7.579-2.851-2.91-2.852-2.91-7.598v-.547q0-3.183 1.23-5.683 1.231-2.52 3.477-3.868 2.266-1.367 5.157-1.367 4.336 0 6.816 2.735 2.5 2.734 2.5 7.753v2.305h-13.457q.273 2.07 1.64 3.32 1.387 1.25 3.497 1.25 3.261 0 5.097-2.363l2.774 3.106q-1.27 1.797-3.438 2.812-2.168.996-4.804.996zm-.645-17.343q-1.68 0-2.734 1.132-1.035 1.133-1.328 3.243h7.851v-.45q-.039-1.875-1.015-2.89-.977-1.035-2.774-1.035zM284.969 124.654V96.216h8.75q3.75 0 6.699 1.7 2.969 1.68 4.629 4.804 1.66 3.106 1.66 7.07v1.309q0 3.965-1.64 7.05-1.622 3.087-4.59 4.786-2.97 1.7-6.7 1.719h-8.808zm5.86-23.692v18.985h2.831q3.438 0 5.254-2.246 1.816-2.247 1.856-6.426v-1.504q0-4.336-1.797-6.563-1.797-2.246-5.254-2.246h-2.89zM309.734 113.892q0-3.145 1.211-5.606 1.211-2.46 3.477-3.808 2.285-1.348 5.293-1.348 4.277 0 6.973 2.617 2.714 2.618 3.027 7.11l.039 1.445q0 4.863-2.715 7.813-2.715 2.93-7.285 2.93t-7.305-2.93q-2.715-2.93-2.715-7.97v-.253zm5.645.41q0 3.008 1.133 4.61 1.133 1.581 3.242 1.581 2.05 0 3.203-1.562 1.152-1.582 1.152-5.04 0-2.948-1.152-4.57-1.152-1.62-3.242-1.62-2.07 0-3.203 1.62-1.133 1.602-1.133 4.981zM345.926 122.505q-2.09 2.54-5.781 2.54-3.399 0-5.196-1.954-1.777-1.953-1.816-5.723v-13.847h5.644v13.652q0 3.301 3.008 3.301 2.871 0 3.945-1.992V103.52h5.665v21.133h-5.313l-.156-2.149zM354.871 113.931q0-4.863 2.305-7.832 2.324-2.969 6.25-2.969 3.476 0 5.41 2.383l.234-1.992h5.118v20.43q0 2.773-1.27 4.824-1.25 2.05-3.535 3.125-2.285 1.074-5.352 1.074-2.324 0-4.531-.938-2.207-.918-3.34-2.382l2.5-3.438q2.11 2.363 5.117 2.363 2.246 0 3.496-1.21 1.25-1.192 1.25-3.399v-1.133q-1.953 2.207-5.136 2.207-3.809 0-6.172-2.968-2.344-2.989-2.344-7.91v-.235zm5.645.41q0 2.871 1.152 4.512 1.152 1.621 3.164 1.621 2.578 0 3.691-1.934v-8.886q-1.132-1.934-3.652-1.934-2.031 0-3.203 1.66-1.152 1.66-1.152 4.961zM384.012 105.826q2.246-2.696 5.644-2.696 6.875 0 6.973 7.988v13.536h-5.645v-13.38q0-1.816-.78-2.675-.782-.879-2.599-.879-2.48 0-3.593 1.914v15.02h-5.645v-30h5.645v11.172zM406.121 103.52l.176 2.442q2.265-2.832 6.074-2.832 3.36 0 5 1.973 1.64 1.973 1.68 5.898v13.653h-5.645v-13.516q0-1.797-.781-2.598-.781-.82-2.598-.82-2.382 0-3.574 2.031v14.903h-5.644V103.52h5.312zM436.004 122.505q-2.09 2.54-5.781 2.54-3.399 0-5.196-1.954-1.777-1.953-1.816-5.723v-13.847h5.644v13.652q0 3.301 3.008 3.301 2.871 0 3.946-1.992V103.52h5.664v21.133h-5.313l-.156-2.149zM452.527 98.326v5.195h3.614v4.14h-3.614v10.547q0 1.172.45 1.68.449.508 1.718.508.938 0 1.66-.137v4.277q-1.66.508-3.417.508-5.938 0-6.055-5.996v-11.387h-3.086v-4.14h3.086v-5.195h5.644z"/></g><path d="M1046.11 1036.756s-.456.692-.915 1.033c-.478.354-1.033.62-1.416.708-.384.088-.98.193-1.505.088-.09-.018-.65-.767-.856-1.151-.207-.384-.472-1.24-.502-2.007-.029-.767.207-1.83.62-2.538.413-.708 1.269-1.475 1.8-1.77.531-.295 1.357-.531 2.007-.59.649-.06 1.298.03 1.83.206a5.39 5.39 0 0 1 1.563.886c.384.324.787.864 1.023 1.247.236.384.482.907.57 1.408.09.502.119 1.387 0 1.919a7.385 7.385 0 0 1-.59 1.711c-.294.59-.471.767-.855 1.299-.384.53-1.121 1.239-2.036 1.83-.915.59-1.564.796-2.332 1.032-.767.236-1.77.265-2.42.236a9.375 9.375 0 0 1-1.049-.099s.461.377 1.08.66c.367.169 1.265.517 1.976.65a8.356 8.356 0 0 0 2.243.117 7.912 7.912 0 0 0 2.45-.59c.914-.383 1.947-.974 2.862-1.918.914-.944 1.416-1.652 1.888-3.069.472-1.416.561-2.213.472-3.305-.088-1.092-.324-2.42-1.21-3.807-.885-1.387-1.652-2.124-2.714-2.774-1.063-.649-1.535-.826-2.597-1.062a8.732 8.732 0 0 0-3.394-.059c-1.15.207-1.652.443-2.479.915-.826.472-1.711 1.15-2.242 1.8-.531.65-1.119 1.329-1.417 2.567-.223.928-.27 2.189-.147 2.745a6.07 6.07 0 0 0 .738 1.859c.192.323.649.885 1.032 1.15.384.266.886.65 1.476.856.59.207 1.092.295 1.74.236.65-.059 1.152-.118 1.801-.413.65-.295 1.062-.53 1.564-1.121.502-.59.65-.856.856-1.417.206-.56.265-.796.206-1.18-.059-.383-.259-.755-.678-1.062-.356-.26-.935-.348-1.299-.236-.473.145-.826.413-1.003.767a1.636 1.636 0 0 0-.118 1.121c.088.384.206.59.501.856.296.266.59.354.886.384.295.029.59-.118.59-.118zm11.107-1.474c0 6.385-5.176 11.562-11.562 11.562-6.385 0-11.562-5.177-11.562-11.562 0-6.386 5.177-11.562 11.562-11.562 6.386 0 11.562 5.176 11.562 11.562z" fill="url(#c)"/><path d="M890.162 1036.903q0 1.3-.752 1.991-.743.692-2.11.692t-2.18-.905q-.802-.915-.802-2.453v-.965q0-1.487.811-2.393.82-.914 2.17-.914 1.394 0 2.129.71.743.7.743 1.973h-1.333q0-.82-.393-1.17-.393-.36-1.145-.36-.786 0-1.222.582-.427.572-.436 1.538v1.05q0 1 .436 1.581.436.573 1.222.573.76 0 1.145-.342.384-.35.384-1.188h1.333zm2.273-1.136q0-1.419-.64-2.632-.641-1.222-1.812-1.948-1.17-.735-2.563-.735-1.36 0-2.53.7-1.162.701-1.828 1.932-.667 1.23-.667 2.683 0 1.452.658 2.683.667 1.23 1.829 1.948 1.17.71 2.538.71 1.367 0 2.537-.727 1.18-.726 1.829-1.957.65-1.23.65-2.657zm-11.082 0q0-1.726.794-3.205.803-1.478 2.213-2.324 1.419-.854 3.06-.854 1.64 0 3.05.854 1.418.846 2.213 2.324.803 1.479.803 3.205 0 1.743-.811 3.23-.812 1.478-2.222 2.324-1.401.846-3.034.846-1.649 0-3.059-.855-1.401-.854-2.204-2.332-.803-1.478-.803-3.213z" style="line-height:125%;-inkscape-font-specification:'Roboto, Bold';text-align:start" font-weight="700" font-size="17.5" font-family="Roboto" letter-spacing="0" word-spacing="0" fill="url(#c)"/><g transform="translate(684.73 713.025)" style="line-height:125%;-inkscape-font-specification:'Roboto, Bold';text-align:center" font-weight="700" font-size="27.5" font-family="Roboto" letter-spacing="0" word-spacing="0" text-anchor="middle" fill="url(#b)"><g transform="translate(49.487 24.059)" style="line-height:125%;-inkscape-font-specification:'Roboto, Bold';text-align:center" fill="url(#c)"><path d="M107.361 75.276q0-1.142-.806-1.746-.805-.618-2.9-1.29-2.095-.684-3.317-1.342-3.33-1.8-3.33-4.847 0-1.585.887-2.82.9-1.249 2.564-1.947 1.679-.698 3.76-.698 2.095 0 3.733.765 1.638.752 2.538 2.135.913 1.383.913 3.142h-4.028q0-1.343-.846-2.081-.846-.752-2.377-.752-1.477 0-2.296.63-.82.619-.82 1.64 0 .952.954 1.597.967.645 2.833 1.209 3.438 1.033 5.009 2.564 1.57 1.531 1.57 3.814 0 2.538-1.92 3.988-1.92 1.437-5.169 1.437-2.256 0-4.109-.82-1.853-.832-2.833-2.269-.967-1.437-.967-3.33h4.042q0 3.236 3.867 3.236 1.437 0 2.242-.577.806-.591.806-1.638zM113.283 73.006q0-2.162.832-3.853.833-1.692 2.39-2.619 1.571-.926 3.64-.926 2.94 0 4.793 1.799 1.866 1.8 2.081 4.888l.027.993q0 3.344-1.866 5.371-1.867 2.015-5.009 2.015-3.142 0-5.022-2.015-1.866-2.014-1.866-5.478v-.175zm3.88.282q0 2.068.78 3.17.778 1.087 2.228 1.087 1.41 0 2.202-1.074.793-1.088.793-3.465 0-2.027-.793-3.142-.792-1.114-2.229-1.114-1.423 0-2.202 1.114-.779 1.101-.779 3.424zM133.559 80.405h-3.894V59.78h3.894v20.625zM145.469 78.928q-1.437 1.746-3.975 1.746-2.336 0-3.571-1.343-1.222-1.343-1.25-3.935v-9.52h3.881v9.386q0 2.27 2.068 2.27 1.974 0 2.713-1.37V65.876h3.894v14.529h-3.653l-.107-1.477zM156.829 62.304v3.572h2.484v2.847h-2.484v7.25q0 .806.309 1.156.309.349 1.181.349.645 0 1.142-.094v2.94q-1.142.35-2.35.35-4.082 0-4.163-4.123v-7.828h-2.121v-2.847h2.121v-3.572h3.88zM165.57 80.405h-3.894V65.876h3.894v14.529zm-4.122-18.289q0-.872.577-1.436.591-.564 1.598-.564.994 0 1.585.564.59.564.59 1.436 0 .887-.604 1.45-.59.565-1.57.565-.98 0-1.585-.564-.591-.564-.591-1.45zM168.175 73.006q0-2.162.833-3.853.832-1.692 2.39-2.619 1.571-.926 3.639-.926 2.94 0 4.794 1.799 1.866 1.8 2.08 4.888l.028.993q0 3.344-1.867 5.371-1.866 2.015-5.008 2.015t-5.022-2.015q-1.867-2.014-1.867-5.478v-.175zm3.88.282q0 2.068.78 3.17.779 1.087 2.229 1.087 1.41 0 2.202-1.074.792-1.088.792-3.465 0-2.027-.792-3.142-.792-1.114-2.23-1.114-1.422 0-2.201 1.114-.78 1.101-.78 3.424zM187.927 65.876l.121 1.679q1.558-1.947 4.176-1.947 2.31 0 3.438 1.356 1.128 1.356 1.155 4.055v9.386h-3.881v-9.292q0-1.235-.537-1.786-.537-.564-1.786-.564-1.638 0-2.457 1.397v10.245h-3.88V65.876h3.651zM67.145 114.78V95.23h6.016q2.578 0 4.605 1.167 2.041 1.155 3.183 3.304 1.141 2.135 1.141 4.86v.9q0 2.726-1.128 4.848-1.114 2.121-3.155 3.29-2.041 1.168-4.606 1.18l-6.056.001zm4.028-16.288v13.052h1.947q2.364 0 3.612-1.544 1.25-1.545 1.276-4.418v-1.034q0-2.98-1.235-4.512-1.236-1.544-3.612-1.544h-1.988zM91.463 115.049q-3.196 0-5.21-1.96-2.001-1.961-2.001-5.224v-.376q0-2.189.846-3.908.846-1.732 2.39-2.658 1.558-.94 3.545-.94 2.98 0 4.686 1.88 1.719 1.88 1.719 5.33v1.585h-9.252q.188 1.423 1.128 2.282.954.86 2.404.86 2.242 0 3.504-1.625l1.907 2.135q-.873 1.235-2.363 1.934-1.49.684-3.303.684zm-.443-11.924q-1.155 0-1.88.778-.712.78-.913 2.23h5.398v-.31q-.027-1.288-.699-1.987-.671-.711-1.906-.711zM104.93 110.04l2.7-9.789h4.055l-4.901 14.529h-3.706l-4.901-14.529h4.055l2.699 9.789zM119.93 115.049q-3.196 0-5.21-1.96-2.001-1.961-2.001-5.224v-.376q0-2.189.846-3.908.846-1.732 2.39-2.658 1.557-.94 3.545-.94 2.98 0 4.686 1.88 1.719 1.88 1.719 5.33v1.585h-9.252q.188 1.423 1.128 2.282.953.86 2.404.86 2.242 0 3.504-1.625l1.907 2.135q-.873 1.235-2.363 1.934-1.49.684-3.304.684zm-.444-11.924q-1.154 0-1.88.778-.711.78-.913 2.23h5.398v-.31q-.027-1.288-.698-1.987-.671-.711-1.907-.711zM132.216 114.78h-3.894V94.155h3.894v20.625zM134.82 107.381q0-2.162.833-3.853.833-1.692 2.39-2.619 1.571-.926 3.64-.926 2.94 0 4.793 1.799 1.867 1.8 2.081 4.888l.027.993q0 3.344-1.866 5.371-1.867 2.014-5.009 2.014-3.142 0-5.022-2.014-1.866-2.014-1.866-5.478v-.175zm3.881.282q0 2.068.78 3.17.778 1.087 2.228 1.087 1.41 0 2.202-1.074.793-1.088.793-3.465 0-2.027-.793-3.142-.792-1.114-2.229-1.114-1.423 0-2.202 1.114-.779 1.101-.779 3.424zM164.08 107.65q0 3.357-1.53 5.384-1.518 2.014-4.11 2.014-2.202 0-3.558-1.53v6.848h-3.88V100.25h3.598l.134 1.423q1.41-1.691 3.68-1.691 2.685 0 4.175 1.987 1.49 1.987 1.49 5.478v.202zm-3.88-.282q0-2.028-.726-3.129-.712-1.1-2.081-1.1-1.826 0-2.511 1.396v5.948q.712 1.437 2.538 1.437 2.78 0 2.78-4.552zM170.109 100.251l.12 1.625q1.545-1.893 4.177-1.893 2.806 0 3.854 2.215 1.53-2.215 4.364-2.215 2.363 0 3.518 1.383 1.154 1.37 1.154 4.135v9.279h-3.894v-9.265q0-1.236-.483-1.8-.483-.577-1.705-.577-1.746 0-2.417 1.665l.013 9.977h-3.88v-9.252q0-1.262-.497-1.826-.497-.564-1.692-.564-1.652 0-2.39 1.37v10.272h-3.881v-14.529h3.639zM196.95 115.049q-3.195 0-5.209-1.96-2-1.961-2-5.224v-.376q0-2.189.845-3.908.846-1.732 2.39-2.658 1.558-.94 3.545-.94 2.981 0 4.687 1.88 1.718 1.88 1.718 5.33v1.585h-9.251q.188 1.423 1.127 2.282.954.86 2.404.86 2.242 0 3.505-1.625l1.906 2.135q-.872 1.235-2.363 1.934-1.49.684-3.303.684zm-.442-11.924q-1.155 0-1.88.778-.712.78-.913 2.23h5.398v-.31q-.027-1.288-.698-1.987-.672-.711-1.907-.711zM208.714 100.251l.12 1.679q1.558-1.947 4.177-1.947 2.31 0 3.437 1.356 1.128 1.356 1.155 4.055v9.386h-3.88v-9.292q0-1.235-.538-1.786-.537-.564-1.786-.564-1.638 0-2.457 1.397v10.245h-3.88v-14.529h3.652zM225.203 96.68v3.571h2.484v2.847h-2.484v7.25q0 .806.309 1.156.309.349 1.181.349.645 0 1.142-.094v2.94q-1.142.35-2.35.35-4.082 0-4.163-4.123v-7.828h-2.121v-2.847h2.121V96.68h3.88z"/></g></g><g transform="translate(403.182 583.403)" style="line-height:125%;-inkscape-font-specification:'Roboto, Bold';text-align:center" font-weight="700" font-size="27.5" font-family="Roboto" letter-spacing="0" word-spacing="0" text-anchor="middle" fill="url(#b)"><path d="M155.485 227.175v6.888h-4.028v-19.55h7.626q2.203 0 3.868.805 1.678.806 2.578 2.296.9 1.477.9 3.37 0 2.874-1.974 4.54-1.96 1.65-5.439 1.65h-3.531zm0-3.263h3.598q1.598 0 2.43-.752.847-.752.847-2.149 0-1.436-.846-2.323-.846-.886-2.337-.913h-3.692v6.137zM177.09 223.173q-.792-.107-1.396-.107-2.203 0-2.887 1.49v9.507h-3.881v-14.529h3.666l.107 1.733q1.168-2.001 3.236-2.001.645 0 1.209.174l-.054 3.733zM177.882 226.664q0-2.161.833-3.853.832-1.692 2.39-2.619 1.571-.926 3.639-.926 2.94 0 4.794 1.8 1.866 1.798 2.08 4.887l.028.993q0 3.344-1.867 5.372-1.866 2.014-5.008 2.014t-5.022-2.014q-1.867-2.015-1.867-5.479v-.175zm3.88.282q0 2.068.78 3.17.779 1.087 2.229 1.087 1.41 0 2.202-1.074.792-1.088.792-3.465 0-2.027-.792-3.142-.792-1.114-2.23-1.114-1.422 0-2.201 1.114-.78 1.101-.78 3.424zM207.155 226.933q0 3.491-1.49 5.452-1.491 1.947-4.163 1.947-2.364 0-3.773-1.813l-.175 1.544h-3.491v-20.625h3.88v7.399q1.343-1.571 3.532-1.571 2.659 0 4.162 1.96 1.518 1.947 1.518 5.492v.215zm-3.88-.282q0-2.202-.7-3.21-.697-1.02-2.08-1.02-1.853 0-2.552 1.518v5.733q.712 1.531 2.578 1.531 1.88 0 2.471-1.853.282-.886.282-2.699zM213.627 234.063h-3.894v-20.625h3.894v20.625zM223.523 234.332q-3.196 0-5.21-1.96-2-1.961-2-5.224v-.376q0-2.189.845-3.908.846-1.732 2.39-2.658 1.558-.94 3.546-.94 2.98 0 4.686 1.88 1.719 1.88 1.719 5.33v1.585h-9.252q.188 1.423 1.128 2.283.953.86 2.403.86 2.243-.001 3.505-1.626l1.907 2.135q-.873 1.236-2.364 1.934-1.49.685-3.303.685zm-.443-11.924q-1.155 0-1.88.779-.711.778-.913 2.229h5.398v-.31q-.027-1.288-.698-1.986-.672-.712-1.907-.712zM235.353 219.534l.12 1.625q1.545-1.893 4.177-1.893 2.806 0 3.854 2.215 1.53-2.215 4.364-2.215 2.363 0 3.518 1.383 1.155 1.37 1.155 4.136v9.278h-3.895v-9.265q0-1.235-.483-1.8-.483-.577-1.705-.577-1.746 0-2.417 1.665l.013 9.977h-3.88v-9.252q0-1.262-.497-1.826-.497-.564-1.692-.564-1.652 0-2.39 1.37v10.272h-3.88v-14.529h3.638zM125.957 268.438h-4.028v-19.55h4.028v19.55zM128.817 261.066q0-3.397 1.518-5.411 1.53-2.014 4.176-2.014 2.121 0 3.504 1.584v-7.412h3.894v20.625h-3.504l-.188-1.544q-1.45 1.813-3.733 1.813-2.565 0-4.122-2.014-1.545-2.028-1.545-5.627zm3.881.282q0 2.041.712 3.129.711 1.088 2.068 1.088 1.799 0 2.537-1.518v-5.733q-.725-1.518-2.51-1.518-2.807 0-2.807 4.552zM151.631 268.707q-3.196 0-5.21-1.96-2-1.961-2-5.224v-.376q0-2.189.845-3.908.846-1.732 2.39-2.658 1.558-.94 3.545-.94 2.981 0 4.687 1.88 1.718 1.88 1.718 5.33v1.585h-9.251q.188 1.423 1.128 2.283.953.859 2.403.859 2.243 0 3.505-1.625l1.907 2.135q-.873 1.236-2.364 1.934-1.49.685-3.303.685zm-.443-11.924q-1.155 0-1.88.779-.712.778-.913 2.229h5.398v-.31q-.027-1.288-.698-1.986-.672-.712-1.907-.712zM163.394 253.91l.12 1.678q1.558-1.947 4.177-1.947 2.31 0 3.437 1.356 1.128 1.356 1.155 4.055v9.386h-3.88v-9.292q0-1.235-.538-1.786-.537-.564-1.786-.564-1.638 0-2.457 1.397v10.245h-3.88V253.91h3.652zM179.883 250.338v3.571h2.484v2.847h-2.484v7.251q0 .806.309 1.155t1.182.349q.644 0 1.14-.094v2.94q-1.14.35-2.349.35-4.082 0-4.163-4.123v-7.828h-2.121v-2.847h2.121v-3.571h3.881zM188.625 268.438h-3.895V253.91h3.895v14.53zm-4.123-18.288q0-.873.578-1.437.59-.564 1.597-.564.994 0 1.585.564.59.564.59 1.437 0 .886-.603 1.45-.591.564-1.572.564-.98 0-1.584-.564-.59-.564-.59-1.45zM192.774 268.438v-11.682h-2.162v-2.847h2.162v-.671q.027-2.74 1.678-4.216 1.665-1.49 4.686-1.49 1.813 0 4.405.791l-.564 3.21q-1.316-.39-2.041-.497-.725-.121-1.558-.121-2.712 0-2.712 2.404v.59h2.86v2.847h-2.86v11.682h-3.894zm12.581 0h-3.894V253.91h3.894v14.53zM214.634 265.578q1.074 0 1.746-.59.671-.592.698-1.572h3.639q-.014 1.477-.806 2.713-.792 1.222-2.175 1.906-1.37.672-3.035.672-3.115 0-4.914-1.974-1.8-1.987-1.8-5.479V261q0-3.357 1.786-5.357 1.786-2.001 4.901-2.001 2.726 0 4.364 1.557 1.652 1.545 1.679 4.123h-3.64q-.026-1.128-.697-1.826-.672-.712-1.773-.712-1.356 0-2.054.994-.685.98-.685 3.195v.403q0 2.243.685 3.223t2.081.98zM231.352 268.438q-.269-.524-.39-1.302-1.41 1.57-3.666 1.57-2.135 0-3.545-1.235-1.396-1.235-1.396-3.115 0-2.31 1.705-3.545 1.72-1.235 4.955-1.249h1.786v-.832q0-1.007-.524-1.611-.51-.605-1.624-.605-.98 0-1.545.47-.55.47-.55 1.29h-3.88q0-1.263.778-2.337.779-1.074 2.202-1.679 1.424-.617 3.196-.617 2.686 0 4.257 1.356 1.584 1.343 1.584 3.787v6.297q.013 2.068.577 3.129v.228h-3.92zm-3.21-2.699q.86 0 1.585-.376.725-.39 1.074-1.034v-2.497h-1.45q-2.914 0-3.102 2.014l-.013.228q0 .725.51 1.195.51.47 1.396.47zM242.349 250.338v3.571h2.484v2.847h-2.484v7.251q0 .806.309 1.155t1.181.349q.645 0 1.142-.094v2.94q-1.142.35-2.35.35-4.082 0-4.163-4.123v-7.828h-2.121v-2.847h2.121v-3.571h3.88zM251.09 268.438h-3.894V253.91h3.894v14.53zm-4.122-18.288q0-.873.577-1.437.591-.564 1.598-.564.994 0 1.585.564.59.564.59 1.437 0 .886-.604 1.45-.59.564-1.57.564-.98 0-1.585-.564-.591-.564-.591-1.45zM253.695 261.04q0-2.162.833-3.854.832-1.692 2.39-2.619 1.571-.926 3.639-.926 2.94 0 4.794 1.8 1.866 1.798 2.08 4.887l.028.993q0 3.344-1.867 5.372-1.866 2.014-5.008 2.014t-5.022-2.014q-1.867-2.015-1.867-5.479v-.175zm3.88.281q0 2.068.78 3.17.779 1.087 2.229 1.087 1.41 0 2.202-1.074.792-1.088.792-3.465 0-2.027-.792-3.142-.792-1.114-2.23-1.114-1.422 0-2.201 1.114-.78 1.101-.78 3.424zM273.448 253.91l.12 1.678q1.558-1.947 4.176-1.947 2.31 0 3.438 1.356 1.128 1.356 1.155 4.055v9.386h-3.88v-9.292q0-1.235-.538-1.786-.537-.564-1.786-.564-1.638 0-2.457 1.397v10.245h-3.88V253.91h3.652z"/></g><g transform="translate(457.849 503.008)" style="line-height:125%;-inkscape-font-specification:'Absolut Pro reduced, Normal';text-align:start" font-weight="400" font-size="17.5" font-family="Absolut Pro reduced" letter-spacing="0" word-spacing="0" fill="url(#c)"><path d="M443.64 536.66h4.734v1.141h-6.365v-1.141q.772-.8 2.101-2.142 1.337-1.35 1.679-1.739.651-.732.906-1.235.262-.51.262-1 0-.8-.564-1.303-.557-.504-1.457-.504-.638 0-1.35.222-.704.222-1.51.671v-1.37q.82-.328 1.53-.496.713-.168 1.303-.168 1.558 0 2.485.779.926.779.926 2.081 0 .618-.235 1.175-.228.55-.84 1.303-.167.194-1.067 1.128-.9.926-2.538 2.598zM454.128 528.67q-1.048 0-1.578 1.034-.524 1.028-.524 3.095 0 2.062.524 3.095.53 1.028 1.578 1.028 1.054 0 1.577-1.028.53-1.033.53-3.095 0-2.067-.53-3.095-.523-1.034-1.577-1.034zm0-1.074q1.685 0 2.571 1.336.893 1.33.893 3.867 0 2.532-.893 3.868-.886 1.329-2.571 1.329-1.686 0-2.579-1.33-.886-1.335-.886-3.867 0-2.537.886-3.867.893-1.336 2.579-1.336zM460.217 536.66h2.216v-7.647l-2.41.483v-1.235l2.396-.484h1.356v8.883h2.216v1.141h-5.774v-1.141zM471.805 532.249q-.913 0-1.45.624-.53.625-.53 1.712 0 1.081.53 1.712.537.625 1.45.625.913 0 1.444-.625.537-.63.537-1.712 0-1.087-.537-1.712-.53-.624-1.444-.624zm2.692-4.25v1.235q-.51-.241-1.033-.369-.517-.128-1.028-.128-1.342 0-2.054.907-.705.906-.806 2.74.396-.585.994-.894.597-.315 1.316-.315 1.51 0 2.383.92.88.913.88 2.49 0 1.544-.913 2.478-.913.933-2.43.933-1.74 0-2.66-1.33-.92-1.335-.92-3.867 0-2.376 1.129-3.786 1.128-1.417 3.028-1.417.51 0 1.027.1.523.102 1.087.303z" style="line-height:125%;-inkscape-font-specification:'Absolut Pro reduced, Normal';text-align:start" font-size="13.75"/><path d="M482.835 528.929c-1.925 0-2.905.612-2.905 2.607 0 1.33.927 2.188 2.082 2.328 1.33.157 2.31.175 2.31 1.487 0 .77-.437 1.225-1.837 1.225-1.068 0-1.628-.63-1.628-.63-.7.35-1.05 1.05-1.05 1.05s.683.928 2.678.928c2.275 0 3.36-.718 3.36-2.748 0-1.557-1.173-2.362-2.433-2.485-1.242-.122-1.96-.175-1.96-1.33 0-.647.438-1.085 1.383-1.085 1.155 0 1.575.525 1.575.525a2.797 2.797 0 0 0 1.05-1.05s-.77-.822-2.625-.822zM487.916 537.801c.245.053.508.07.735.07.455 0 .823-.07.823-.07v-7.385h2.31c.052-.227.07-.472.07-.682 0-.42-.07-.718-.07-.718h-2.31v-2.415l-1.558.35v10.85zM499.74 529.051s-.367-.07-.84-.07c-.227 0-.507.018-.752.07v6.3c0 1.12-.525 1.243-1.662 1.243-1.12 0-1.645-.123-1.645-1.243v-6.3s-.35-.07-.823-.07a4.06 4.06 0 0 0-.77.07v5.968c0 2.502 1.068 2.957 3.238 2.957s3.255-.455 3.255-2.975v-5.95zM505.148 537.941c1.82 0 3.308-.192 3.308-.192V524.64s-.35-.07-.823-.07a4.06 4.06 0 0 0-.77.07v4.498s-.665-.193-1.54-.193c-2.52 0-3.85 1.803-3.85 4.323 0 3.22 1.155 4.672 3.675 4.672zm0-1.347c-1.592 0-2.012-1.208-2.012-3.325 0-1.61.595-2.975 2.187-2.975.875 0 1.54.157 1.54.157v5.968s-.84.175-1.715.175zM512.546 529.051s-.35-.052-.823-.052a6.1 6.1 0 0 0-.77.052v8.75a6.1 6.1 0 0 0 .77.053c.473 0 .823-.053.823-.053v-8.75zm.052-3.115s-.402-.07-.91-.07c-.245 0-.525.018-.787.07 0 0-.07.35-.07.805 0 .228.017.473.07.718.28.052.56.07.805.07.507 0 .892-.07.892-.07s.07-.368.07-.823c0-.227-.017-.472-.07-.7zM514.461 533.181c0 3.045 1.068 4.76 3.588 4.76 2.87 0 3.605-1.715 3.605-4.935 0-2.52-1.085-4.077-3.605-4.077-2.87 0-3.588 1.557-3.588 4.252zm1.61 0c0-1.96.385-2.887 1.978-2.887 1.435 0 1.995 1.277 1.995 2.712 0 2.468-.21 3.57-1.995 3.57-1.593 0-1.978-1.452-1.978-3.395zM530.413 528.929c-1.925 0-2.905.612-2.905 2.607 0 1.33.927 2.188 2.082 2.328 1.33.157 2.31.175 2.31 1.487 0 .77-.437 1.225-1.837 1.225-1.068 0-1.628-.63-1.628-.63-.7.35-1.05 1.05-1.05 1.05s.683.928 2.678.928c2.275 0 3.36-.718 3.36-2.748 0-1.557-1.173-2.362-2.433-2.485-1.242-.122-1.96-.175-1.96-1.33 0-.647.438-1.085 1.383-1.085 1.155 0 1.575.525 1.575.525a2.797 2.797 0 0 0 1.05-1.05s-.77-.822-2.625-.822zM538.802 528.929c-1.82 0-3.308.262-3.308.262v12.495a4.642 4.642 0 0 0 1.592 0v-4.042s.84.192 1.54.192c2.696 0 3.868-1.907 3.868-4.602 0-3.22-1.172-4.305-3.692-4.305zm-.175 7.542c-.875 0-1.54-.175-1.54-.175v-5.932s.665-.088 1.715-.088c1.61 0 2.03.823 2.03 2.958 0 1.767-.42 3.237-2.205 3.237zM548.734 529.051a9.701 9.701 0 0 0-1.575-.122c-1.435 0-2.607.262-2.607.262v8.61a4.642 4.642 0 0 0 1.592 0v-7.385s.525-.07 1.26-.07c.403 0 .875.018 1.33.088 0 0 .07-.315.07-.718 0-.21-.017-.437-.07-.665zM551.716 529.051s-.35-.052-.823-.052a6.1 6.1 0 0 0-.77.052v8.75a6.1 6.1 0 0 0 .77.053c.473 0 .823-.053.823-.053v-8.75zm.052-3.115s-.402-.07-.91-.07c-.245 0-.525.018-.787.07 0 0-.07.35-.07.805 0 .228.017.473.07.718.28.052.56.07.805.07.507 0 .892-.07.892-.07s.07-.368.07-.823c0-.227-.017-.472-.07-.7zM555.851 530.434s.805-.088 1.418-.088c1.662 0 1.872.718 1.872 2.275v5.18c.263.053.525.07.753.07.472 0 .84-.07.84-.07v-5.005c0-2.695-.595-3.867-3.465-3.867-1.838 0-3.01.262-3.01.262v8.61a4.642 4.642 0 0 0 1.592 0v-7.367zM567.942 537.661c0 1.96-.332 2.748-1.82 2.748-1.312 0-2.012-.875-2.012-.875-.665.35-1.033 1.067-1.033 1.067s.858 1.138 3.045 1.138c2.52 0 3.413-1.068 3.413-4.113v-8.522s-1.383-.175-3.133-.175c-2.52 0-3.85 1.872-3.85 4.392 0 3.22 1.155 4.515 3.675 4.515 1.033 0 1.715-.175 1.715-.175zm-1.715-1.172c-1.592 0-2.012-1.05-2.012-3.168 0-1.61.595-3.045 2.187-3.045.875 0 1.54.088 1.54.088v5.95s-.84.175-1.715.175z"/></g></g></svg>