<?xml version="1.0" encoding="UTF-8" standalone="no"?>
<!-- Created with Inkscape (http://www.inkscape.org/) -->
<svg xmlns:rdf="http://www.w3.org/1999/02/22-rdf-syntax-ns#" xmlns="http://www.w3.org/2000/svg" height="204.6" width="204.6" version="1.1" xmlns:cc="http://creativecommons.org/ns#" xmlns:dc="http://purl.org/dc/elements/1.1/">
<metadata>
<rdf:RDF>
<cc:Work rdf:about="">
<dc:format>image/svg+xml</dc:format>
<dc:type rdf:resource="http://purl.org/dc/dcmitype/StillImage"/>
<dc:title/>
</cc:Work>
</rdf:RDF>
</metadata>
<g transform="translate(-66.271434,-130.06219)">
<path fill="#2692a1" d="m172.6,245.4s-4.0365,6.1273-8.094,9.1384c-4.2278,3.1374-9.1384,5.483-12.533,6.2663-3.3942,0.78329-8.6705,1.7081-13.316,0.78329-0.78665-0.1566-5.7441-6.7885-7.5718-10.183-1.8277-3.3943-4.1776-10.966-4.4386-17.755-0.26109-6.7885,1.8277-16.188,5.483-22.454,3.6554-6.2663,11.227-13.055,15.927-15.666,4.6997-2.611,12.01-4.6997,17.755-5.2219,5.7441-0.52219,11.488,0.2611,16.188,1.8277,4.6997,1.5666,10.444,4.9608,13.838,7.8329,3.3942,2.8721,6.9605,7.6462,9.0493,11.04,2.0888,3.3943,4.2666,8.0196,5.0499,12.458,0.78329,4.4386,1.0444,12.272,0,16.971-1.0444,4.6997-2.611,9.9217-5.2219,15.144-2.611,5.2219-4.1775,6.7885-7.5718,11.488-3.3943,4.6997-9.9217,10.966-18.016,16.188-8.094,5.2219-13.838,7.0496-20.627,9.1384-6.7885,2.0888-15.666,2.3499-21.41,2.0888-5.7441-0.2611-9.2848-0.88089-9.2848-0.88089s4.0757,3.3328,9.5459,5.8417c3.2549,1.4929,11.201,4.5721,17.493,5.7441,7.0094,1.3055,13.577,1.5666,19.843,1.0444,6.2663-0.5222,13.577-1.8277,21.671-5.2219,8.094-3.3943,17.232-8.6162,25.326-16.971,8.094-8.3551,12.533-14.621,16.71-27.154,4.1776-12.533,4.9608-19.582,4.1776-29.243-0.78329-9.6606-2.8721-21.41-10.705-33.681-7.8329-12.272-14.621-18.799-24.021-24.543-9.3995-5.7441-13.577-7.3107-22.976-9.3995-9.3995-2.0888-19.843-2.3499-30.026-0.52219s-14.621,3.9164-21.932,8.094c-7.3107,4.1776-15.144,10.183-19.843,15.927-4.6997,5.7441-9.8961,11.755-12.533,22.715-1.9741,8.2062-2.3987,19.364-1.3055,24.282,1.6672,7.5005,4.2532,12.628,6.5274,16.449,1.7044,2.8635,5.7441,7.8329,9.1384,10.183,3.3942,2.3499,7.8329,5.7441,13.055,7.5718,5.2219,1.8277,9.6606,2.611,15.405,2.0888,5.7441-0.52219,10.183-1.0444,15.927-3.6554,5.7441-2.611,9.3995-4.6997,13.838-9.9217,4.4386-5.2219,5.7441-7.5718,7.5718-12.533,1.8277-4.9608,2.3499-7.0496,1.8277-10.444-0.52219-3.3942-2.2919-6.6798-6.0052-9.3995-3.1447-2.3032-8.266-3.0758-11.488-2.0888-4.1848,1.2819-7.3107,3.6554-8.8773,6.7885-1.5666,3.1332-1.8277,6.5274-1.0444,9.9217,0.78329,3.3942,1.8277,5.2219,4.4386,7.5718,2.611,2.3499,5.2219,3.1332,7.8329,3.3943,2.611,0.26109,5.2219-1.0444,5.2219-1.0444zm98.275-13.043c0,56.499-45.801,102.3-102.3,102.3s-102.3-45.801-102.3-102.3,45.801-102.3,102.3-102.3,102.3,45.801,102.3,102.3z"/>
</g>
</svg>
