<?xml version="1.0" encoding="UTF-8" standalone="no"?>
<svg
   xmlns:osb="http://www.openswatchbook.org/uri/2009/osb"
   xmlns:dc="http://purl.org/dc/elements/1.1/"
   xmlns:cc="http://creativecommons.org/ns#"
   xmlns:rdf="http://www.w3.org/1999/02/22-rdf-syntax-ns#"
   xmlns:svg="http://www.w3.org/2000/svg"
   xmlns="http://www.w3.org/2000/svg"
   version="1.1"
   id="svg3821"
   height="204.59999"
   width="204.59999">
  <defs
     id="defs3823">
    <linearGradient
       id="linearGradient4343"
       osb:paint="solid"
       gradientTransform="matrix(0.50696521,0,0,0.50696521,177.82527,-1340.8225)">
      <stop
         style="stop-color:#da3d0a;stop-opacity:1;"
         offset="0"
         id="stop4345" />
    </linearGradient>
    <linearGradient
       id="linearGradient5866"
       osb:paint="solid">
      <stop
         style="stop-color:#2563a0;stop-opacity:1;"
         offset="0"
         id="stop5868" />
    </linearGradient>
    <linearGradient
       id="linearGradient5830"
       osb:paint="solid"
       gradientTransform="matrix(0.64,0,0,0.64,-636.21738,-1264.4011)">
      <stop
         style="stop-color:#ffffff;stop-opacity:1;"
         offset="0"
         id="stop5832" />
    </linearGradient>
    <clipPath
       clipPathUnits="userSpaceOnUse"
       id="clipPath4206">
      <path
         d="m 0,858.897 612.288,0 L 612.288,0 0,0 0,858.897 Z"
         id="path4208" />
    </clipPath>
    <clipPath
       clipPathUnits="userSpaceOnUse"
       id="clipPath4392">
      <path
         d="m 0,858.897 612.288,0 L 612.288,0 0,0 0,858.897 Z"
         id="path4394" />
    </clipPath>
    <clipPath
       clipPathUnits="userSpaceOnUse"
       id="clipPath4412">
      <path
         d="m 310.523,820.391 5.461,0 0,9.995 -5.461,0 0,-9.995 z"
         id="path4414" />
    </clipPath>
    <clipPath
       clipPathUnits="userSpaceOnUse"
       id="clipPath4424">
      <path
         d="m 0,858.897 612.288,0 L 612.288,0 0,0 0,858.897 Z"
         id="path4426" />
    </clipPath>
    <clipPath
       clipPathUnits="userSpaceOnUse"
       id="clipPath4558">
      <path
         d="m 0,858.897 612.288,0 L 612.288,0 0,0 0,858.897 Z"
         id="path4560" />
    </clipPath>
    <clipPath
       clipPathUnits="userSpaceOnUse"
       id="clipPath12196">
      <circle
         r="74.503761"
         cy="-710.3988"
         cx="118.63007"
         id="circle12198"
         style="opacity:1;fill:url(#linearGradient4343);fill-opacity:1;fill-rule:nonzero;stroke:none;stroke-width:5.4128747;stroke-miterlimit:4;stroke-dasharray:none;stroke-dashoffset:0;stroke-opacity:1" />
    </clipPath>
    <clipPath
       clipPathUnits="userSpaceOnUse"
       id="clipPath12196-6">
      <circle
         r="74.503761"
         cy="-710.3988"
         cx="118.63007"
         id="circle12198-5"
         style="opacity:1;fill:url(#linearGradient4343);fill-opacity:1;fill-rule:nonzero;stroke:none;stroke-width:5.4128747;stroke-miterlimit:4;stroke-dasharray:none;stroke-dashoffset:0;stroke-opacity:1" />
    </clipPath>
  </defs>
  <metadata
     id="metadata3826">
    <rdf:RDF>
      <cc:Work
         rdf:about="">
        <dc:format>image/svg+xml</dc:format>
        <dc:type
           rdf:resource="http://purl.org/dc/dcmitype/StillImage" />
        <dc:title></dc:title>
      </cc:Work>
    </rdf:RDF>
  </metadata>
  <g
     transform="translate(-66.271434,-130.06219)"
     id="layer1">
    <path
       d="m 172.59616,245.40486 c 0,0 -4.03648,6.12728 -8.09399,9.13838 -4.22775,3.13744 -9.13838,5.48303 -12.53264,6.26632 -3.39425,0.78329 -8.67046,1.70808 -13.31592,0.78329 -0.78665,-0.1566 -5.74413,-6.78851 -7.5718,-10.18277 -1.82768,-3.39426 -4.17755,-10.96606 -4.43865,-17.75457 -0.26109,-6.78851 1.82768,-16.18798 5.48303,-22.4543 3.65536,-6.26632 11.22716,-13.05483 15.9269,-15.6658 4.69973,-2.61096 12.01044,-4.69974 17.75456,-5.22193 5.74412,-0.52219 11.48825,0.2611 16.18799,1.82768 4.69974,1.56658 10.44386,4.96083 13.83812,7.83289 3.39425,2.87207 6.96054,7.64624 9.04931,11.04049 2.08877,3.39426 4.26661,8.01957 5.0499,12.4582 0.78329,4.43864 1.04439,12.27154 0,16.97128 -1.04438,4.69974 -2.61096,9.92167 -5.22193,15.14361 -2.61096,5.22193 -4.17754,6.78851 -7.5718,11.48825 -3.39426,4.69974 -9.92167,10.96605 -18.01567,16.18799 -8.09399,5.22193 -13.83811,7.0496 -20.62662,9.13838 -6.78851,2.08877 -15.6658,2.34987 -21.40992,2.08877 -5.74413,-0.2611 -9.28479,-0.88089 -9.28479,-0.88089 0,0 4.07571,3.33279 9.54588,5.84173 3.25494,1.4929 11.20083,4.57212 17.49348,5.74412 7.00935,1.30548 13.57702,1.56658 19.84333,1.04439 6.26632,-0.5222 13.57703,-1.82768 21.67102,-5.22193 8.09399,-3.39426 17.23238,-8.61619 25.32637,-16.97128 8.094,-8.3551 12.53264,-14.62141 16.71018,-27.15405 4.17755,-12.53264 4.96084,-19.58225 4.17755,-29.24282 -0.78329,-9.66057 -2.87206,-21.40991 -10.70496,-33.68146 -7.8329,-12.27154 -14.62141,-18.79895 -24.02089,-24.54308 -9.39948,-5.74412 -13.57702,-7.3107 -22.9765,-9.39948 -9.39948,-2.08877 -19.84333,-2.34987 -30.0261,-0.52219 -10.18277,1.82768 -14.62141,3.91645 -21.93212,8.09399 -7.3107,4.17755 -15.1436,10.18277 -19.84334,15.9269 -4.69974,5.74412 -9.89613,11.75546 -12.53264,22.71541 -1.974076,8.20623 -2.398666,19.36385 -1.305476,24.28197 1.667176,7.50046 4.253216,12.62838 6.527416,16.44909 1.70444,2.86351 5.74412,7.8329 9.13838,10.18277 3.39425,2.34987 7.83289,5.74412 13.05483,7.5718 5.22193,1.82767 9.66057,2.61096 15.4047,2.08877 5.74412,-0.52219 10.18276,-1.04439 15.92689,-3.65535 5.74413,-2.61097 9.39947,-4.69974 13.83811,-9.92167 4.43864,-5.22194 5.74413,-7.5718 7.5718,-12.53264 1.82768,-4.96084 2.34987,-7.04961 1.82768,-10.44387 -0.52219,-3.39425 -2.29189,-6.67975 -6.00522,-9.39947 -3.1447,-2.30324 -8.26603,-3.07581 -11.48824,-2.08877 -4.18484,1.28191 -7.31071,3.65535 -8.87729,6.78851 -1.56658,3.13315 -1.82768,6.52741 -1.04439,9.92167 0.78329,3.39425 1.82768,5.22193 4.43865,7.5718 2.61096,2.34987 5.22193,3.13316 7.83289,3.39426 2.61096,0.26109 5.22193,-1.04439 5.22193,-1.04439 z m 98.27526,-13.04267 c 0,56.49872 -45.80127,102.29999 -102.29999,102.29999 -56.49873,0 -102.299996,-45.80127 -102.299996,-102.29999 0,-56.49873 45.801266,-102.3 102.299996,-102.3 56.49872,0 102.29999,45.80127 102.29999,102.3 z"
       style="fill:url(#linearGradient5830);fill-opacity:1;stroke:none"
       id="path3792" />
  </g>
</svg>
