<svg xmlns:osb="http://www.openswatchbook.org/uri/2009/osb" xmlns="http://www.w3.org/2000/svg" height="204.6" width="204.6"><defs><linearGradient id="a" osb:paint="solid" gradientTransform="translate(177.825 -1340.822) scale(.50697)"><stop offset="0" stop-color="#da3d0a"/></linearGradient></defs><path d="M172.596 245.405s-4.036 6.127-8.094 9.138c-4.228 3.138-9.138 5.483-12.532 6.267-3.395.783-8.67 1.708-13.316.783-.787-.157-5.745-6.789-7.572-10.183-1.828-3.394-4.178-10.966-4.439-17.754-.26-6.789 1.828-16.188 5.483-22.455 3.656-6.266 11.227-13.055 15.927-15.666 4.7-2.61 12.01-4.7 17.755-5.222 5.744-.522 11.488.262 16.188 1.828 4.7 1.567 10.444 4.961 13.838 7.833 3.394 2.872 6.96 7.646 9.05 11.04 2.088 3.395 4.266 8.02 5.049 12.459.783 4.438 1.044 12.271 0 16.971-1.044 4.7-2.611 9.922-5.222 15.144-2.61 5.222-4.177 6.788-7.572 11.488-3.394 4.7-9.921 10.966-18.015 16.188-8.094 5.222-13.839 7.05-20.627 9.138-6.789 2.089-15.666 2.35-21.41 2.089-5.744-.261-9.285-.88-9.285-.88s4.076 3.332 9.546 5.84c3.255 1.494 11.201 4.573 17.494 5.745 7.009 1.305 13.577 1.567 19.843 1.044 6.266-.522 13.577-1.827 21.671-5.222 8.094-3.394 17.232-8.616 25.326-16.97 8.094-8.356 12.533-14.622 16.71-27.155 4.178-12.533 4.961-19.582 4.178-29.243-.783-9.66-2.872-21.41-10.705-33.681-7.833-12.272-14.621-18.8-24.02-24.543-9.4-5.744-13.578-7.31-22.977-9.4-9.4-2.088-19.844-2.35-30.026-.522-10.183 1.828-14.622 3.917-21.933 8.094-7.31 4.178-15.143 10.183-19.843 15.927-4.7 5.744-9.896 11.755-12.532 22.715-1.975 8.207-2.4 19.364-1.306 24.282 1.667 7.5 4.253 12.629 6.527 16.45 1.705 2.863 5.745 7.832 9.139 10.182 3.394 2.35 7.833 5.744 13.055 7.572 5.222 1.828 9.66 2.611 15.404 2.089 5.744-.522 10.183-1.045 15.927-3.656 5.744-2.61 9.4-4.7 13.838-9.921 4.439-5.222 5.744-7.572 7.572-12.533 1.828-4.96 2.35-7.05 1.828-10.444-.522-3.394-2.292-6.68-6.005-9.4-3.145-2.302-8.266-3.075-11.489-2.088-4.184 1.282-7.31 3.655-8.877 6.789-1.566 3.133-1.828 6.527-1.044 9.921.783 3.394 1.827 5.222 4.438 7.572 2.611 2.35 5.222 3.133 7.833 3.394 2.611.261 5.222-1.044 5.222-1.044zm98.275-13.043c0 56.499-45.8 102.3-102.3 102.3-56.498 0-102.3-45.801-102.3-102.3 0-56.499 45.802-102.3 102.3-102.3 56.5 0 102.3 45.801 102.3 102.3z" fill="url(#a)" transform="translate(-66.271 -130.062)"/></svg>