<svg xmlns="http://www.w3.org/2000/svg" xmlns:xlink="http://www.w3.org/1999/xlink" width="562.42" height="905.33"><g transform="translate(-559 -140)"><path d="M1013 188c0 15.46-13.43 28-30 28s-30-12.54-30-28 13.43-28 30-28 30 12.54 30 28z" stroke="#498a44" stroke-width="2" fill="#498a44"/><use xlink:href="#a" transform="matrix(1,0,0,1,958,165) translate(13.148148148148147 30.11111111111111)"/><path d="M978.56 259.3c2.45-1.27 6.43-1.27 8.88 0l109.54 56.9c2.45 1.27 2.45 3.33 0 4.6l-109.54 56.9c-2.45 1.27-6.43 1.27-8.88 0l-109.54-56.9c-2.45-1.27-2.45-3.33 0-4.6z" stroke="#666" stroke-width="2" fill="#fff"/><use xlink:href="#b" transform="matrix(1,0,0,1,869.5833333333333,262) translate(29.148148148148977 47.6111111111112)"/><use xlink:href="#c" transform="matrix(1,0,0,1,869.5833333333333,262) translate(98.22222222222237 47.6111111111112)"/><use xlink:href="#d" transform="matrix(1,0,0,1,869.5833333333333,262) translate(73.5000000000004 74.2777777777776)"/><path d="M983.33 216.92v20.38c0 .06.05.1.12.1.06 0 .1.06.1.13v20.38" stroke="#999" stroke-width="2" fill="none"/><path d="M983 216l1.33-.05v.97h-2v-.98zM983.56 257.9l-4.64-14.26h9.27z" fill="#999"/><path d="M984.43 258.46l-1.77-.1-5.1-15.72h12zm-4.13-13.82l3.26 10.03 3.26-10.03z" fill="#999"/><path d="M637 644c0-2.76 2.24-5 5-5h180c2.76 0 5 2.24 5 5v45c0 2.76-2.24 5-5 5H642c-2.76 0-5-2.24-5-5z" stroke="#666" stroke-width="2" fill="#fff"/><use xlink:href="#e" transform="matrix(1,0,0,1,642,644) translate(13.02469135802545 26.9444444444444)"/><use xlink:href="#f" transform="matrix(1,0,0,1,642,644) translate(58.58024691358055 26.9444444444444)"/><use xlink:href="#g" transform="matrix(1,0,0,1,642,644) translate(85.61728395061732 26.9444444444444)"/><path d="M978.14 416.42c2.5-1.17 6.55-1.17 9.06 0l81.6 38.1c2.5 1.18 2.5 3.08 0 4.25l-81.6 38.1c-2.5 1.18-6.56 1.18-9.06 0l-81.6-38.1c-2.5-1.17-2.5-3.07 0-4.24z" stroke="#666" stroke-width="2" fill="#fff"/><use xlink:href="#h" transform="matrix(1,0,0,1,897,419.2994433527929) translate(21.43209876543274 41.9444444444444)"/><use xlink:href="#i" transform="matrix(1,0,0,1,897,419.2994433527929) translate(68.16049382716068 41.9444444444444)"/><path d="M983 639v201.5" stroke="#999" stroke-width="2" fill="none"/><path d="M983.37 637.54l.63-.1V639h-2v-1.55zM983 840.5l-4.64-14.27h9.28z" fill="#999"/><path d="M984.05 840.5h-2.1L977 825.23h12zm-4.3-13.27l3.25 10.03 3.26-10.03z" fill="#999"/><path d="M978.66 561.48c2.4-1.37 6.28-1.37 8.68 0l61.32 35.04c2.4 1.37 2.4 3.6 0 4.96l-61.32 35.04c-2.4 1.37-6.28 1.37-8.68 0l-61.32-35.04c-2.4-1.37-2.4-3.6 0-4.96z" stroke="#666" stroke-width="2" fill="#fff"/><use xlink:href="#j" transform="matrix(1,0,0,1,918,564.0000000000016) translate(39.75308641975334 39.4444444444444)"/><path d="M983 639v22.5c0 2.76-2.24 5-5 5H827" stroke="#999" stroke-width="2" fill="none"/><path d="M983.37 637.54l.63-.1V639h-2v-1.55zM841.27 671.14L827 666.5l14.27-4.64z" fill="#999"/><path d="M842.27 672.5L827 667.56v-2.1l15.27-4.96zm-12.03-6l10.03 3.26v-6.52z" fill="#999"/><path fill="#fff" d="M909.6 653.17h50.5v26.67h-50.5z"/><use xlink:href="#j" transform="matrix(1,0,0,1,909.5911945559087,653.1666666666667) translate(0.004999999999999005 17.7777777777776)"/><path d="M913 599H575c-2.76 0-5-2.24-5-5V235c0-2.76 2.24-5 5-5h403c2.76 0 5 2.24 5 5v22" stroke="#999" stroke-width="2" fill="none"/><path d="M916 598.16l-.4 1.36.4.44v.04h-3v-2h3zM983 257l-4.64-14.27h9.28z" fill="#999"/><path d="M983.6 258.4l-1.07-.04-.13.02-5.4-16.65h12zm-3.86-14.67l3.26 10.03 3.26-10.03z" fill="#999"/><path fill="#fff" d="M720.6 585.67h109.8v26.67H720.6z"/><use xlink:href="#k" transform="matrix(1,0,0,1,720.5864506626444,585.6666666666683) translate(0.005000000000002558 17.7777777777776)"/><use xlink:href="#l" transform="matrix(1,0,0,1,720.5864506626444,585.6666666666683) translate(59.3259876543204 17.7777777777776)"/><path d="M895.62 456.65H575c-2.76 0-5-2.24-5-5V235c0-2.76 2.24-5 5-5h403c2.76 0 5 2.24 5 5v22M895.62 456.65h3" stroke="#999" stroke-width="2" fill="none"/><path d="M983 257l-4.64-14.27h9.28z" fill="#999"/><path d="M983.6 258.4l-1.07-.04-.13.02-5.4-16.65h12zm-3.86-14.67l3.26 10.03 3.26-10.03z" fill="#999"/><use xlink:href="#m" transform="matrix(1,0,0,1,774.9012345679018,425.9830550097301) translate(0.005000000000002558 17.7777777777776)"/><use xlink:href="#n" transform="matrix(1,0,0,1,774.9012345679018,425.9830550097301) translate(56.980308641974744 17.7777777777776)"/><path d="M982.67 499v60.46" stroke="#999" stroke-width="2" fill="none"/><path d="M983.24 497.75l.43-.05v1.3h-2v-1.3zM982.67 559.46l-4.64-14.27h9.27z" fill="#999"/><path d="M983.38 560.5l-.75-.04-.66.1-5.32-16.37h12.03zm-3.97-14.3l3.27 10.02 3.26-10.03z" fill="#999"/><path fill="#fff" d="M962.4 509.38h40.56v26.67H962.4z"/><use xlink:href="#o" transform="matrix(1,0,0,1,962.3888888888891,509.3829205579015) translate(0.004999999999999005 17.7777777777776)"/><path d="M732 694v66" stroke="#999" stroke-width="2" fill="none"/><path d="M732 760l-4.64-14.27h9.28z" fill="#999"/><path d="M733.05 760h-2.1L726 744.73h12zm-4.3-13.27l3.25 10.03 3.26-10.03z" fill="#999"/><path d="M983 378.27v36.3M983 378.27v-3" stroke="#999" stroke-width="2" fill="none"/><path d="M983 414.58l-4.64-14.26h9.28z" fill="#999"/><path d="M983.72 415.6l-1.46-.04-5.27-16.24h12zm-3.98-14.28l3.26 10.03 3.26-10.03z" fill="#999"/><path d="M1018.5 991.17c0 18.87-15.9 34.16-35.5 34.16s-35.5-15.3-35.5-34.16c0-18.87 15.9-34.17 35.5-34.17s35.5 15.3 35.5 34.17z" stroke="#9b0d28" stroke-width="2" fill="#9b0d28"/><use xlink:href="#p" transform="matrix(1,0,0,1,952.5,962) translate(20.623456790123456 36.611111111111114)"/><path d="M637 765c0-2.76 2.24-5 5-5h180c2.76 0 5 2.24 5 5v45c0 2.76-2.24 5-5 5H642c-2.76 0-5-2.24-5-5z" stroke="#666" stroke-width="2" fill="#fff"/><use xlink:href="#q" transform="matrix(1,0,0,1,642,765) translate(16.63580246913652 26.9444444444444)"/><use xlink:href="#r" transform="matrix(1,0,0,1,642,765) translate(82.00617283950625 26.9444444444444)"/><path d="M888 845.5c0-2.76 2.24-5 5-5h180c2.76 0 5 2.24 5 5v45c0 2.76-2.24 5-5 5H893c-2.76 0-5-2.24-5-5z" stroke="#666" stroke-width="2" fill="#fff"/><use xlink:href="#s" transform="matrix(1,0,0,1,893,845.5) translate(25.27777777777841 26.9444444444444)"/><path d="M983 895.5V956" stroke="#999" stroke-width="2" fill="none"/><path d="M983 956l-4.64-14.27h9.28z" fill="#999"/><path d="M983.7 957.05l-.7-.05h-.72l-5.3-16.27h12.03zm-3.96-14.32l3.26 10.03 3.26-10.03z" fill="#999"/><path d="M637 666.5h-62c-2.76 0-5-2.24-5-5V235c0-2.76 2.24-5 5-5h403c2.76 0 5 2.24 5 5v22" stroke="#999" stroke-width="2" fill="none"/><path d="M983 257l-4.64-14.27h9.28z" fill="#999"/><path d="M983.6 258.4l-1.07-.04-.13.02-5.4-16.65h12zm-3.86-14.67l3.26 10.03 3.26-10.03z" fill="#999"/><path d="M888 868H575c-2.76 0-5-2.24-5-5V235c0-2.76 2.24-5 5-5h403c2.76 0 5 2.24 5 5v22" stroke="#999" stroke-width="2" fill="none"/><path d="M983 257l-4.64-14.27h9.28z" fill="#999"/><path d="M983.6 258.4l-1.07-.04-.13.02-5.4-16.65h12zm-3.86-14.67l3.26 10.03 3.26-10.03z" fill="#999"/><path d="M637 787.5h-62c-2.76 0-5-2.24-5-5V235c0-2.76 2.24-5 5-5h403c2.76 0 5 2.24 5 5v22" stroke="#999" stroke-width="2" fill="none"/><path d="M983 257l-4.64-14.27h9.28z" fill="#999"/><path d="M983.6 258.4l-1.07-.04-.13.02-5.4-16.65h12zm-3.86-14.67l3.26 10.03 3.26-10.03z" fill="#999"/><path d="M827 787.5h151c2.76 0 5 2.24 5 5v48" stroke="#999" stroke-width="2" fill="none"/><path d="M983 840.5l-4.64-14.27h9.28z" fill="#999"/><path d="M984.05 840.5h-2.1L977 825.23h12zm-4.3-13.27l3.25 10.03 3.26-10.03z" fill="#999"/><path d="M732 694v31c0 2.76 2.24 5 5 5h241c2.76 0 5 2.24 5 5v105.5" stroke="#999" stroke-width="2" fill="none"/><path d="M983 840.5l-4.64-14.27h9.28z" fill="#999"/><path d="M984.05 840.5h-2.1L977 825.23h12zm-4.3-13.27l3.25 10.03 3.26-10.03z" fill="#999"/><defs><path fill="#fff" d="M169-182c-1-43-94-46-97-3 18 66 151 10 154 114 3 95-165 93-204 36-6-8-10-19-12-30l50-8c3 46 112 56 116 5-17-69-150-10-154-114-4-87 153-88 188-35 5 8 8 18 10 28" id="t"/><use transform="matrix(0.09876543209876544,0,0,0.09876543209876544,0,0)" xlink:href="#t" id="a"/><path fill="#333" d="M137-138c1-29-70-34-71-4 15 46 118 7 119 86 1 83-164 76-172 9l43-7c4 19 20 25 44 25 33 8 57-30 24-41C81-84 22-81 20-136c-2-80 154-74 161-7" id="u"/><path fill="#333" d="M185-48c-13 30-37 53-82 52C43 2 14-33 14-96s30-98 90-98c62 0 83 45 84 108H66c0 31 8 55 39 56 18 0 30-7 34-22zm-45-69c5-46-57-63-70-21-2 6-4 13-4 21h74" id="v"/><path fill="#333" d="M25 0v-261h50V0H25" id="w"/><path fill="#333" d="M190-63c-7 42-38 67-86 67-59 0-84-38-90-98-12-110 154-137 174-36l-49 2c-2-19-15-32-35-32-30 0-35 28-38 64-6 74 65 87 74 30" id="x"/><path fill="#333" d="M115-3C79 11 28 4 28-45v-112H4v-33h27l15-45h31v45h36v33H77v99c-1 23 16 31 38 25v30" id="y"/><g id="b"><use transform="matrix(0.06172839506172778,0,0,0.06172839506172778,0,0)" xlink:href="#u"/><use transform="matrix(0.06172839506172778,0,0,0.06172839506172778,12.345679012345556,0)" xlink:href="#v"/><use transform="matrix(0.06172839506172778,0,0,0.06172839506172778,24.691358024691112,0)" xlink:href="#w"/><use transform="matrix(0.06172839506172778,0,0,0.06172839506172778,30.86419753086389,0)" xlink:href="#v"/><use transform="matrix(0.06172839506172778,0,0,0.06172839506172778,43.20987654320945,0)" xlink:href="#x"/><use transform="matrix(0.06172839506172778,0,0,0.06172839506172778,55.555555555555,0)" xlink:href="#y"/></g><path fill="#333" d="M114-157C55-157 80-60 75 0H25v-261h50l-1 109c12-26 28-41 61-42 86-1 58 113 63 194h-50c-7-57 23-157-34-157" id="z"/><path fill="#333" d="M110-194c64 0 96 36 96 99 0 64-35 99-97 99-61 0-95-36-95-99 0-62 34-99 96-99zm-1 164c35 0 45-28 45-65 0-40-10-65-43-65-34 0-45 26-45 65 0 36 10 65 43 65" id="A"/><path fill="#333" d="M135-194c53 0 70 44 70 98 0 56-19 98-73 100-31 1-45-17-59-34 3 33 2 69 2 105H25l-1-265h48c2 10 0 23 3 31 11-24 29-35 60-35zM114-30c33 0 39-31 40-66 0-38-9-64-40-64-56 0-55 130 0 130" id="B"/><path fill="#333" d="M25-224v-37h50v37H25zM25 0v-190h50V0H25" id="C"/><path fill="#333" d="M135-194c87-1 58 113 63 194h-50c-7-57 23-157-34-157-59 0-34 97-39 157H25l-1-190h47c2 12-1 28 3 38 12-26 28-41 61-42" id="D"/><path fill="#333" d="M195-6C206 82 75 100 31 46c-4-6-6-13-8-21l49-6c3 16 16 24 34 25 40 0 42-37 40-79-11 22-30 35-61 35-53 0-70-43-70-97 0-56 18-96 73-97 30 0 46 14 59 34l2-30h47zm-90-29c32 0 41-27 41-63 0-35-9-62-40-62-32 0-39 29-40 63 0 36 9 62 39 62" id="E"/><g id="c"><use transform="matrix(0.06172839506172778,0,0,0.06172839506172778,0,0)" xlink:href="#u"/><use transform="matrix(0.06172839506172778,0,0,0.06172839506172778,12.345679012345556,0)" xlink:href="#z"/><use transform="matrix(0.06172839506172778,0,0,0.06172839506172778,25.86419753086394,0)" xlink:href="#A"/><use transform="matrix(0.06172839506172778,0,0,0.06172839506172778,39.382716049382324,0)" xlink:href="#B"/><use transform="matrix(0.06172839506172778,0,0,0.06172839506172778,52.90123456790071,0)" xlink:href="#B"/><use transform="matrix(0.06172839506172778,0,0,0.06172839506172778,66.41975308641909,0)" xlink:href="#C"/><use transform="matrix(0.06172839506172778,0,0,0.06172839506172778,72.59259259259187,0)" xlink:href="#D"/><use transform="matrix(0.06172839506172778,0,0,0.06172839506172778,86.11111111111026,0)" xlink:href="#E"/></g><path fill="#333" d="M220-157c-53 9-28 100-34 157h-49v-107c1-27-5-49-29-50C55-147 81-57 75 0H25l-1-190h47c2 12-1 28 3 38 10-53 101-56 108 0 13-22 24-43 59-42 82 1 51 116 57 194h-49v-107c-1-25-5-48-29-50" id="F"/><path fill="#333" d="M88-194c31-1 46 15 58 34l-1-101h50l1 261h-48c-2-10 0-23-3-31C134-8 116 4 84 4 32 4 16-41 15-95c0-56 19-97 73-99zm17 164c33 0 40-30 41-66 1-37-9-64-41-64s-38 30-39 65c0 43 13 65 39 65" id="G"/><g id="d"><use transform="matrix(0.06172839506172778,0,0,0.06172839506172778,0,0)" xlink:href="#F"/><use transform="matrix(0.06172839506172778,0,0,0.06172839506172778,19.75308641975289,0)" xlink:href="#v"/><use transform="matrix(0.06172839506172778,0,0,0.06172839506172778,32.098765432098446,0)" xlink:href="#y"/><use transform="matrix(0.06172839506172778,0,0,0.06172839506172778,39.44444444444405,0)" xlink:href="#z"/><use transform="matrix(0.06172839506172778,0,0,0.06172839506172778,52.962962962962436,0)" xlink:href="#A"/><use transform="matrix(0.06172839506172778,0,0,0.06172839506172778,66.48148148148081,0)" xlink:href="#G"/></g><path fill="#333" d="M133-34C117-15 103 5 69 4 32 3 11-16 11-54c-1-60 55-63 116-61 1-26-3-47-28-47-18 1-26 9-28 27l-52-2c7-38 36-58 82-57s74 22 75 68l1 82c-1 14 12 18 25 15v27c-30 8-71 5-69-32zm-48 3c29 0 43-24 42-57-32 0-66-3-65 30 0 17 8 27 23 27" id="H"/><g id="e"><use transform="matrix(0.06172839506172778,0,0,0.06172839506172778,0,0)" xlink:href="#H"/><use transform="matrix(0.06172839506172778,0,0,0.06172839506172778,12.345679012345556,0)" xlink:href="#G"/><use transform="matrix(0.06172839506172778,0,0,0.06172839506172778,25.86419753086394,0)" xlink:href="#G"/></g><g id="f"><use transform="matrix(0.06172839506172778,0,0,0.06172839506172778,0,0)" xlink:href="#y"/><use transform="matrix(0.06172839506172778,0,0,0.06172839506172778,7.345679012345606,0)" xlink:href="#A"/></g><path fill="#333" d="M231 0h-52l-39-155L100 0H48L-1-190h46L77-45c9-52 24-97 36-145h53l37 145 32-145h46" id="I"/><g id="g"><use transform="matrix(0.06172839506172778,0,0,0.06172839506172778,0,0)" xlink:href="#I"/><use transform="matrix(0.06172839506172778,0,0,0.06172839506172778,17.28395061728378,0)" xlink:href="#C"/><use transform="matrix(0.06172839506172778,0,0,0.06172839506172778,23.456790123456557,0)" xlink:href="#u"/><use transform="matrix(0.06172839506172778,0,0,0.06172839506172778,35.80246913580211,0)" xlink:href="#z"/><use transform="matrix(0.06172839506172778,0,0,0.06172839506172778,49.3209876543205,0)" xlink:href="#w"/><use transform="matrix(0.06172839506172778,0,0,0.06172839506172778,55.493827160493275,0)" xlink:href="#C"/><use transform="matrix(0.06172839506172778,0,0,0.06172839506172778,61.66666666666605,0)" xlink:href="#u"/><use transform="matrix(0.06172839506172778,0,0,0.06172839506172778,74.01234567901162,0)" xlink:href="#y"/></g><path fill="#333" d="M121-226c-27-7-43 5-38 36h38v33H83V0H34v-157H6v-33h28c-9-59 32-81 87-68v32" id="J"/><g id="h"><use transform="matrix(0.06172839506172778,0,0,0.06172839506172778,0,0)" xlink:href="#J"/><use transform="matrix(0.06172839506172778,0,0,0.06172839506172778,7.345679012345606,0)" xlink:href="#C"/><use transform="matrix(0.06172839506172778,0,0,0.06172839506172778,13.518518518518384,0)" xlink:href="#D"/><use transform="matrix(0.06172839506172778,0,0,0.06172839506172778,27.037037037036768,0)" xlink:href="#G"/></g><path fill="#333" d="M135-150c-39-12-60 13-60 57V0H25l-1-190h47c2 13-1 29 3 40 6-28 27-53 61-41v41" id="K"/><path fill="#333" d="M85 4C-2 5 27-109 22-190h50c7 57-23 150 33 157 60-5 35-97 40-157h50l1 190h-47c-2-12 1-28-3-38-12 25-28 42-61 42" id="L"/><g id="i"><use transform="matrix(0.06172839506172778,0,0,0.06172839506172778,0,0)" xlink:href="#B"/><use transform="matrix(0.06172839506172778,0,0,0.06172839506172778,13.518518518518384,0)" xlink:href="#K"/><use transform="matrix(0.06172839506172778,0,0,0.06172839506172778,22.160493827160273,0)" xlink:href="#A"/><use transform="matrix(0.06172839506172778,0,0,0.06172839506172778,35.67901234567866,0)" xlink:href="#G"/><use transform="matrix(0.06172839506172778,0,0,0.06172839506172778,49.19753086419704,0)" xlink:href="#L"/><use transform="matrix(0.06172839506172778,0,0,0.06172839506172778,62.716049382715426,0)" xlink:href="#x"/><use transform="matrix(0.06172839506172778,0,0,0.06172839506172778,75.06172839506098,0)" xlink:href="#y"/></g><g id="j"><use transform="matrix(0.06172839506172778,0,0,0.06172839506172778,0,0)" xlink:href="#I"/><use transform="matrix(0.06172839506172778,0,0,0.06172839506172778,17.28395061728378,0)" xlink:href="#H"/><use transform="matrix(0.06172839506172778,0,0,0.06172839506172778,29.629629629629335,0)" xlink:href="#D"/><use transform="matrix(0.06172839506172778,0,0,0.06172839506172778,43.14814814814772,0)" xlink:href="#y"/></g><path fill="#333" d="M62-158H24l-5-90h48" id="M"/><g id="k"><use transform="matrix(0.06172839506172778,0,0,0.06172839506172778,0,0)" xlink:href="#G"/><use transform="matrix(0.06172839506172778,0,0,0.06172839506172778,13.518518518518384,0)" xlink:href="#A"/><use transform="matrix(0.06172839506172778,0,0,0.06172839506172778,27.037037037036768,0)" xlink:href="#D"/><use transform="matrix(0.06172839506172778,0,0,0.06172839506172778,40.55555555555515,0)" xlink:href="#M"/><use transform="matrix(0.06172839506172778,0,0,0.06172839506172778,45.80246913580201,0)" xlink:href="#y"/></g><g id="l"><use transform="matrix(0.06172839506172778,0,0,0.06172839506172778,0,0)" xlink:href="#I"/><use transform="matrix(0.06172839506172778,0,0,0.06172839506172778,17.28395061728378,0)" xlink:href="#H"/><use transform="matrix(0.06172839506172778,0,0,0.06172839506172778,29.629629629629335,0)" xlink:href="#D"/><use transform="matrix(0.06172839506172778,0,0,0.06172839506172778,43.14814814814772,0)" xlink:href="#y"/></g><g id="m"><use transform="matrix(0.06172839506172778,0,0,0.06172839506172778,0,0)" xlink:href="#x"/><use transform="matrix(0.06172839506172778,0,0,0.06172839506172778,12.345679012345556,0)" xlink:href="#H"/><use transform="matrix(0.06172839506172778,0,0,0.06172839506172778,24.691358024691112,0)" xlink:href="#D"/><use transform="matrix(0.06172839506172778,0,0,0.06172839506172778,38.209876543209496,0)" xlink:href="#M"/><use transform="matrix(0.06172839506172778,0,0,0.06172839506172778,43.45679012345636,0)" xlink:href="#y"/></g><g id="n"><use transform="matrix(0.06172839506172778,0,0,0.06172839506172778,0,0)" xlink:href="#J"/><use transform="matrix(0.06172839506172778,0,0,0.06172839506172778,7.345679012345606,0)" xlink:href="#C"/><use transform="matrix(0.06172839506172778,0,0,0.06172839506172778,13.518518518518384,0)" xlink:href="#D"/><use transform="matrix(0.06172839506172778,0,0,0.06172839506172778,27.037037037036768,0)" xlink:href="#G"/></g><g id="o"><use transform="matrix(0.06172839506172778,0,0,0.06172839506172778,0,0)" xlink:href="#J"/><use transform="matrix(0.06172839506172778,0,0,0.06172839506172778,7.345679012345606,0)" xlink:href="#C"/><use transform="matrix(0.06172839506172778,0,0,0.06172839506172778,13.518518518518384,0)" xlink:href="#D"/><use transform="matrix(0.06172839506172778,0,0,0.06172839506172778,27.037037037036768,0)" xlink:href="#G"/></g><path fill="#fff" d="M185-48c-13 30-37 53-82 52C43 2 14-33 14-96s30-98 90-98c62 0 83 45 84 108H66c0 31 8 55 39 56 18 0 30-7 34-22zm-45-69c5-46-57-63-70-21-2 6-4 13-4 21h74" id="N"/><use transform="matrix(0.09876543209876544,0,0,0.09876543209876544,0,0)" xlink:href="#N" id="p"/><g id="q"><use transform="matrix(0.06172839506172778,0,0,0.06172839506172778,0,0)" xlink:href="#u"/><use transform="matrix(0.06172839506172778,0,0,0.06172839506172778,12.345679012345556,0)" xlink:href="#z"/><use transform="matrix(0.06172839506172778,0,0,0.06172839506172778,25.86419753086394,0)" xlink:href="#H"/><use transform="matrix(0.06172839506172778,0,0,0.06172839506172778,38.209876543209496,0)" xlink:href="#K"/><use transform="matrix(0.06172839506172778,0,0,0.06172839506172778,46.851851851851386,0)" xlink:href="#v"/></g><g id="r"><use transform="matrix(0.06172839506172778,0,0,0.06172839506172778,0,0)" xlink:href="#I"/><use transform="matrix(0.06172839506172778,0,0,0.06172839506172778,17.28395061728378,0)" xlink:href="#C"/><use transform="matrix(0.06172839506172778,0,0,0.06172839506172778,23.456790123456557,0)" xlink:href="#u"/><use transform="matrix(0.06172839506172778,0,0,0.06172839506172778,35.80246913580211,0)" xlink:href="#z"/><use transform="matrix(0.06172839506172778,0,0,0.06172839506172778,49.3209876543205,0)" xlink:href="#w"/><use transform="matrix(0.06172839506172778,0,0,0.06172839506172778,55.493827160493275,0)" xlink:href="#C"/><use transform="matrix(0.06172839506172778,0,0,0.06172839506172778,61.66666666666605,0)" xlink:href="#u"/><use transform="matrix(0.06172839506172778,0,0,0.06172839506172778,74.01234567901162,0)" xlink:href="#y"/></g><path fill="#333" d="M123 10C108 53 80 86 19 72V37c35 8 53-11 59-39L3-190h52l48 148c12-52 28-100 44-148h51" id="O"/><path fill="#333" d="M4 7l51-268h42L46 7H4" id="P"/><path fill="#333" d="M144 0l-44-69L55 0H2l70-98-66-92h53l41 62 40-62h54l-67 91 71 99h-54" id="Q"/><g id="s"><use transform="matrix(0.06172839506172778,0,0,0.06172839506172778,0,0)" xlink:href="#B"/><use transform="matrix(0.06172839506172778,0,0,0.06172839506172778,13.518518518518384,0)" xlink:href="#w"/><use transform="matrix(0.06172839506172778,0,0,0.06172839506172778,19.691358024691162,0)" xlink:href="#H"/><use transform="matrix(0.06172839506172778,0,0,0.06172839506172778,32.03703703703672,0)" xlink:href="#O"/><use transform="matrix(0.06172839506172778,0,0,0.06172839506172778,44.382716049382275,0)" xlink:href="#P"/><use transform="matrix(0.06172839506172778,0,0,0.06172839506172778,50.55555555555505,0)" xlink:href="#v"/><use transform="matrix(0.06172839506172778,0,0,0.06172839506172778,62.90123456790061,0)" xlink:href="#Q"/><use transform="matrix(0.06172839506172778,0,0,0.06172839506172778,75.24691358024617,0)" xlink:href="#B"/><use transform="matrix(0.06172839506172778,0,0,0.06172839506172778,88.76543209876456,0)" xlink:href="#w"/><use transform="matrix(0.06172839506172778,0,0,0.06172839506172778,94.93827160493734,0)" xlink:href="#A"/><use transform="matrix(0.06172839506172778,0,0,0.06172839506172778,108.45679012345573,0)" xlink:href="#K"/><use transform="matrix(0.06172839506172778,0,0,0.06172839506172778,117.09876543209762,0)" xlink:href="#v"/></g></defs></g></svg>